<?xml version="1.0" standalone="no"?>
<!DOCTYPE svg PUBLIC "-//W3C//DTD SVG 1.1//EN" "http://www.w3.org/Graphics/SVG/1.1/DTD/svg11.dtd" >
<svg xmlns="http://www.w3.org/2000/svg">
<metadata>Generated by IcoMoon</metadata>
<defs>
<font id="icomoon" horiz-adv-x="1024">
<font-face units-per-em="1024" ascent="960" descent="-64" />
<missing-glyph horiz-adv-x="1024" />
<glyph unicode="&#x20;" horiz-adv-x="512" d="" />
<glyph unicode="&#xe900;" glyph-name="ic_add" d="M469.333 469.334h-277.487c-11.529 0-21.179-9.641-21.179-21.533v-42.267c0-12.401 9.482-21.533 21.179-21.533h277.487v-277.487c0-11.529 9.641-21.179 21.533-21.179h42.267c12.401 0 21.533 9.482 21.533 21.179v277.487h277.487c11.529 0 21.179 9.641 21.179 21.533v42.267c0 12.401-9.482 21.533-21.179 21.533h-277.487v277.487c0 11.529-9.641 21.179-21.533 21.179h-42.267c-12.401 0-21.533-9.482-21.533-21.179v-277.487z" />
<glyph unicode="&#xe901;" glyph-name="ic_completed" d="M411.689 167.551c8.272-8.118 21.659-8.016 29.923 0.25l469.474 469.609c8.254 8.256 8.517 21.436-0.211 30.245l-29.75 30.024c-8.37 8.448-22.057 8.391-30.278 0.163l-424.181-424.491-253.423 247.832c-8.402 8.216-21.64 8.39-30.369-0.419l-29.75-30.024c-8.37-8.448-8.291-22.034-0.179-29.996l298.742-293.194z" />
<glyph unicode="&#xe902;" glyph-name="ic_done" d="M512 810.667h-362.658c-11.632 0-21.342-9.555-21.342-21.342v-725.315c0-11.632 9.555-21.342 21.342-21.342h725.315c11.632 0 21.342 9.555 21.342 21.342v362.658h-85.333v-298.667h-597.333v597.333h298.667v85.333zM517.922 317.012c8.408-8.197 21.727-8.336 30.45 0.39l383.578 383.71c8.409 8.412 8.799 21.719 0.070 30.528l-29.75 30.024c-8.37 8.448-21.911 8.535-30.366 0.073l-338.76-339.067-167.674 162.253c-8.631 8.352-22.056 8.636-30.784-0.173l-29.75-30.024c-8.37-8.448-8.135-22.141 0.067-30.138l212.917-207.576z" />
<glyph unicode="&#xe903;" glyph-name="ic_search" d="M469.333 128c-188.513 0-341.333 152.82-341.333 341.333s152.82 341.333 341.333 341.333c188.513 0 341.333-152.82 341.333-341.333s-152.82-341.333-341.333-341.333zM469.333 213.334c141.385 0 256 114.615 256 256s-114.615 256-256 256c-141.385 0-256-114.615-256-256s114.615-256 256-256zM646.034 244.361l48.272 48.272c3.332 3.332 8.735 3.332 12.068 0l229.291-229.291c3.332-3.332 3.332-8.735 0-12.068l-48.272-48.272c-3.332-3.332-8.735-3.332-12.068 0l-229.291 229.291c-3.332 3.332-3.332 8.735 0 12.068z" />
<glyph unicode="&#xe904;" glyph-name="ic_review" d="M469.333 85.334c-212.077 0-384 171.923-384 384s171.923 384 384 384c212.077 0 384-171.923 384-384s-171.923-384-384-384zM469.333 170.667c164.949 0 298.667 133.718 298.667 298.667s-133.718 298.667-298.667 298.667c-164.949 0-298.667-133.718-298.667-298.667s133.718-298.667 298.667-298.667zM688.593 189.735c-3.273 3.273-3.333 8.519 0.080 11.932l48.327 48.327c3.317 3.317 8.714 3.298 11.932 0.080l144.174-144.174c3.273-3.273 3.333-8.519-0.080-11.932l-48.327-48.327c-3.317-3.317-8.714-3.298-11.932-0.080l-144.174 144.174zM349.867 640h238.933c4.713 0 8.533-3.821 8.533-8.533v-68.267c0-4.713-3.821-8.533-8.533-8.533h-238.933c-4.713 0-8.533 3.821-8.533 8.533v68.267c0 4.713 3.821 8.533 8.533 8.533zM264.533 512h324.267c4.713 0 8.533-3.821 8.533-8.533v-68.267c0-4.713-3.821-8.533-8.533-8.533h-324.267c-4.713 0-8.533 3.821-8.533 8.533v68.267c0 4.713 3.821 8.533 8.533 8.533zM392.533 384h196.267c4.713 0 8.533-3.821 8.533-8.533v-68.267c0-4.713-3.821-8.533-8.533-8.533h-196.267c-4.713 0-8.533 3.821-8.533 8.533v68.267c0 4.713 3.821 8.533 8.533 8.533z" />
<glyph unicode="&#xe905;" glyph-name="ic_sendshare" d="M930.040 426.667c4.765 0 8.627-3.689 8.627-8.912v-408.844c0-4.922-3.805-8.912-8.446-8.912h-836.442c-4.664 0-8.446 3.689-8.446 8.912v408.844c0 4.922 3.703 8.912 8.627 8.912h196.079c4.765 0 8.627-3.667 8.627-8.494v-68.345c0-4.691-3.693-8.494-8.398-8.494h-119.602v-256h682.667v256h-119.602c-4.638 0-8.398 3.667-8.398 8.494v68.345c0 4.691 3.703 8.494 8.627 8.494h196.079zM555.897 695.722l190.49-182.88c3.241-3.112 8.701-3.052 12.107 0.218l49.622 47.639c3.505 3.365 3.341 8.634-0.146 11.982l-289.636 278.065c-3.7 3.552-9.14 3.347-12.626 0l-289.636-278.065c-3.7-3.552-3.552-8.712-0.146-11.982l49.622-47.639c3.505-3.365 8.827-3.367 12.107-0.218l190.557 182.944v-516.796c0-4.597 3.768-8.324 8.728-8.324h70.229c4.82 0 8.728 3.76 8.728 8.324v516.731z" />
<glyph unicode="&#xe906;" glyph-name="ic_down" d="M85.333 8.494c0-4.691 3.805-8.494 8.446-8.494h836.442c4.664 0 8.446 3.667 8.446 8.494v68.345c0 4.691-3.805 8.494-8.446 8.494h-836.442c-4.664 0-8.446-3.667-8.446-8.494v-68.345zM505.851 163.431c3.396-3.396 8.693-3.604 12.297 0l282.081 282.081c3.396 3.396 3.556 8.741 0.142 12.155l-48.327 48.327c-3.317 3.317-8.635 3.378-11.791 0.221l-228.253-228.253-228.253 228.253c-3.195 3.195-8.378 3.193-11.791-0.221l-48.327-48.327c-3.317-3.317-3.461-8.551 0.142-12.155l282.081-282.081zM469.333 853.334h85.398v-597.333h-85.398v597.333z" />
<glyph unicode="&#xe907;" glyph-name="ic_edit" d="M512 810.667h-362.658c-11.632 0-21.342-9.555-21.342-21.342v-725.315c0-11.632 9.555-21.342 21.342-21.342h725.315c11.632 0 21.342 9.555 21.342 21.342v362.658h-85.333v-298.667h-597.333v597.333h298.667v85.333zM435.309 341.236c-4.773-0.009-8.643 4.098-8.643 8.702v45.261c0 4.815 2.629 11.335 5.82 14.512l400.058 398.293c3.214 3.2 8.413 3.201 11.826-0.212l48.327-48.327c3.317-3.317 3.389-8.638 0.212-11.832l-398.293-400.473c-3.2-3.218-9.872-5.833-14.437-5.842l-44.871-0.082z" />
<glyph unicode="&#xe908;" glyph-name="ic_export" d="M512 810.667h-362.658c-11.632 0-21.342-9.555-21.342-21.342v-725.315c0-11.632 9.555-21.342 21.342-21.342h725.315c11.632 0 21.342 9.555 21.342 21.342v362.658h-85.333v-298.667h-597.333v597.333h298.667v85.333zM640 725.334v85.333h235.050c11.57 0 20.95-9.723 20.95-20.95v-235.050h-85.333v110.608l-314.831-314.831-60.34 60.34 314.55 314.55h-110.046z" />
<glyph unicode="&#xe909;" glyph-name="ic_business" d="M548.755 795.98c-8.517 8.111-22.458 7.985-30.842 0l-417.158-397.293c-8.517-8.111-5.965-14.687 5.844-14.687h853.471c11.744 0 14.228 6.702 5.844 14.687l-417.158 397.293zM533.333 695.467l238.933-229.527h-477.867l238.933 229.527zM298.667 384h-85.333v-375.258c0-4.828 4.222-8.742 8.616-8.742h290.050v85.333h-213.333v298.667zM596.931 192.002c-6.251 10.822-9.079 20.376-9.079 29.935 0 24.118 20.795 43.545 48.948 43.545 16.276 0 45.812-9.481 67.376-29.893 21.157 20.411 50.747 29.893 67.024 29.893 28.153 0 48.948-19.427 48.948-43.545 0-9.517-2.802-19.027-8.995-29.794-14.121-24.551-36.367-45.957-106.977-105.902-70.685 59.721-93.077 81.233-107.245 105.761zM697.196 4.89c3.713-3.157 9.553-3.328 13.463-0.028l36.399 30.721c77.896 66.13 101.975 89.302 121.628 123.468 11.723 20.38 17.834 41.119 17.834 62.886 0 61.82-51.482 109.915-115.319 109.915-34.895 0-48-7.128-66.73-24.652-19.871 17.524-43.553 24.652-67.67 24.652-63.837 0-115.319-48.095-115.319-109.915 0-21.858 6.161-42.676 17.979-63.133 19.697-34.099 43.962-57.41 121.436-123.042l36.3-30.872z" />
<glyph unicode="&#xe90a;" glyph-name="ic_set" d="M575.77 762.054c46.846-8.853 90.308-27.278 128.276-53.165l59.921 39.177c10.029 6.557 24.917 5.114 33.446-3.415l32.578-32.578c8.443-8.443 10.163-23.126 3.415-33.446l-39.178-59.923c25.885-37.969 44.309-81.432 53.16-128.278l70.042-14.662c11.728-2.455 21.235-14.003 21.235-26.065v-46.073c0-11.941-9.167-23.539-21.235-26.065l-70.045-14.662c-8.853-46.846-27.278-90.308-53.165-128.276l39.177-59.921c6.557-10.029 5.114-24.917-3.415-33.446l-32.578-32.578c-8.443-8.443-23.126-10.163-33.446-3.415l-59.923 39.178c-37.969-25.885-81.432-44.309-128.278-53.16l-14.662-70.042c-2.455-11.728-14.003-21.235-26.065-21.235h-46.073c-11.941 0-23.539 9.167-26.065 21.235l-14.662 70.045c-46.846 8.853-90.308 27.278-128.276 53.165l-59.921-39.177c-10.029-6.557-24.917-5.114-33.446 3.415l-32.578 32.578c-8.443 8.443-10.163 23.126-3.415 33.446l39.178 59.923c-25.885 37.969-44.309 81.432-53.16 128.278l-70.042 14.662c-11.728 2.455-21.235 14.003-21.235 26.065v46.073c0 11.941 9.167 23.539 21.235 26.065l70.045 14.662c8.853 46.846 27.278 90.308 53.165 128.276l-39.177 59.921c-6.557 10.029-5.114 24.917 3.415 33.446l32.578 32.578c8.443 8.443 23.126 10.163 33.446 3.415l59.923-39.178c37.969 25.885 81.432 44.309 128.278 53.16l14.662 70.042c2.455 11.728 14.003 21.235 26.065 21.235h46.073c11.941 0 23.539-9.167 26.065-21.235l14.662-70.045zM512 170.667c141.385 0 256 114.615 256 256s-114.615 256-256 256c-141.385 0-256-114.615-256-256s114.615-256 256-256z" />
<glyph unicode="&#xe90b;" glyph-name="ic_stop" d="M781.647 635.974c44.931-57.8 71.686-130.429 71.686-209.307 0-188.513-152.82-341.333-341.333-341.333-78.878 0-151.508 26.755-209.307 71.686l478.955 478.955zM721.307 696.314l-478.955-478.955c-44.931 57.8-71.686 130.429-71.686 209.307 0 188.513 152.82 341.333 341.333 341.333 78.878 0 151.508-26.755 209.307-71.686zM512-0c235.641 0 426.667 191.025 426.667 426.667s-191.025 426.667-426.667 426.667c-235.641 0-426.667-191.025-426.667-426.667s191.025-426.667 426.667-426.667z" />
<glyph unicode="&#xe90c;" glyph-name="ic_latedoc" d="M173.010 384c-1.549 14.009-2.344 28.245-2.344 42.667 0 212.077 171.923 384 384 384s384-171.923 384-384c0-212.077-171.923-384-384-384-81.469 0-157.012 25.371-219.161 68.642l49.608 69.451c48.165-33.273 106.583-52.76 169.552-52.76 164.949 0 298.667 133.718 298.667 298.667s-133.718 298.667-298.667 298.667c-164.949 0-298.667-133.718-298.667-298.667 0-14.486 1.031-28.732 3.025-42.667h-86.014zM90.51 419.765c-2.859 3.812-1.557 6.902 3.341 6.902h238.965c4.704 0 6.296-2.962 3.341-6.902l-117.647-156.863c-2.859-3.812-7.398-3.939-10.353 0l-117.647 156.863zM597.333 619.073c0 11.558-9.132 20.927-21.533 20.927h-42.267c-11.892 0-21.533-9.723-21.533-20.95v-214.101c0-11.57 9.167-20.95 21.235-20.95h170.863c11.728 0 21.235 9.132 21.235 21.533v42.267c0 11.892-9.205 21.533-21.137 21.533h-106.863v149.74z" />
<glyph unicode="&#xe90d;" glyph-name="ic_notice" d="M341.333 554.667v85.333h-235.050c-11.227 0-20.95-9.736-20.95-21.745v-383.177c0-12.032 9.379-21.745 20.95-21.745h235.050v85.333h-170.667v256h170.667zM341.333 298.667v-85.333l322.982-201.864c9.914-6.196 18.352-2.026 18.352 9.624v811.146c0 11.51-8.216 15.959-18.352 9.624l-322.982-201.864v-85.333h22.959l233.041 145.067v-546.133l-230.954 145.067h-25.046zM725.333 174.207c121.076 20.313 213.333 125.613 213.333 252.46s-92.258 232.148-213.333 252.46v-87.171c73.61-18.946 128-85.766 128-165.29s-54.39-146.344-128-165.29v-87.171zM725.333 305.95c49.715 17.572 85.333 64.985 85.333 120.717s-35.618 103.145-85.333 120.717v-46.799c25.506-14.755 42.667-42.332 42.667-73.917s-17.16-59.163-42.667-73.917v-46.799z" />
<glyph unicode="&#xe90e;" glyph-name="ic_list" d="M170.667 703.8c0 11.892 9.132 21.533 21.533 21.533h42.267c11.892 0 21.533-9.132 21.533-21.533v-42.267c0-11.892-9.132-21.533-21.533-21.533h-42.267c-11.892 0-21.533 9.132-21.533 21.533v42.267zM341.333 703.8c0 11.892 9.771 21.533 21.348 21.533h469.304c11.79 0 21.348-9.132 21.348-21.533v-42.267c0-11.892-9.771-21.533-21.348-21.533h-469.304c-11.79 0-21.348 9.132-21.348 21.533v42.267zM170.667 447.8c0 11.892 9.132 21.533 21.533 21.533h42.267c11.892 0 21.533-9.132 21.533-21.533v-42.267c0-11.892-9.132-21.533-21.533-21.533h-42.267c-11.892 0-21.533 9.132-21.533 21.533v42.267zM341.333 447.8c0 11.892 9.771 21.533 21.348 21.533h469.304c11.79 0 21.348-9.132 21.348-21.533v-42.267c0-11.892-9.771-21.533-21.348-21.533h-469.304c-11.79 0-21.348 9.132-21.348 21.533v42.267zM170.667 191.8c0 11.892 9.132 21.533 21.533 21.533h42.267c11.892 0 21.533-9.132 21.533-21.533v-42.267c0-11.892-9.132-21.533-21.533-21.533h-42.267c-11.892 0-21.533 9.132-21.533 21.533v42.267zM341.333 191.8c0 11.892 9.771 21.533 21.348 21.533h469.304c11.79 0 21.348-9.132 21.348-21.533v-42.267c0-11.892-9.771-21.533-21.348-21.533h-469.304c-11.79 0-21.348 9.132-21.348 21.533v42.267z" />
<glyph unicode="&#xe90f;" glyph-name="ic_arrow01_down" d="M512 385.1h42.667v42.3h42.667v42.3h42.667v42.3h-298.667v-42.3h42.961v-42.3h42.372v-42.3h42.667v-43.767h42.667z" />
<glyph unicode="&#xe910;" glyph-name="ic_arrow01_left" d="M470.433 405.334v-42.667h42.3v-42.667h42.3v-42.667h42.3v298.667h-42.3v-42.961h-42.3v-42.372h-42.3v-42.667h-43.767v-42.667z" />
<glyph unicode="&#xe911;" glyph-name="ic_arrow01_right" d="M553.567 405.334v-42.667h-42.3v-42.667h-42.3v-42.667h-42.3v298.667h42.3v-42.961h42.3v-42.372h42.3v-42.667h43.767v-42.667z" />
<glyph unicode="&#xe912;" glyph-name="ic_arrow01_up" d="M512 468.234h42.667v-42.3h42.667v-42.3h42.667v-42.3h-298.667v42.3h42.961v42.3h42.372v42.3h42.667v43.767h42.667z" />
<glyph unicode="&#xe913;" glyph-name="ic_arrow02_down" d="M554.667 384h42.667v42.667h42.667v42.667h42.667v42.667h-341.333v-42.667h42.961v-42.667h42.372v-42.667h42.667v-42.667h85.333z" />
<glyph unicode="&#xe914;" glyph-name="ic_arrow02_left" d="M469.333 384v-42.667h42.667v-42.667h42.667v-42.667h42.667v341.333h-42.667v-42.961h-42.667v-42.372h-42.667v-42.667h-42.667v-85.333z" />
<glyph unicode="&#xe915;" glyph-name="ic_arrow02_right" d="M554.667 384v-42.667h-42.667v-42.667h-42.667v-42.667h-42.667v341.333h42.667v-42.961h42.667v-42.372h42.667v-42.667h42.667v-85.333z" />
<glyph unicode="&#xe916;" glyph-name="ic_arrow02_up" d="M554.667 469.334h42.667v-42.667h42.667v-42.667h42.667v-42.667h-341.333v42.667h42.961v42.667h42.372v42.667h42.667v42.667h85.333z" />
<glyph unicode="&#xe917;" glyph-name="ic_dot" d="M512 213.334c-117.821 0-213.333 95.513-213.333 213.333s95.513 213.333 213.333 213.333c117.821 0 213.333-95.513 213.333-213.333s-95.513-213.333-213.333-213.333zM512 256c94.257 0 170.667 76.41 170.667 170.667s-76.41 170.667-170.667 170.667c-94.257 0-170.667-76.41-170.667-170.667s76.41-170.667 170.667-170.667zM512 341.334c47.128 0 85.333 38.205 85.333 85.333s-38.205 85.333-85.333 85.333c-47.128 0-85.333-38.205-85.333-85.333s38.205-85.333 85.333-85.333z" />
<glyph unicode="&#xe918;" glyph-name="ic_attach" d="M341.333 661.599c0 58.764 47.346 106.401 106.667 106.401 58.91 0 106.667-48.104 106.667-106.401v-405.307c0-23.725-18.938-42.959-42.667-42.959-23.564 0-42.667 19.198-42.667 42.959v404.644c0 12.001-9.132 21.73-21.533 21.73h-42.267c-11.892 0-21.533-9.714-21.533-21.746v-404.945c0-70.616 57.308-127.975 128-127.975 70.549 0 128 57.297 128 127.975v405.241c0 106.129-85.961 192.117-192 192.117-105.823 0-192-86.014-192-192.117v-405.273c0-141.514 114.615-255.944 256-255.944 141.097 0 256 114.59 256 255.944v320.034c0 11.794-9.132 21.355-21.533 21.355h-42.267c-11.892 0-21.533-9.84-21.533-21.335v-319.734c0-94.403-76.602-170.931-170.667-170.931-94.257 0-170.667 76.266-170.667 170.931v405.334z" />
<glyph unicode="&#xe919;" glyph-name="ic_folder_outline" d="M170.667 554.667h682.667v85.333h-488.931c-4.77 0-10.5 3.667-12.64 7.875l-39.377 77.458h-141.719v-170.667zM170.667 469.334v-341.333h682.667v341.333h-682.667zM917.319 725.334c11.79 0 21.348-9.65 21.348-21.179v-640.308c0-11.697-9.583-21.179-21.094-21.179h-811.146c-11.65 0-21.094 9.71-21.094 21.342v725.315c0 11.787 9.937 21.342 21.479 21.342h255.708c11.863 0 25.726-8.494 30.948-18.938l33.198-66.395h490.652z" />
<glyph unicode="&#xe91a;" glyph-name="ic_folder_black" d="M917.319 725.334h-490.652l-33.198 66.395c-5.222 10.444-19.086 18.938-30.948 18.938h-255.708c-11.542 0-21.479-9.555-21.479-21.342v-725.315c0-11.632 9.444-21.342 21.094-21.342h811.146c11.51 0 21.094 9.482 21.094 21.179v640.308c0 11.529-9.558 21.179-21.348 21.179zM170.667 554.667h682.667v-85.333h-682.667v85.333z" />
<glyph unicode="&#xe91b;" glyph-name="ic_person_outline" d="M665.641 392.065c42.029 61.866 77.014 145.841 77.014 204.014 0 151.669-102.575 257.254-230.655 257.254-130.168 0-231.801-104.209-231.801-257.254 0-59.261 34.513-144.275 73.813-202.357 26.673-33.975 16.214-59.657-1.971-70.109-45.301-24.007-152.447-83.126-189.099-105.696-53.526-35.751-77.607-61.126-77.607-102.966v-110.585c0-2.411 1.879-4.366 4.591-4.366h844.151c2.536 0 4.591 1.995 4.591 4.366v110.585c-3.74 44.258-27.94 69.391-78.558 103.234-19.204 11.429-47.946 27.648-87.090 49.388-1.21 0.672-1.21 0.672-2.42 1.344-22.95 12.74-97.185 53.673-100.931 55.826-18.026 9.591-28.75 36.501-4.026 67.323zM729.182 194.308c1.203-0.668 1.203-0.668 2.405-1.335 38.476-21.369 66.77-37.335 83.095-46.986 27.413-18.407 38.377-29.794 38.818-34.787l-0.165-25.866h-682.667v29.617c0 1.611 10.144 12.3 38.361 31.166 18.174 11.157 55.327 32.226 102.498 58.253 32.301 17.822 70.17 38.405 81.772 44.561 59.292 34.050 92.442 115.455 29.541 195.139-28.775 42.733-57.307 113.012-57.307 152.010 0 106.388 63.913 171.921 146.468 171.921 80.39 0 145.321-66.837 145.321-171.921 0-37.526-29.011-107.163-60.301-153.407-61.398-76.32-27.507-161.365 31.389-192.612 3.25-1.896 78.63-43.46 100.772-55.752z" />
<glyph unicode="&#xe91c;" glyph-name="ic_person_black" d="M663.562 272.315c-16.557 8.784-80.239 67.765-17.831 145.568 30.567 45.176 75.144 135.529 75.144 197.019 0 154.353-104.438 238.431-208.876 238.431-106.985 0-210.149-82.823-210.149-238.431 0-62.745 43.303-153.098 73.871-198.274 62.408-79.059-2.547-136.784-17.831-145.568-16.557-8.784-157.93-85.333-208.876-116.706-35.662-23.843-63.682-46.431-63.682-74.039v-75.744c0-2.525 1.879-4.572 4.591-4.572h844.151c2.536 0 4.591 1.715 4.591 4.572v75.744c-2.547 28.863-30.567 51.451-66.229 75.294-50.945 30.118-193.592 107.921-208.876 116.706z" />
<glyph unicode="&#xe91d;" glyph-name="ic_person_group_outline" d="M564.943 352.859c37.826 55.679 69.313 131.257 69.313 183.613 0 136.502-92.318 231.529-207.589 231.529-117.151 0-208.621-93.788-208.621-231.529 0-53.334 31.062-129.848 66.431-182.121 24.006-30.577 14.593-53.691-1.774-63.098-40.771-21.606-137.203-74.813-170.189-95.127-48.174-32.176-69.847-55.013-69.847-92.669v-100.013c0-1.901 1.691-3.442 3.424-3.442h761.152c1.891 0 3.424 1.796 3.424 3.442v100.013c-3.366 39.832-25.146 62.452-70.702 92.91-17.284 10.286-43.151 24.883-78.381 44.449-1.089 0.605-1.089 0.605-2.178 1.209-20.655 11.466-87.467 48.306-90.838 50.244-16.224 8.632-25.875 32.851-3.624 60.591v0zM616.582 180.686c1.052-0.584 1.052-0.584 2.104-1.168 33.658-18.698 58.41-32.668 72.69-41.113 23.98-16.106 33.572-26.069 33.957-30.439l-0.145-22.633h-597.189v25.915c0 1.41 8.874 10.763 33.558 27.27 15.899 9.762 48.399 28.197 89.664 50.971 28.256 15.595 61.384 33.604 71.533 38.991 51.868 29.794 80.867 101.023 25.842 170.746-25.172 37.391-50.131 98.886-50.131 133.009 0 93.090 55.91 150.431 128.128 150.431 70.324 0 127.125-58.483 127.125-150.431 0-32.836-25.379-93.767-52.75-134.231-53.71-66.78-24.063-141.195 27.459-168.536 2.843-1.659 68.785-38.028 88.154-48.783zM467.257 763.946c35.412 29.884 80.439 46.721 130.076 46.721 115.271 0 207.589-95.027 207.589-231.529 0-52.356-31.486-127.933-69.313-183.613-22.251-27.74-12.6-51.958 3.624-60.591 3.372-1.938 70.183-38.777 90.838-50.244 1.089-0.605 1.089-0.605 2.178-1.209 35.229-19.566 61.097-34.163 78.381-44.449 45.557-30.459 67.336-53.078 70.702-92.91v-100.013c0-1.646-1.533-3.442-3.424-3.442h-167.243v60.789c-0.757 8.957-2.445 17.043-5.125 24.545h90.314l0.145 22.633c-0.386 4.369-9.977 14.333-33.957 30.439-14.281 8.444-39.032 22.415-74.794 42.281-19.369 10.755-85.311 47.124-88.154 48.783-51.522 27.341-81.169 101.756-27.459 168.536 27.372 40.464 52.75 101.396 52.75 134.231 0 91.948-56.801 150.431-127.125 150.431-13.911 0-27.217-2.128-39.635-6.229-25.689 22.458-56.51 37.944-90.369 44.841v0z" />
<glyph unicode="&#xe91e;" glyph-name="ic_person_group_black" d="M564.943 352.859c37.826 55.679 69.313 131.257 69.313 183.613 0 136.502-92.318 231.529-207.589 231.529-117.151 0-208.621-93.788-208.621-231.529 0-53.334 31.062-129.848 66.431-182.121 24.006-30.577 14.593-53.691-1.774-63.098-40.771-21.606-137.203-74.813-170.189-95.127-48.174-32.176-69.847-55.013-69.847-92.669v-100.013c0-1.901 1.691-3.442 3.424-3.442h761.152c1.891 0 3.424 1.796 3.424 3.442v100.013c-3.366 39.832-25.146 62.452-70.702 92.91-17.284 10.286-43.151 24.883-78.381 44.449-1.089 0.605-1.089 0.605-2.178 1.209-20.655 11.466-87.467 48.306-90.838 50.244-16.224 8.632-25.875 32.851-3.624 60.591zM467.257 763.946c35.412 29.884 80.439 46.721 130.076 46.721 115.271 0 207.589-95.027 207.589-231.529 0-52.356-31.486-127.933-69.313-183.613-22.251-27.74-12.6-51.958 3.624-60.591 3.372-1.938 70.183-38.777 90.838-50.244 1.089-0.605 1.089-0.605 2.178-1.209 35.229-19.566 61.097-34.163 78.381-44.449 45.557-30.459 67.336-53.078 70.702-92.91v-100.013c0-1.646-1.533-3.442-3.424-3.442h-167.243v60.789c-0.757 8.957-2.445 17.043-5.125 24.545h90.314l0.145 22.633c-0.386 4.369-9.977 14.333-33.957 30.439-14.281 8.444-39.032 22.415-74.794 42.281-19.369 10.755-85.311 47.124-88.154 48.783-51.522 27.341-81.169 101.756-27.459 168.536 27.372 40.464 52.75 101.396 52.75 134.231 0 91.948-56.801 150.431-127.125 150.431-13.911 0-27.217-2.128-39.635-6.229-25.689 22.458-56.51 37.944-90.369 44.841z" />
<glyph unicode="&#xe91f;" glyph-name="ic_attend_outline" d="M512-0v0c-235.641 0-426.667 191.025-426.667 426.667s191.025 426.667 426.667 426.667c235.641 0 426.667-191.025 426.667-426.667s-191.025-426.667-426.667-426.667zM512 85.334c188.513 0 341.333 152.82 341.333 341.333s-152.82 341.333-341.333 341.333c-188.513 0-341.333-152.82-341.333-341.333s152.82-341.333 341.333-341.333v0zM448.757 539.565c-8.339 8.341-21.554 8.645-30.321-0.124l-29.88-29.887c-8.407-8.409-8.573-21.951-0.468-30.147l123.12-124.504 195.954 196.001c8.386 8.388 8.729 21.646-0.038 30.414l-29.88 29.887c-8.407 8.409-22.060 8.387-30.159 0.286l-135.119-135.151-63.209 63.225z" />
<glyph unicode="&#xe920;" glyph-name="ic_attend_black" d="M512-0c-235.641 0-426.667 191.025-426.667 426.667s191.025 426.667 426.667 426.667c235.641 0 426.667-191.025 426.667-426.667s-191.025-426.667-426.667-426.667zM448.757 539.565c-8.339 8.341-21.554 8.645-30.321-0.124l-29.88-29.887c-8.407-8.409-8.573-21.951-0.468-30.147l123.12-124.504 195.954 196.001c8.386 8.388 8.729 21.646-0.038 30.414l-29.88 29.887c-8.407 8.409-22.060 8.387-30.159 0.286l-135.119-135.151-63.209 63.225z" />
<glyph unicode="&#xe921;" glyph-name="ic_attendance_outer" d="M691.941 309.22c101.357 104.951 101.357 276.336-0.010 381.331-99.732 103.269-260.173 103.269-359.915-0.010-101.355-104.949-101.355-276.372 0.007-381.328l180.343-186.783 179.574 186.791zM753.323 249.94l-226.267-234.305c-8.339-8.635-21.553-8.95-30.194 0l-226.227 234.305c-133.291 138.017-133.291 361.863 0 499.88s349.397 138.017 482.688 0c133.291-138.062 133.291-361.863 0-499.88zM512 341.334c-94.257 0-170.667 76.41-170.667 170.667s76.41 170.667 170.667 170.667c94.257 0 170.667-76.41 170.667-170.667s-76.41-170.667-170.667-170.667zM512 426.667c47.128 0 85.333 38.205 85.333 85.333s-38.205 85.333-85.333 85.333c-47.128 0-85.333-38.205-85.333-85.333s38.205-85.333 85.333-85.333z" />
<glyph unicode="&#xe922;" glyph-name="ic_attendance_outer_black" d="M270.635 749.821c133.291 138.017 349.397 138.017 482.688 0 133.291-138.062 133.291-361.863 0-499.88l-226.267-234.305c-8.643-8.95-21.857-8.635-30.194 0l-226.227 234.305c-133.291 138.017-133.291 361.863 0 499.88zM512 341.334c94.257 0 170.667 76.41 170.667 170.667s-76.41 170.667-170.667 170.667c-94.257 0-170.667-76.41-170.667-170.667s76.41-170.667 170.667-170.667z" />
<glyph unicode="&#xe923;" glyph-name="ic_attendmac_outline" d="M370.948 722.263l-68.176 68.822c31.725 12.635 66.332 19.582 102.561 19.582 153.167 0 277.333-124.166 277.333-277.333s-124.166-277.333-277.333-277.333c-153.167 0-277.333 124.166-277.333 277.333 0 37.842 7.579 73.913 21.302 106.779l67.99-67.802c-2.595-12.586-3.959-25.622-3.959-38.977 0-106.039 85.961-192 192-192s192 85.961 192 192c0 106.039-85.961 192-192 192-11.737 0-23.229-1.053-34.385-3.070zM539.272 343.070l216.712-216.712c9.536-9.536 25.289-9.536 34.908 0.084 9.837 9.837 9.825 25.167 0.084 34.908l-216.712 216.712-34.992-34.992zM478.932 282.73l155.671 155.671 216.712-216.712c42.941-42.941 43.204-112.301-0.084-155.588-42.987-42.987-112.771-42.9-155.588-0.084l-216.712 216.712zM185.068 701.871c-18.263-23.832-32.745-50.714-42.55-79.749l165.068-160.844c3.592-3.5 11.124-6.447 16.725-6.486l145.621-1.022c8.051-0.056 14.487 6.443 14.45 14.517l-0.692 147.627c-0.023 4.98-3.021 12.156-6.694 15.779l-165.093 162.843c-27.933-9.993-53.795-24.339-76.769-42.221l169.484-166.963 0.276-48.836-50.003-0.278-169.822 165.633z" />
<glyph unicode="&#xe924;" glyph-name="ic_attendmac_black" d="M149.302 640.113l154.954-154.525c8.613-8.59 24.982-15.399 36.836-15.484l106.878-0.768c11.634-0.084 21.419 9.456 21.365 21.312l-0.511 111.447c-0.056 12.271-6.727 28.157-14.905 36.412l-151.147 152.579c31.725 12.635 66.332 19.582 102.561 19.582 153.167 0 277.333-124.166 277.333-277.333 0-37.409-7.407-73.088-20.834-105.65l195.407-195.407c41.765-41.765 42.143-109.1 0.197-151.046-41.656-41.656-109.204-41.646-151.046 0.197l-195.407 195.407c-32.563-13.427-68.241-20.834-105.65-20.834-153.167 0-277.333 124.166-277.333 277.333 0 37.842 7.579 73.913 21.302 106.779zM768 128c23.564 0 42.667 19.103 42.667 42.667s-19.103 42.667-42.667 42.667c-23.564 0-42.667-19.103-42.667-42.667s19.103-42.667 42.667-42.667z" />
<glyph unicode="&#xe925;" glyph-name="ic_calendar_top" d="M682.667 682.667v-72.286c0-7.7 5.637-13.047 12.591-13.047h60.151c6.992 0 12.591 5.841 12.591 13.047v72.286h85.333v-128h-682.667v128h85.333v-72.286c0-7.7 5.637-13.047 12.591-13.047h60.151c6.992 0 12.591 5.841 12.591 13.047v72.286h341.333zM768 768v72.286c0 7.7-5.637 13.047-12.591 13.047h-60.151c-6.992 0-12.591-5.841-12.591-13.047v-72.286h-341.333v72.286c0 7.7-5.637 13.047-12.591 13.047h-60.151c-6.992 0-12.591-5.841-12.591-13.047v-72.286h-149.573c-11.51 0-21.094-9.555-21.094-21.342v-725.315c0-11.632 9.444-21.342 21.094-21.342h811.146c11.51 0 21.094 9.555 21.094 21.342v725.315c0 11.632-9.444 21.342-21.094 21.342h-149.573zM853.333 469.334v-384h-682.667v384h682.667z" />
<glyph unicode="&#xe926;" glyph-name="ic_calendar" d="M810.667 768v64.197c0 11.931-9.463 21.137-21.137 21.137h-85.727c-11.931 0-21.137-9.463-21.137-21.137v-64.197h-341.333v64.197c0 11.931-9.463 21.137-21.137 21.137h-85.727c-11.931 0-21.137-9.463-21.137-21.137v-64.197h-106.906c-11.51 0-21.094-9.555-21.094-21.342v-725.315c0-11.632 9.444-21.342 21.094-21.342h811.146c11.51 0 21.094 9.555 21.094 21.342v725.315c0 11.632-9.444 21.342-21.094 21.342h-106.906zM170.667 640h682.667v-554.667h-682.667v554.667zM674.086 535.096c4.739 10.809-1.356 19.571-12.899 19.571h-268.571c-4.759 0-8.616-3.667-8.616-8.494v-68.345c0-4.691 3.613-8.494 8.343-8.494h164.626l-124.576-290.678c-1.891-4.412 0.243-7.989 5.070-7.989h68.345c4.691 0 9.95 3.32 12.011 8.020l156.267 356.409z" />
<glyph unicode="&#xe927;" glyph-name="ic_calendar_black" d="M810.667 768h106.906c11.65 0 21.094-9.171 21.094-20.926v-683.482c0-11.557-9.583-20.926-21.094-20.926h-811.146c-11.65 0-21.094 9.171-21.094 20.926v683.482c0 11.557 9.583 20.926 21.094 20.926h106.906v64.197c0 11.673 9.205 21.137 21.137 21.137h85.727c11.673 0 21.137-9.205 21.137-21.137v-64.197h341.333v64.197c0 11.673 9.205 21.137 21.137 21.137h85.727c11.673 0 21.137-9.205 21.137-21.137v-64.197zM674.086 577.763c4.739 10.809-1.356 19.571-12.899 19.571h-277.187v-85.333h172.969l-128-298.667h85.333l159.784 364.429z" />
<glyph unicode="&#xe928;" glyph-name="ic_calendar_setting" d="M938.667 296.507v450.151c0 11.632-9.444 21.342-21.094 21.342h-106.906v64.197c0 11.931-9.463 21.137-21.137 21.137h-85.727c-11.931 0-21.137-9.463-21.137-21.137v-64.197h-341.333v64.197c0 11.931-9.463 21.137-21.137 21.137h-85.727c-11.931 0-21.137-9.463-21.137-21.137v-64.197h-106.906c-11.51 0-21.094-9.555-21.094-21.342v-725.315c0-11.632 9.444-21.342 21.094-21.342h535.692c-6.999 16.142-5.689 35.328 4.274 50.565l-6.64 16.035c-12.206 2.555-22.905 9.383-30.505 18.733h-438.581v554.667h682.667v-310.5c9.351-7.583 16.165-18.293 18.738-30.585l16.034-6.643c15.144 9.901 34.403 11.2 50.561 4.236zM674.086 535.096c4.739 10.809-1.356 19.571-12.899 19.571h-268.571c-4.759 0-8.616-3.667-8.616-8.494v-68.345c0-4.691 3.613-8.494 8.343-8.494h164.626l-124.576-290.678c-1.891-4.412 0.243-7.989 5.070-7.989h68.345c4.691 0 9.95 3.32 12.011 8.020l156.267 356.409zM836.175 262.155c18.738-3.541 36.123-10.911 51.311-21.266l23.968 15.671c4.012 2.623 9.967 2.046 13.122-1.11l13.544-13.544c3.236-3.236 3.809-8.994 1.11-13.122l-15.671-23.969c10.354-15.188 17.723-32.573 21.264-51.311l28.017-5.865c4.691-0.982 8.494-5.601 8.494-10.064v-19.153c0-4.576-3.667-9.053-8.494-10.064l-28.018-5.865c-3.541-18.738-10.911-36.123-21.266-51.311l15.671-23.968c2.623-4.012 2.046-9.967-1.11-13.122l-13.544-13.544c-3.236-3.236-8.994-3.809-13.122-1.11l-23.969 15.671c-15.188-10.354-32.573-17.723-51.311-21.264l-5.865-28.017c-0.982-4.691-5.601-8.494-10.064-8.494h-19.153c-4.576 0-9.053 3.667-10.064 8.494l-5.865 28.018c-18.738 3.541-36.123 10.911-51.311 21.266l-23.968-15.671c-4.012-2.623-9.967-2.046-13.122 1.11l-13.544 13.544c-3.236 3.236-3.809 8.994-1.11 13.122l15.671 23.969c-10.354 15.188-17.723 32.573-21.264 51.311l-28.017 5.865c-4.691 0.982-8.494 5.601-8.494 10.064v19.153c0 4.576 3.667 9.053 8.494 10.064l28.018 5.865c3.541 18.738 10.911 36.123 21.266 51.311l-15.671 23.968c-2.623 4.012-2.046 9.967 1.11 13.122l13.544 13.544c3.236 3.236 8.994 3.809 13.122 1.11l23.969-15.671c15.188 10.354 32.573 17.723 51.311 21.264l5.865 28.017c0.982 4.691 5.601 8.494 10.064 8.494h19.153c4.576 0 9.053-3.667 10.064-8.494l5.865-28.018zM810.667 42.667c47.128 0 85.333 38.205 85.333 85.333s-38.205 85.333-85.333 85.333c-47.128 0-85.333-38.205-85.333-85.333s38.205-85.333 85.333-85.333z" />
<glyph unicode="&#xe929;" glyph-name="ic_calendar_black_setting" d="M938.667 296.507c-16.158 6.964-35.418 5.665-50.561-4.236l-16.034 6.643c-5.087 24.303-26.749 42.419-51.825 42.419h-19.153c-24.968 0-46.768-18.257-51.825-42.419l-16.035-6.64c-20.782 13.588-48.909 11.080-66.641-6.651l-13.544-13.544c-17.655-17.655-20.16-45.979-6.651-66.641l-6.643-16.034c-24.303-5.087-42.419-26.749-42.419-51.825v-19.153c0-24.968 18.257-46.768 42.419-51.825l6.64-16.035c-1.657-2.534-3.074-5.178-4.254-7.898h-535.711c-11.65 0-21.094 9.171-21.094 20.926v683.482c0 11.557 9.583 20.926 21.094 20.926h106.906v64.197c0 11.673 9.205 21.137 21.137 21.137h85.727c11.673 0 21.137-9.205 21.137-21.137v-64.197h341.333v64.197c0 11.673 9.205 21.137 21.137 21.137h85.727c11.673 0 21.137-9.205 21.137-21.137v-64.197h106.906c11.65 0 21.094-9.171 21.094-20.926v-450.568zM674.086 577.763c4.739 10.809-1.356 19.571-12.899 19.571h-277.187v-85.333h172.969l-128-298.667h85.333l159.784 364.429zM836.175 262.155c18.738-3.541 36.123-10.911 51.311-21.266l23.968 15.671c4.012 2.623 9.967 2.046 13.122-1.11l13.544-13.544c3.236-3.236 3.809-8.994 1.11-13.122l-15.671-23.969c10.354-15.188 17.723-32.573 21.264-51.311l28.017-5.865c4.691-0.982 8.494-5.601 8.494-10.064v-19.153c0-4.576-3.667-9.053-8.494-10.064l-28.018-5.865c-3.541-18.738-10.911-36.123-21.266-51.311l15.671-23.968c2.623-4.012 2.046-9.967-1.11-13.122l-13.544-13.544c-3.236-3.236-8.994-3.809-13.122-1.11l-23.969 15.671c-15.188-10.354-32.573-17.723-51.311-21.264l-5.865-28.017c-0.982-4.691-5.601-8.494-10.064-8.494h-19.153c-4.576 0-9.053 3.667-10.064 8.494l-5.865 28.018c-18.738 3.541-36.123 10.911-51.311 21.266l-23.968-15.671c-4.012-2.623-9.967-2.046-13.122 1.11l-13.544 13.544c-3.236 3.236-3.809 8.994-1.11 13.122l15.671 23.969c-10.354 15.188-17.723 32.573-21.264 51.311l-28.017 5.865c-4.691 0.982-8.494 5.601-8.494 10.064v19.153c0 4.576 3.667 9.053 8.494 10.064l28.018 5.865c3.541 18.738 10.911 36.123 21.266 51.311l-15.671 23.968c-2.623 4.012-2.046 9.967 1.11 13.122l13.544 13.544c3.236 3.236 8.994 3.809 13.122 1.11l23.969-15.671c15.188 10.354 32.573 17.723 51.311 21.264l5.865 28.017c0.982 4.691 5.601 8.494 10.064 8.494h19.153c4.576 0 9.053-3.667 10.064-8.494l5.865-28.018zM810.667 42.667c47.128 0 85.333 38.205 85.333 85.333s-38.205 85.333-85.333 85.333c-47.128 0-85.333-38.205-85.333-85.333s38.205-85.333 85.333-85.333z" />
<glyph unicode="&#xe92a;" glyph-name="ic_cart_outline" d="M256 256v42.667h522.484c11.773 0 23.536 8.912 26.44 20.579l95.961 385.509c2.829 11.365-4.066 20.579-16.504 20.579h-628.38v106.863c0 11.673-9.176 21.137-20.927 21.137h-141.508c-4.546 0-8.232-3.667-8.232-8.494v-68.345c0-4.691 3.667-8.494 8.494-8.494h76.839v-576.074c0-11.741 9.171-21.259 20.926-21.259h696.262c4.499 0 8.146 3.667 8.146 8.494v68.345c0 4.691-4.087 8.494-8.563 8.494h-631.437zM733.867 384h-477.867v256h546.133l-68.267-256zM341.333 64c0-35.346-28.654-64-64-64s-64 28.654-64 64c0 35.346 28.654 64 64 64s64-28.654 64-64zM853.333 64c0-35.346-28.654-64-64-64s-64 28.654-64 64c0 35.346 28.654 64 64 64s64-28.654 64-64z" />
<glyph unicode="&#xe92b;" glyph-name="ic_cart_black" d="M256 256v42.667h522.484c11.773 0 23.536 8.912 26.44 20.579l95.961 385.509c2.829 11.365-4.066 20.579-16.504 20.579h-628.38v106.863c0 11.673-9.176 21.137-20.927 21.137h-141.508c-4.546 0-8.232-3.667-8.232-8.494v-68.345c0-4.691 3.667-8.494 8.494-8.494h76.839v-576.074c0-11.741 9.171-21.259 20.926-21.259h696.262c4.499 0 8.146 3.667 8.146 8.494v68.345c0 4.691-4.087 8.494-8.563 8.494h-631.437zM341.333 64c0-35.346-28.654-64-64-64s-64 28.654-64 64c0 35.346 28.654 64 64 64s64-28.654 64-64zM853.333 64c0-35.346-28.654-64-64-64s-64 28.654-64 64c0 35.346 28.654 64 64 64s64-28.654 64-64z" />
<glyph unicode="&#xe92c;" glyph-name="ic_comment_outline" d="M469.333 170.667l-219.922-165.161c-19.582-13.055-35.596-4.449-35.596 19.336l-0.482 145.826h-106.863c-11.673 0-21.137 9.65-21.137 21.179v640.308c0 11.697 9.583 21.179 21.094 21.179h811.146c11.65 0 21.094-9.65 21.094-21.179v-640.308c0-11.697-9.803-21.179-21.386-21.179h-447.947zM426.667 256h426.667v512h-682.667v-512h128v-106.667l128 106.667zM298.667 533.134c0 11.892 9.132 21.533 21.533 21.533h42.267c11.892 0 21.533-9.132 21.533-21.533v-42.267c0-11.892-9.132-21.533-21.533-21.533h-42.267c-11.892 0-21.533 9.132-21.533 21.533v42.267zM469.333 533.134c0 11.892 9.132 21.533 21.533 21.533h42.267c11.892 0 21.533-9.132 21.533-21.533v-42.267c0-11.892-9.132-21.533-21.533-21.533h-42.267c-11.892 0-21.533 9.132-21.533 21.533v42.267zM640 533.134c0 11.892 9.132 21.533 21.533 21.533h42.267c11.892 0 21.533-9.132 21.533-21.533v-42.267c0-11.892-9.132-21.533-21.533-21.533h-42.267c-11.892 0-21.533 9.132-21.533 21.533v42.267z" />
<glyph unicode="&#xe92d;" glyph-name="ic_comment_black" d="M469.333 170.667h447.947c11.583 0 21.386 9.482 21.386 21.179v640.308c0 11.529-9.444 21.179-21.094 21.179h-811.146c-11.51 0-21.094-9.482-21.094-21.179v-640.308c0-11.529 9.463-21.179 21.137-21.179h106.863l0.482-145.826c0-23.785 16.014-32.39 35.596-19.336l219.922 165.161zM298.667 533.134c0 11.892 9.132 21.533 21.533 21.533h42.267c11.892 0 21.533-9.132 21.533-21.533v-42.267c0-11.892-9.132-21.533-21.533-21.533h-42.267c-11.892 0-21.533 9.132-21.533 21.533v42.267zM469.333 533.134c0 11.892 9.132 21.533 21.533 21.533h42.267c11.892 0 21.533-9.132 21.533-21.533v-42.267c0-11.892-9.132-21.533-21.533-21.533h-42.267c-11.892 0-21.533 9.132-21.533 21.533v42.267zM640 533.134c0 11.892 9.132 21.533 21.533 21.533h42.267c11.892 0 21.533-9.132 21.533-21.533v-42.267c0-11.892-9.132-21.533-21.533-21.533h-42.267c-11.892 0-21.533 9.132-21.533 21.533v42.267z" />
<glyph unicode="&#xe92e;" glyph-name="ic_dunpan_outline" d="M725.333 85.334h-469.332c-94.257 0-170.668 76.602-170.668 170.667 0 70.945 43.375 131.779 104.957 157.531-12.642 30.312-19.623 63.575-19.623 98.469 0 141.385 114.615 256 256 256s256-114.615 256-256c0-1.428-0.012-2.852-0.035-4.275 13.797 2.803 28.077 4.275 42.702 4.275 117.821 0 213.333-95.513 213.333-213.333s-95.513-213.333-213.333-213.333zM725.333 170.667c70.692 0 128 57.308 128 128s-57.308 128-128 128c-8.754 0-17.345-0.866-25.712-2.566l-82.994-16.861c-11.629-2.363-20.896 5.519-20.704 17.205l1.386 84.678c0.020 1.436 0.020 1.436 0.024 2.878 0 94.257-76.41 170.667-170.667 170.667s-170.667-76.41-170.667-170.667c0-22.916 4.472-45.059 13.048-65.622l24.535-58.828c4.573-10.966-0.742-23.628-11.567-28.155l-58.805-24.591c-31.554-13.195-52.545-44.096-52.545-78.804 0-47.017 38.286-85.333 85.334-85.333h469.332z" />
<glyph unicode="&#xe92f;" glyph-name="ic_dunpan_black" d="M725.333 85.334h-469.332c-94.257 0-170.668 76.602-170.668 170.667 0 70.945 43.375 131.779 104.957 157.531-12.642 30.312-19.623 63.575-19.623 98.469 0 141.385 114.615 256 256 256s256-114.615 256-256c0-1.428-0.012-2.852-0.035-4.275 13.797 2.803 28.077 4.275 42.702 4.275 117.821 0 213.333-95.513 213.333-213.333s-95.513-213.333-213.333-213.333z" />
<glyph unicode="&#xe930;" glyph-name="ic_eye_outline" d="M782.29 351.279c33.339 32.275 74.948 99.916 74.948 99.916 6.388 10.018 6.439 26.267 0 36.277 0 0-41.61 67.641-74.948 99.916-90.178 87.299-183.102 137.946-270.29 137.946s-180.112-50.646-270.29-137.946c-33.339-32.275-85.321-101.231-85.321-101.231-7.135-9.291-7.192-24.324 0-33.646 0 0 51.982-68.957 85.321-101.231 90.178-87.299 183.102-137.946 270.29-137.946s180.112 50.646 270.29 137.946zM66.325 434.091c-13.089 19.464-13.287 51.248 0 70.486 0 0 185.941 306.090 445.675 306.090s445.602-306.090 445.602-306.090c13.084-19.464 13.282-51.248 0-70.486 0 0-185.867-306.090-445.602-306.090s-445.675 306.090-445.675 306.090zM512 298.667c-94.257 0-170.667 76.41-170.667 170.667s76.41 170.667 170.667 170.667c94.257 0 170.667-76.41 170.667-170.667s-76.41-170.667-170.667-170.667zM512 384c47.128 0 85.333 38.205 85.333 85.333s-38.205 85.333-85.333 85.333c-47.128 0-85.333-38.205-85.333-85.333s38.205-85.333 85.333-85.333z" />
<glyph unicode="&#xe931;" glyph-name="ic_eye_black" d="M512 85.334c-259.735 0-451.778 306.090-451.778 306.090-13.983 19.69-13.684 50.737-0.463 69.85 0 0 192.507 306.726 452.241 306.726s451.778-306.090 451.778-306.090c13.983-19.69 13.684-50.737 0.463-69.85 0 0-192.507-306.726-452.241-306.726zM519.122 256c94.257 0 170.667 76.41 170.667 170.667s-76.41 170.667-170.667 170.667c-94.257 0-170.667-76.41-170.667-170.667s76.41-170.667 170.667-170.667z" />
<glyph unicode="&#xe932;" glyph-name="ic_filter_outline" d="M682.905 512l229.478 225.717c49.063 50.551 24.92 115.616-45.372 115.616h-712.761c-66.936 0-90.582-62.922-45.535-110.571l232.856-230.762 0.024-359.819c0-24.932 15.601-49.861 38.619-59.986l58.81-34.010c1.845-1.067 4.391-0.103 5.625 2.047l37.903 66.055c1.261 2.198 0.852 4.804-1.516 6.167l-54.108 31.155v382.556l-226.395 221.835h622.933l-226.242-221.835v-542.083c0-2.255 2.109-4.082 4.588-4.082h76.158c2.534 0 4.589 2.283 4.591 4.426l0.344 507.574z" />
<glyph unicode="&#xe933;" glyph-name="ic_filter_black" d="M639.609 512l237.35 238.227c33.257 33.38 21.943 60.44-25.4 60.44h-680.999c-47.285 0-58.586-27.031-25.178-60.44l238.227-238.227 0.619-405.154c0.018-12.016 9.131-24.786 20.092-28.434l215.511-71.735c11.078-3.687 20.053 3.094 20.047 14.671l-0.27 490.652z" />
<glyph unicode="&#xe934;" glyph-name="ic_home_outline" d="M518.647 804.766c-3.701 3.259-9.424 3.499-13.397-0.006l-419.572-370.13 44.34-45.428 381.928 336.131 381.734-335.238 44.912 44.912-419.944 369.758zM725.342 42.667h77.772c4.171 0 7.552 3.76 7.552 7.622v327.183l-292.967 260.44c-3.148 2.798-8.282 2.771-11.399 0l-292.967-260.44v-327.183c0-4.209 3.214-7.622 7.553-7.622h77.781v297.156l214.2 189.749 212.581-190.52-0.106-296.385zM435.2 298.667h153.6c4.713 0 8.533-3.821 8.533-8.533v-238.933c0-4.713-3.821-8.533-8.533-8.533h-153.6c-4.713 0-8.533 3.821-8.533 8.533v238.933c0 4.713 3.821 8.533 8.533 8.533zM256 128h512v-85.333h-512v85.333z" />
<glyph unicode="&#xe935;" glyph-name="ic_home_black" d="M518.647 804.766c-3.701 3.259-9.424 3.499-13.397-0.006l-419.572-370.13 44.34-45.428 381.928 336.131 381.734-335.238 44.912 44.912-419.944 369.758zM682.667 759.872c0 4.489 3.693 8.128 8.398 8.128h111.203c4.638 0 8.398-3.619 8.398-8.518v-238.965c0-4.704-3.164-5.926-6.882-2.882l-114.236 93.551c-3.801 3.113-6.882 9.373-6.882 13.764v134.921zM803.569 42.667c3.92 0 7.098 3.76 7.098 7.622v327.183l-292.967 260.44c-3.148 2.798-8.282 2.771-11.399 0l-292.967-260.44v-327.183c0-4.209 3.703-7.622 7.098-7.622h206.235v206.235c0 3.92 2.962 7.098 7.333 7.098h156c4.050 0 7.333-3.703 7.333-7.098v-206.235h206.235z" />
<glyph unicode="&#xe936;" glyph-name="ic_igoal_outline" d="M384 512c-94.257 0-170.667 76.41-170.667 170.667s76.41 170.667 170.667 170.667c94.257 0 170.667-76.41 170.667-170.667s-76.41-170.667-170.667-170.667zM384 597.334c47.128 0 85.333 38.205 85.333 85.333s-38.205 85.333-85.333 85.333c-47.128 0-85.333-38.205-85.333-85.333s38.205-85.333 85.333-85.333zM682.667 256c-70.692 0-128 57.308-128 128s57.308 128 128 128c70.692 0 128-57.308 128-128s-57.308-128-128-128zM682.667 341.334c23.564 0 42.667 19.103 42.667 42.667s-19.103 42.667-42.667 42.667c-23.564 0-42.667-19.103-42.667-42.667s19.103-42.667 42.667-42.667zM682.667-42.666c-70.692 0-128 57.308-128 128s57.308 128 128 128c70.692 0 128-57.308 128-128s-57.308-128-128-128zM682.667 42.667c23.564 0 42.667 19.103 42.667 42.667s-19.103 42.667-42.667 42.667c-23.564 0-42.667-19.103-42.667-42.667s19.103-42.667 42.667-42.667zM362.283 42.667c-11.57 0-20.95 9.627-20.95 21.066v533.6h85.333v-170.667h170.667v-85.333h-170.667v-213.333h170.667v-85.333h-235.050z" />
<glyph unicode="&#xe937;" glyph-name="ic_igoal_black" d="M384 512c94.257 0 170.667 76.41 170.667 170.667s-76.41 170.667-170.667 170.667c-94.257 0-170.667-76.41-170.667-170.667s76.41-170.667 170.667-170.667zM682.667 256c70.692 0 128 57.308 128 128s-57.308 128-128 128c-70.692 0-128-57.308-128-128s57.308-128 128-128zM682.667-42.666c70.692 0 128 57.308 128 128s-57.308 128-128 128c-70.692 0-128-57.308-128-128s57.308-128 128-128zM362.283 42.667c-11.57 0-20.95 9.627-20.95 21.066v533.6h85.333v-170.667h170.667v-85.333h-170.667v-213.333h170.667v-85.333h-235.050z" />
<glyph unicode="&#xe938;" glyph-name="ic_inbox_outline" d="M896 643.879v81.455h-768v-81.455l384-174.545 384 174.545zM896 558.546l-384-174.545-384 174.545v-430.545h768v430.545zM42.667 789.325c0 11.787 9.29 21.342 21.369 21.342h895.929c11.802 0 21.369-9.71 21.369-21.342v-725.315c0-11.787-9.29-21.342-21.369-21.342h-895.929c-11.802 0-21.369 9.71-21.369 21.342v725.315z" />
<glyph unicode="&#xe939;" glyph-name="ic_inbox_black" d="M42.667 789.325v-725.315c0-11.632 9.567-21.342 21.369-21.342h895.929c12.079 0 21.369 9.555 21.369 21.342v725.315c0 11.632-9.567 21.342-21.369 21.342h-895.929c-12.079 0-21.369-9.555-21.369-21.342zM42.667 682.667l469.333-213.333 469.333 213.333v-85.333l-469.333-213.333-469.333 213.333v85.333z" />
<glyph unicode="&#xe93a;" glyph-name="ic_memo_outline" d="M85.333 832.24v-811.146c0-11.51 9.444-21.094 21.094-21.094h811.146c11.51 0 21.094 9.444 21.094 21.094v811.146c0 11.51-9.444 21.094-21.094 21.094h-811.146c-11.51 0-21.094-9.444-21.094-21.094zM170.667 768h682.667v-682.667h-682.667v682.667zM759.384 853.334h-281.434c-4.394 0-8.616-4.009-8.616-8.955v-353.3c0-12.010 8.029-17.009 18.311-10.943l123.819 73.047c3.978 2.347 10.322 2.409 14.405 0l123.819-73.047c10.113-5.966 18.311-1.31 18.311 10.943v353.3c0 4.886-3.858 8.955-8.616 8.955zM682.667 597.334l-57.151 38.101c-3.783 2.522-10.29 2.328-13.698 0.11l-57.151-37.18v169.635h128v-170.667z" />
<glyph unicode="&#xe93b;" glyph-name="ic_memo_black" d="M85.333 832.24v-811.146c0-11.51 9.444-21.094 21.094-21.094h811.146c11.51 0 21.094 9.444 21.094 21.094v811.146c0 11.51-9.444 21.094-21.094 21.094h-811.146c-11.51 0-21.094-9.444-21.094-21.094zM759.373 768c4.765 0 8.627-3.915 8.627-8.591v-268.33c0-12.254-5.856-16.909-13.079-10.943l-88.442 73.047c-2.917 2.409-7.448 2.347-10.29 0l-88.442-73.047c-7.345-6.066-13.079-1.067-13.079 10.943v268.33c0 4.745 3.703 8.591 8.627 8.591h196.079z" />
<glyph unicode="&#xe93c;" glyph-name="ic_planactive_outline" d="M938.667 408.844v423.31c0 11.529-9.444 21.179-21.094 21.179h-811.146c-11.51 0-21.094-9.482-21.094-21.179v-640.308c0-11.529 9.463-21.179 21.137-21.179h106.863l0.482-145.826c0-23.785 16.014-32.39 35.596-19.336l219.922 165.161h71.741c-1.515 2.588-2.999 5.208-4.464 7.87-13.968 25.39-22.127 50.976-24.126 77.463h-85.818l-128-106.667v106.667h-128v512h682.667v-341.679c3.544 0.229 7.102 0.346 10.667 0.346 27.058 0 52.44-6.417 74.667-17.823zM264.533 640h494.933c4.713 0 8.533-3.821 8.533-8.533v-68.267c0-4.713-3.821-8.533-8.533-8.533h-494.933c-4.713 0-8.533 3.821-8.533 8.533v68.267c0 4.713 3.821 8.533 8.533 8.533zM264.533 469.334h238.933c4.713 0 8.533-3.821 8.533-8.533v-68.267c0-4.713-3.821-8.533-8.533-8.533h-238.933c-4.713 0-8.533 3.821-8.533 8.533v68.267c0 4.713 3.821 8.533 8.533 8.533zM770.71 89.063c-1.497-1.359-3.938-1.349-5.87 0.41 0 0-105.772 95.586-122.338 124.862-7.552 13.345-11.035 25.36-11.035 37.48 0 30.907 25.667 55.385 59.733 55.385 19.512 0 38.905-8.693 51.34-22.618l25.46-28.514 25.46 28.514c12.434 13.925 31.827 22.618 51.34 22.618 34.067 0 59.733-24.478 59.733-55.385 0-12.066-3.453-24.028-10.935-37.307-16.513-29.307-122.888-125.444-122.888-125.444zM761.381 3.211c3.608-3.133 9.625-3.009 13.084-0.028l40.561 34.947c88.539 76.732 115.961 103.67 138.047 142.866 12.993 23.059 19.726 46.388 19.726 70.819 0 69.353-56.936 123.652-128 123.652-38.969 0-54.52-8.432-76.836-23.35-22.39 14.918-49.315 23.35-76.764 23.35-71.064 0-128-54.299-128-123.652 0-24.534 6.79-47.953 19.888-71.1 22.137-39.121 49.769-66.22 137.838-142.382l40.455-35.123z" />
<glyph unicode="&#xe93d;" glyph-name="ic_planactive_black" d="M938.667 408.844v423.31c0 11.529-9.444 21.179-21.094 21.179h-811.146c-11.51 0-21.094-9.482-21.094-21.179v-640.308c0-11.529 9.463-21.179 21.137-21.179h106.863l0.482-145.826c0-23.785 16.014-32.39 35.596-19.336l219.922 165.161h71.741c-1.515 2.588-2.999 5.208-4.464 7.87-13.968 25.39-22.127 50.976-24.126 77.463h-85.818l-128-106.667v106.667h-128v512h682.667v-341.679c3.544 0.229 7.102 0.346 10.667 0.346 27.058 0 52.44-6.417 74.667-17.823zM264.533 640h494.933c4.713 0 8.533-3.821 8.533-8.533v-68.267c0-4.713-3.821-8.533-8.533-8.533h-494.933c-4.713 0-8.533 3.821-8.533 8.533v68.267c0 4.713 3.821 8.533 8.533 8.533zM264.533 469.334h238.933c4.713 0 8.533-3.821 8.533-8.533v-68.267c0-4.713-3.821-8.533-8.533-8.533h-238.933c-4.713 0-8.533 3.821-8.533 8.533v68.267c0 4.713 3.821 8.533 8.533 8.533zM761.381 3.211c3.608-3.133 9.625-3.009 13.084-0.028l40.561 34.947c88.539 76.732 115.961 103.67 138.047 142.866 12.993 23.059 19.726 46.388 19.726 70.819 0 69.353-56.936 123.652-123.733 123.652-43.236 0-58.836-18.858-81.152-34.133-22.39 15.275-49.266 34.133-80.982 34.133-66.797 0-123.733-54.299-123.733-123.652 0-24.534 6.79-47.953 19.888-71.1 22.137-39.121 49.769-66.22 137.838-142.382l40.455-35.123z" />
<glyph unicode="&#xe93e;" glyph-name="ic_plan" d="M128 788.984v-767.3c0-12.014 9.555-21.683 21.342-21.683h725.315c11.632 0 21.342 9.708 21.342 21.683v767.3c0 12.014-9.555 21.683-21.342 21.683h-725.315c-11.632 0-21.342-9.708-21.342-21.683zM213.333 725.334h597.333v-640h-597.333v640zM512 575.8c0 11.892 9.167 21.533 21.235 21.533h170.863c11.728 0 21.235-9.132 21.235-21.533v-42.267c0-11.892-9.167-21.533-21.235-21.533h-170.863c-11.728 0-21.235 9.132-21.235 21.533v42.267zM298.667 405.134c0 11.892 9.132 21.533 21.533 21.533h42.267c11.892 0 21.533-9.132 21.533-21.533v-42.267c0-11.892-9.132-21.533-21.533-21.533h-42.267c-11.892 0-21.533 9.132-21.533 21.533v42.267zM469.333 405.134c0 11.892 9.723 21.533 20.95 21.533h214.101c11.57 0 20.95-9.132 20.95-21.533v-42.267c0-11.892-9.723-21.533-20.95-21.533h-214.101c-11.57 0-20.95 9.132-20.95 21.533v42.267zM298.667 234.467c0 11.892 9.132 21.533 21.533 21.533h42.267c11.892 0 21.533-9.132 21.533-21.533v-42.267c0-11.892-9.132-21.533-21.533-21.533h-42.267c-11.892 0-21.533 9.132-21.533 21.533v42.267zM469.333 234.467c0 11.892 9.723 21.533 20.95 21.533h214.101c11.57 0 20.95-9.132 20.95-21.533v-42.267c0-11.892-9.723-21.533-20.95-21.533h-214.101c-11.57 0-20.95 9.132-20.95 21.533v42.267zM346.109 506.143c8.614-8.312 22.208-7.903 30.266 0.808l107.727 116.461c8.101 8.758 7.733 22.261-1.245 30.55l-15.177 14.013c-8.788 8.114-22.562 7.475-30.36-0.989l-78.014-84.682-43.385 41.862c-8.539 8.239-22.021 8.132-30.513-0.653l-14.356-14.851c-8.313-8.6-8.116-22.264 0.545-30.621l74.512-71.896z" />
<glyph unicode="&#xe93f;" glyph-name="ic_plan_black" d="M128 768.223v-725.78c0-23.204 18.976-42.444 42.385-42.444h683.23c23.401 0 42.385 19.003 42.385 42.444v725.78c0 23.204-18.976 42.444-42.385 42.444h-683.23c-23.401 0-42.385-19.003-42.385-42.444zM512 575.8c0 11.892 9.167 21.533 21.235 21.533h170.863c11.728 0 21.235-9.132 21.235-21.533v-42.267c0-11.892-9.167-21.533-21.235-21.533h-170.863c-11.728 0-21.235 9.132-21.235 21.533v42.267zM298.667 405.134c0 11.892 9.132 21.533 21.533 21.533h42.267c11.892 0 21.533-9.132 21.533-21.533v-42.267c0-11.892-9.132-21.533-21.533-21.533h-42.267c-11.892 0-21.533 9.132-21.533 21.533v42.267zM469.333 405.134c0 11.892 9.723 21.533 20.95 21.533h214.101c11.57 0 20.95-9.132 20.95-21.533v-42.267c0-11.892-9.723-21.533-20.95-21.533h-214.101c-11.57 0-20.95 9.132-20.95 21.533v42.267zM298.667 234.467c0 11.892 9.132 21.533 21.533 21.533h42.267c11.892 0 21.533-9.132 21.533-21.533v-42.267c0-11.892-9.132-21.533-21.533-21.533h-42.267c-11.892 0-21.533 9.132-21.533 21.533v42.267zM469.333 234.467c0 11.892 9.723 21.533 20.95 21.533h214.101c11.57 0 20.95-9.132 20.95-21.533v-42.267c0-11.892-9.723-21.533-20.95-21.533h-214.101c-11.57 0-20.95 9.132-20.95 21.533v42.267zM346.109 506.143l-74.512 71.896c-8.662 8.358-8.858 22.021-0.545 30.621l14.356 14.851c8.492 8.785 21.974 8.892 30.513 0.653l43.385-41.862 78.014 84.682c7.797 8.464 21.571 9.104 30.36 0.989l15.177-14.013c8.977-8.289 9.346-21.792 1.245-30.55l-107.727-116.461c-8.057-8.711-21.651-9.119-30.266-0.808z" />
<glyph unicode="&#xe940;" glyph-name="ic_prompt" d="M938.667 421.4c0-230.379-191.020-421.399-431.934-421.399-230.379 0-421.399 191.020-421.399 421.399 0 240.914 191.020 431.934 421.399 431.934 240.914 0 431.934-191.020 431.934-431.934zM512 85.334c188.513 0 341.333 152.82 341.333 341.333s-152.82 341.333-341.333 341.333c-188.513 0-341.333-152.82-341.333-341.333s152.82-341.333 341.333-341.333zM494.896 640c-14.833 0-26.265-12.078-25.558-26.505l13.354-272.162h58.616l13.354 272.162c0.718 14.638-10.925 26.505-25.558 26.505h-34.208zM511.974 213.334c23.564 0 42.667 19.103 42.667 42.667s-19.103 42.667-42.667 42.667c-23.564 0-42.667-19.103-42.667-42.667s19.103-42.667 42.667-42.667z" />
<glyph unicode="&#xe941;" glyph-name="ic_prompt_black" d="M938.667 421.4c0-230.379-191.020-421.399-431.934-421.399-230.379 0-421.399 191.020-421.399 421.399 0 240.914 191.020 431.934 421.399 431.934 240.914 0 431.934-191.020 431.934-431.934zM494.896 640c-14.833 0-26.265-12.078-25.558-26.505l13.354-272.162h58.616l13.354 272.162c0.718 14.638-10.925 26.505-25.558 26.505h-34.208zM511.974 213.334c23.564 0 42.667 19.103 42.667 42.667s-19.103 42.667-42.667 42.667c-23.564 0-42.667-19.103-42.667-42.667s19.103-42.667 42.667-42.667z" />
<glyph unicode="&#xe942;" glyph-name="ic_recycle_outline" d="M106.667 725.334h768c11.782 0 21.333-9.551 21.333-21.333v-42.667c0-11.782-9.551-21.333-21.333-21.333h-768c-11.782 0-21.333 9.551-21.333 21.333v42.667c0 11.782 9.551 21.333 21.333 21.333zM362.667 853.334h256c11.782 0 21.333-9.551 21.333-21.333v-42.667c0-11.782-9.551-21.333-21.333-21.333h-256c-11.782 0-21.333 9.551-21.333 21.333v42.667c0 11.782 9.551 21.333 21.333 21.333zM554.667 512h85.333v-298.667h-85.333v298.667zM341.333 512h85.333v-298.667h-85.333v298.667zM170.667 682.667v-639.963c0-23.733 19.245-42.704 42.986-42.704h554.028c23.832 0 42.986 19.119 42.986 42.704v639.963h-640zM256 682.667h469.333v-588.889c0-4.664-4.057-8.444-8.146-8.444h-453.041c-4.499 0-8.146 3.814-8.146 8.444v588.889z" />
<glyph unicode="&#xe943;" glyph-name="ic_recycle_black" d="M106.667 725.334h768c11.782 0 21.333-9.551 21.333-21.333v-42.667c0-11.782-9.551-21.333-21.333-21.333h-768c-11.782 0-21.333 9.551-21.333 21.333v42.667c0 11.782 9.551 21.333 21.333 21.333zM362.667 853.334h256c11.782 0 21.333-9.551 21.333-21.333v-42.667c0-11.782-9.551-21.333-21.333-21.333h-256c-11.782 0-21.333 9.551-21.333 21.333v42.667c0 11.782 9.551 21.333 21.333 21.333zM170.667 682.667v-639.963c0-23.733 19.245-42.704 42.986-42.704h554.028c23.832 0 42.986 19.119 42.986 42.704v639.963h-640zM554.667 512h85.333v-298.667h-85.333v298.667zM341.333 512h85.333v-298.667h-85.333v298.667z" />
<glyph unicode="&#xe944;" glyph-name="ic_recycle02" d="M554.667 768h319.991c11.787 0 21.342-9.132 21.342-21.533v-42.267c0-11.892-9.71-21.533-21.342-21.533h-725.315c-11.787 0-21.342 9.132-21.342 21.533v42.267c0 11.892 9.71 21.533 21.342 21.533h319.991v64.197c0 11.673 9.132 21.137 21.533 21.137h42.267c11.892 0 21.533-9.205 21.533-21.137v-64.197zM213.333 618.706v-597.412c0-11.75 9.518-21.294 21.259-21.294h554.815c11.877 0 21.259 9.534 21.259 21.294v597.412c0 11.75-9.518 21.294-21.259 21.294h-554.815c-11.877 0-21.259-9.534-21.259-21.294zM384 469.334h42.667v-298.667h-42.667v298.667zM597.333 469.334h42.667v-298.667h-42.667v298.667z" />
<glyph unicode="&#xe945;" glyph-name="ic_sent_outline" d="M554.667 789.717c0 11.57 6.665 14.285 15.053 5.896l353.893-353.893c8.314-8.314 8.388-21.718 0-30.107l-353.893-353.893c-8.314-8.314-15.053-5.33-15.053 5.896v235.050c-192.198-13.575-297.89-58.219-397.963-167.382-23.689-25.84-45.264-54.884-45.264-54.884-14.418-18.631-23.373-14.81-19.857 8.651 0 0 3.659 28 10.262 60.912 44.636 222.491 147.291 372.829 452.822 408.703v235.050zM640 477.867c0 0-291.198-4.546-388.122-165.010 136.286 72.057 388.122 79.677 388.122 79.677v-145.067l178.602 179.2-178.602 179.2v-128z" />
<glyph unicode="&#xe946;" glyph-name="ic_sent_black" d="M554.667 789.717c0 11.57 6.665 14.285 15.053 5.896l353.893-353.893c8.314-8.314 8.388-21.718 0-30.107l-353.893-353.893c-8.314-8.314-15.053-5.33-15.053 5.896v235.050c-192.198-13.575-297.89-58.219-397.963-167.382-23.689-25.84-45.264-54.884-45.264-54.884-14.418-18.631-23.373-14.81-19.857 8.651 0 0 3.659 28 10.262 60.912 44.636 222.491 147.291 372.829 452.822 408.703v235.050z" />
<glyph unicode="&#xe947;" glyph-name="ic_replay_outline" d="M466.028 789.717c0 11.57-6.665 14.285-15.053 5.896l-353.893-353.893c-8.314-8.314-8.388-21.718 0-30.107l353.893-353.893c8.314-8.314 15.053-5.33 15.053 5.896v235.050c192.198-13.575 297.89-58.219 397.963-167.382 23.689-25.84 45.264-54.884 45.264-54.884 14.418-18.631 23.373-14.81 19.857 8.651 0 0-3.659 28-10.262 60.912-44.636 222.491-147.291 372.829-452.822 408.703v235.050zM380.695 477.867c0 0 291.198-4.546 388.122-165.010-136.286 72.057-388.122 79.677-388.122 79.677v-145.067l-178.602 179.2 178.602 179.2v-128z" />
<glyph unicode="&#xe948;" glyph-name="ic_replay_black" d="M469.333 789.717c0 11.57-6.665 14.285-15.053 5.896l-353.893-353.893c-8.314-8.314-8.388-21.718 0-30.107l353.893-353.893c8.314-8.314 15.053-5.33 15.053 5.896v235.050c192.198-13.575 297.89-58.219 397.963-167.382 23.689-25.84 45.264-54.884 45.264-54.884 14.418-18.631 23.373-14.81 19.857 8.651 0 0-3.659 28-10.262 60.912-44.636 222.491-147.291 372.829-452.822 408.703v235.050z" />
<glyph unicode="&#xe949;" glyph-name="ic_service_outline" d="M597.333 768h-384v-682.667h597.333v469.333h-191.991c-11.787 0-21.342 9.669-21.342 21.683v191.65zM682.667 731.227v-91.227h105.846l-105.846 91.227zM128 832.24c0 11.65 9.367 21.094 21.155 21.094h518.491l228.354-213.333v-618.706c0-11.76-9.71-21.294-21.342-21.294h-725.315c-11.787 0-21.342 9.583-21.342 21.094v811.146zM298.667 631.506c0 4.691 3.703 8.494 8.627 8.494h196.079c4.765 0 8.627-3.667 8.627-8.494v-68.345c0-4.691-3.703-8.494-8.627-8.494h-196.079c-4.765 0-8.627 3.667-8.627 8.494v68.345zM298.667 460.84c0 4.691 3.689 8.494 8.912 8.494h408.844c4.922 0 8.912-3.667 8.912-8.494v-68.345c0-4.691-3.689-8.494-8.912-8.494h-408.844c-4.922 0-8.912 3.667-8.912 8.494v68.345zM298.667 290.173c0 4.691 3.689 8.494 8.912 8.494h408.844c4.922 0 8.912-3.667 8.912-8.494v-68.345c0-4.691-3.689-8.494-8.912-8.494h-408.844c-4.922 0-8.912 3.667-8.912 8.494v68.345z" />
<glyph unicode="&#xe94a;" d="M128 832.24v-811.146c0-11.51 9.555-21.094 21.342-21.094h725.315c11.632 0 21.342 9.534 21.342 21.294v618.706l-228.354 213.333h-518.491c-11.788 0-21.155-9.444-21.155-21.094zM298.667 631.506c0 4.691 3.703 8.494 8.627 8.494h196.079c4.765 0 8.627-3.667 8.627-8.494v-68.345c0-4.691-3.703-8.494-8.627-8.494h-196.079c-4.765 0-8.627 3.667-8.627 8.494v68.345zM298.667 460.84c0 4.691 3.689 8.494 8.912 8.494h408.844c4.922 0 8.912-3.667 8.912-8.494v-68.345c0-4.691-3.689-8.494-8.912-8.494h-408.844c-4.922 0-8.912 3.667-8.912 8.494v68.345zM298.667 290.173c0 4.691 3.689 8.494 8.912 8.494h408.844c4.922 0 8.912-3.667 8.912-8.494v-68.345c0-4.691-3.689-8.494-8.912-8.494h-408.844c-4.922 0-8.912 3.667-8.912 8.494v68.345z" />
<glyph unicode="&#xe94b;" d="M648.518 597.334c-4.704 0-8.518 3.619-8.518 8.518v247.482h42.667v-213.333h213.333v-42.667h-247.482z" />
<glyph unicode="&#xe94c;" glyph-name="ic_share" d="M314.798 340.651c27.8 4.643 256.609-29.362 262.655-30.525 24.154-4.258 34.002-8.192 37.609-34.343s-33.677-54.134-65.883-52.005c-32.206 0-145.816 27.452-151.855-4.485-8.051-29.807 166.039-76.646 180.129-76.646 4.91 0 278.677 76.97 289.169 81.131 16.103 6.387 45.705 11.74 63.956-11.211 17.26-21.706 13.805-48.328-8.125-59.883-11.223-5.913-316.214-149.302-354.458-149.302s-267.287 69.006-301.505 69.006c-34.218 0-66.424-10.645-100.642-10.645s-80.531 27.678-80.514 80.905c0.010 31.053 0 47.212 14.090 63.872 40.592 47.997 161.028 121.357 215.375 134.131zM887.494 170.667c4.698 0 8.506 3.673 8.506 8.631v652.856c0 11.697-9.171 21.179-20.926 21.179h-683.482c-11.557 0-20.926-9.249-20.926-20.956v-567.844l85.333 33.168v470.299h554.667l-0.118-588.889c-0.001-4.664 3.67-8.444 8.504-8.444h68.441zM345.6 682.667h375.467c2.356 0 4.267-1.91 4.267-4.267v-76.8c0-2.356-1.91-4.267-4.267-4.267h-375.467c-2.356 0-4.267 1.91-4.267 4.267v76.8c0 2.356 1.91 4.267 4.267 4.267zM345.6 512h247.467c2.356 0 4.267-1.91 4.267-4.267v-76.8c0-2.356-1.91-4.267-4.267-4.267h-247.467c-2.356 0-4.267 1.91-4.267 4.267v76.8c0 2.356 1.91 4.267 4.267 4.267z" />
<glyph unicode="&#xe94d;" glyph-name="ic_sms_black" d="M725.333 640v192.24c0 11.51-9.518 21.094-21.259 21.094h-554.815c-11.877 0-21.259-9.444-21.259-21.094v-811.146c0-11.51 9.518-21.094 21.259-21.094h554.815c11.877 0 21.259 9.444 21.259 21.094v234.906h-85.333v-85.333h-426.667v554.667h426.667v-85.333h85.333zM384 789.334c0 11.782 9.132 21.333 21.533 21.333h42.267c11.892 0 21.533-9.896 21.533-21.333 0-11.782-9.132-21.333-21.533-21.333h-42.267c-11.892 0-21.533 9.896-21.533 21.333zM384 85.334c0 23.564 18.938 42.667 42.667 42.667 23.564 0 42.667-18.938 42.667-42.667 0-23.564-18.938-42.667-42.667-42.667-23.564 0-42.667 18.938-42.667 42.667zM469.333 575.854v-255.708c0-11.542 9.736-21.479 21.745-21.479h383.177c12.032 0 21.745 9.617 21.745 21.479v255.708c0 11.542-9.736 21.479-21.745 21.479h-383.177c-12.032 0-21.745-9.617-21.745-21.479zM469.333 554.667l213.333-85.333 213.333 85.333v-42.667l-213.333-85.333-213.333 85.333v42.667z" />
<glyph unicode="&#xe94e;" glyph-name="ic_invitation_black" d="M576.474 149.037c-32.792 81.859 233.778 78.011 234.594 78.011-56.696 32-188.858 100.571-200.428 107.429-15.042 8-72.895 61.714-16.199 132.571 27.769 41.143 68.267 112 68.267 168 0 140.571-94.879 217.143-189.758 217.143-97.193 0-190.915-75.429-190.915-217.143 0-57.143 39.34-128 67.11-169.143 56.696-72-2.314-124.571-16.199-132.571-15.042-8-143.476-77.714-189.758-106.286-32.398-21.714-57.853-42.286-57.853-67.429v-52.753c0-11.892 9.358-21.533 21.693-21.533h279.947c-23.237 74.286 39.313 98.151 85.975 92.052 9.144-1.195 103.525-28.349 103.525-28.349zM800.326 191.659c-23.057 3.194-144.408-17.033-157.757-19.162-14.562-2.129-20.63-7.452-21.843-18.097-1.214-11.71 12.135-27.678 31.551-26.613 19.416 0 94.654 19.162 98.295 3.194 4.854-14.903-108.003-36.194-116.497-36.194s-158.97 38.323-168.678 41.517c-9.708 3.194-28.431 3.194-36.925-11.71-8.304-11.078-3.385-24.7 5.374-27.678 0 0 184.454-75.582 207.511-75.582s167.465 36.194 188.095 36.194c20.63 0 40.046-5.323 60.676-5.323s48.541 13.839 48.541 40.452c0 26.613 0 23.606-8.495 31.936-24.472 23.998-97.081 60.678-129.846 67.066z" />
<glyph unicode="&#xe94f;" glyph-name="ic_download_black" d="M106.867 256c-11.892 0-21.533-9.723-21.533-20.95v-214.101c0-11.57 9.583-20.95 21.094-20.95h811.146c11.65 0 21.094 9.723 21.094 20.95v214.101c0 11.57-9.132 20.95-21.533 20.95h-42.267c-11.892 0-21.533-9.176-21.533-20.927v-149.74h-682.667v149.74c0 11.558-9.132 20.927-21.533 20.927h-42.267zM597.333 469.334v319.588c0 12.254-9.369 21.746-20.927 21.746h-128.813c-11.751 0-20.927-9.736-20.927-21.746v-319.588h-170.375c-23.761 0-28.394-12.484-10.428-27.884l250.078-214.353c8.675-7.436 23.247-7.601 32.115 0l250.078 214.353c18.126 15.536 13.298 27.884-10.428 27.884h-170.375z" />
<glyph unicode="&#xe950;" glyph-name="ic_star_outline" d="M512.020 296.024l137.396-71.095-26.143 151.019 110.86 106.383-153.060 22.035-69.14 138.45-68.966-138.45-151.79-22.582 109.59-105.837-26.246-151.613 137.499 71.688zM512.020 199.809l-233.728-121.742c-9.527-4.963-15.764-0.395-13.956 10.046l44.638 257.855-189.090 182.614c-7.708 7.444-5.861 14.644 5.331 16.255l261.315 37.62 116.864 234.604c4.764 9.563 12.519 9.5 17.251 0l116.864-234.604 261.315-37.62c10.652-1.534 12.988-8.86 5.331-16.255l-189.090-182.614 44.638-257.855c1.82-10.511-4.492-14.976-13.956-10.046l-233.728 121.742z" />
<glyph unicode="&#xe951;" glyph-name="ic_star_black" d="M512.020 199.809l-233.728-121.742c-9.527-4.963-15.764-0.395-13.956 10.046l44.638 257.855-189.090 182.614c-7.708 7.444-5.861 14.644 5.331 16.255l261.315 37.62 116.864 234.604c4.764 9.563 12.519 9.5 17.251 0l116.864-234.604 261.315-37.62c10.652-1.534 12.988-8.86 5.331-16.255l-189.090-182.614 44.638-257.855c1.82-10.511-4.492-14.976-13.956-10.046l-233.728 121.742z" />
<glyph unicode="&#xe952;" glyph-name="ic_statactive" d="M576 810.667h42.667c11.782 0 21.333-9.551 21.333-21.333v-725.333c0-11.782-9.551-21.333-21.333-21.333h-42.667c-11.782 0-21.333 9.551-21.333 21.333v725.333c0 11.782 9.551 21.333 21.333 21.333zM234.667 469.334h42.667c11.782 0 21.333-9.551 21.333-21.333v-384c0-11.782-9.551-21.333-21.333-21.333h-42.667c-11.782 0-21.333 9.551-21.333 21.333v384c0 11.782 9.551 21.333 21.333 21.333zM405.333 640h42.667c11.782 0 21.333-9.551 21.333-21.333v-512c0-11.782-9.551-21.333-21.333-21.333h-42.667c-11.782 0-21.333 9.551-21.333 21.333v512c0 11.782 9.551 21.333 21.333 21.333zM746.667 426.667h42.667c11.782 0 21.333-9.551 21.333-21.333v-298.667c0-11.782-9.551-21.333-21.333-21.333h-42.667c-11.782 0-21.333 9.551-21.333 21.333v298.667c0 11.782 9.551 21.333 21.333 21.333zM106.667 128h810.667c11.782 0 21.333-9.551 21.333-21.333v-42.667c0-11.782-9.551-21.333-21.333-21.333h-810.667c-11.782 0-21.333 9.551-21.333 21.333v42.667c0 11.782 9.551 21.333 21.333 21.333z" />
<glyph unicode="&#xe953;" glyph-name="ic_account" d="M106.667 810.667h42.667c11.782 0 21.333-9.551 21.333-21.333v-725.333c0-11.782-9.551-21.333-21.333-21.333h-42.667c-11.782 0-21.333 9.551-21.333 21.333v725.333c0 11.782 9.551 21.333 21.333 21.333zM320 469.334h42.667c11.782 0 21.333-9.551 21.333-21.333v-384c0-11.782-9.551-21.333-21.333-21.333h-42.667c-11.782 0-21.333 9.551-21.333 21.333v384c0 11.782 9.551 21.333 21.333 21.333zM533.333 640h42.667c11.782 0 21.333-9.551 21.333-21.333v-512c0-11.782-9.551-21.333-21.333-21.333h-42.667c-11.782 0-21.333 9.551-21.333 21.333v512c0 11.782 9.551 21.333 21.333 21.333zM746.667 426.667h42.667c11.782 0 21.333-9.551 21.333-21.333v-298.667c0-11.782-9.551-21.333-21.333-21.333h-42.667c-11.782 0-21.333 9.551-21.333 21.333v298.667c0 11.782 9.551 21.333 21.333 21.333zM106.667 128h810.667c11.782 0 21.333-9.551 21.333-21.333v-42.667c0-11.782-9.551-21.333-21.333-21.333h-810.667c-11.782 0-21.333 9.551-21.333 21.333v42.667c0 11.782 9.551 21.333 21.333 21.333z" />
<glyph unicode="&#xe954;" glyph-name="ic_video_outline" d="M42.667 746.821v-640.308c0-11.529 9.555-21.179 21.342-21.179h725.315c11.632 0 21.342 9.482 21.342 21.179v640.308c0 11.529-9.555 21.179-21.342 21.179h-725.315c-11.632 0-21.342-9.482-21.342-21.179zM128 682.667h597.333v-512h-597.333v512zM981.333 661.319c0 11.79-7.942 16.053-17.596 9.618l-231.019-154.012c-4.079-2.719-7.385-9.142-7.385-13.155v-154.203c0-4.546 2.875-10.148 7.385-13.155l231.019-154.012c9.718-6.479 17.596-1.96 17.596 9.618v469.304zM896 522.977v-192.62l-85.333 53.643v85.333l85.333 53.643z" />
<glyph unicode="&#xe955;" glyph-name="ic_video_black" d="M64 768h725.333c11.782 0 21.333-9.551 21.333-21.333v-640c0-11.782-9.551-21.333-21.333-21.333h-725.333c-11.782 0-21.333 9.551-21.333 21.333v640c0 11.782 9.551 21.333 21.333 21.333zM981.333 661.319c0 11.79-7.942 16.053-17.596 9.618l-231.019-154.012c-4.079-2.719-7.385-9.142-7.385-13.155v-154.203c0-4.546 2.875-10.148 7.385-13.155l231.019-154.012c9.718-6.479 17.596-1.96 17.596 9.618v469.304z" />
<glyph unicode="&#xe956;" glyph-name="ic_allmemo_outline" d="M128 375.563v-324.458c0-4.604 3.778-8.437 8.438-8.437h324.458c4.604 0 8.437 3.778 8.437 8.437v324.458c0 4.604-3.778 8.437-8.437 8.437h-324.458c-4.604 0-8.438-3.778-8.438-8.437zM213.333 298.667h170.667v-170.667h-170.667v170.667zM554.667 802.229v-324.458c0-4.604 3.778-8.437 8.437-8.437h324.458c4.604 0 8.437 3.778 8.437 8.437v324.458c0 4.604-3.778 8.438-8.437 8.438h-324.458c-4.604 0-8.437-3.778-8.437-8.438zM640 725.334h170.667v-170.667h-170.667v170.667zM128 802.229v-324.458c0-4.604 3.778-8.437 8.438-8.437h324.458c4.604 0 8.437 3.778 8.437 8.437v324.458c0 4.604-3.778 8.438-8.437 8.438h-324.458c-4.604 0-8.438-3.778-8.438-8.438zM213.333 725.334h170.667v-170.667h-170.667v170.667zM554.667 375.563v-324.458c0-4.604 3.778-8.437 8.437-8.437h324.458c4.604 0 8.437 3.778 8.437 8.437v324.458c0 4.604-3.778 8.437-8.437 8.437h-324.458c-4.604 0-8.437-3.778-8.437-8.437zM640 298.667h170.667v-170.667h-170.667v170.667z" />
<glyph unicode="&#xe957;" glyph-name="ic_allmemo_black" d="M128 375.563c0 4.66 3.833 8.437 8.438 8.437h324.458c4.66 0 8.437-3.833 8.437-8.437v-324.458c0-4.66-3.833-8.437-8.437-8.437h-324.458c-4.66 0-8.438 3.833-8.438 8.437v324.458zM554.667 802.229c0 4.66 3.833 8.438 8.437 8.438h324.458c4.66 0 8.437-3.833 8.437-8.438v-324.458c0-4.66-3.833-8.437-8.437-8.437h-324.458c-4.66 0-8.437 3.833-8.437 8.437v324.458zM128 802.229c0 4.66 3.833 8.438 8.438 8.438h324.458c4.66 0 8.437-3.833 8.437-8.438v-324.458c0-4.66-3.833-8.437-8.437-8.437h-324.458c-4.66 0-8.438 3.833-8.438 8.437v324.458zM554.667 375.563c0 4.66 3.833 8.437 8.437 8.437h324.458c4.66 0 8.437-3.833 8.437-8.437v-324.458c0-4.66-3.833-8.437-8.437-8.437h-324.458c-4.66 0-8.437 3.833-8.437 8.437v324.458z" />
</font>
</defs>
</svg>
