<?xml version="1.0" standalone="no"?>
<!DOCTYPE svg PUBLIC "-//W3C//DTD SVG 1.1//EN" "http://www.w3.org/Graphics/SVG/1.1/DTD/svg11.dtd" >
<svg xmlns="http://www.w3.org/2000/svg">
<metadata>Generated by IcoMoon</metadata>
<defs>
<font id="icomoon" horiz-adv-x="1024">
<font-face units-per-em="1024" ascent="960" descent="-64" />
<missing-glyph horiz-adv-x="1024" />
<glyph unicode="&#x20;" horiz-adv-x="512" d="" />
<glyph unicode="&#xe900;" glyph-name="ic_allmemo_black" d="M128 409.696c0 4.66 3.833 8.437 8.438 8.437h324.458c4.66 0 8.437-3.833 8.437-8.437v-324.458c0-4.66-3.833-8.437-8.437-8.437h-324.458c-4.66 0-8.438 3.833-8.438 8.437v324.458zM554.667 836.362c0 4.66 3.833 8.438 8.437 8.438h324.458c4.66 0 8.437-3.833 8.437-8.438v-324.458c0-4.66-3.833-8.437-8.437-8.437h-324.458c-4.66 0-8.437 3.833-8.437 8.437v324.458zM128 836.362c0 4.66 3.833 8.438 8.438 8.438h324.458c4.66 0 8.437-3.833 8.437-8.438v-324.458c0-4.66-3.833-8.437-8.437-8.437h-324.458c-4.66 0-8.438 3.833-8.438 8.437v324.458zM554.667 409.696c0 4.66 3.833 8.437 8.437 8.437h324.458c4.66 0 8.437-3.833 8.437-8.437v-324.458c0-4.66-3.833-8.437-8.437-8.437h-324.458c-4.66 0-8.437 3.833-8.437 8.437v324.458z" />
<glyph unicode="&#xe901;" glyph-name="ic_allmemo_outline" d="M128 409.696v-324.458c0-4.604 3.778-8.437 8.438-8.437h324.458c4.604 0 8.437 3.778 8.437 8.437v324.458c0 4.604-3.778 8.437-8.437 8.437h-324.458c-4.604 0-8.438-3.778-8.438-8.437zM213.333 332.8h170.667v-170.667h-170.667v170.667zM554.667 836.362v-324.458c0-4.604 3.778-8.437 8.437-8.437h324.458c4.604 0 8.437 3.778 8.437 8.437v324.458c0 4.604-3.778 8.438-8.437 8.438h-324.458c-4.604 0-8.437-3.778-8.437-8.438zM640 759.467h170.667v-170.667h-170.667v170.667zM128 836.362v-324.458c0-4.604 3.778-8.437 8.438-8.437h324.458c4.604 0 8.437 3.778 8.437 8.437v324.458c0 4.604-3.778 8.438-8.437 8.438h-324.458c-4.604 0-8.438-3.778-8.438-8.438zM213.333 759.467h170.667v-170.667h-170.667v170.667zM554.667 409.696v-324.458c0-4.604 3.778-8.437 8.437-8.437h324.458c4.604 0 8.437 3.778 8.437 8.437v324.458c0 4.604-3.778 8.437-8.437 8.437h-324.458c-4.604 0-8.437-3.778-8.437-8.437zM640 332.8h170.667v-170.667h-170.667v170.667z" />
<glyph unicode="&#xe902;" glyph-name="ic_approval_black" d="M426.667 375.467v103.12c-75.345 32.976-128 108.244-128 195.547 0 117.821 95.752 213.333 213.333 213.333 117.821 0 213.333-95.752 213.333-213.333 0-87.441-52.739-162.594-128-195.537v-103.129h213.543c47.013 0 85.124-38.14 85.124-85.542v-127.792h-768v127.792c0 47.243 38.085 85.542 85.124 85.542h213.543zM170.667 119.467h682.667v-85.333h-682.667v85.333z" />
<glyph unicode="&#xe903;" glyph-name="ic_approval_outline" d="M469.333 375.467h-256.21c-47.039 0-85.124-38.298-85.124-85.542v-127.792h768v127.792c0 47.402-38.111 85.542-85.124 85.542h-256.21v89.615c97.226 19.793 170.667 105.867 170.667 209.052 0 117.581-95.513 213.333-213.333 213.333-117.581 0-213.333-95.513-213.333-213.333 0-102.999 73.291-189.248 170.667-209.056v-89.61zM384 674.133c0 70.692 57.451 128 128 128 70.692 0 128-57.451 128-128 0-70.692-57.451-128-128-128-70.692 0-128 57.451-128 128zM170.667 119.467h682.667v-85.333h-682.667v85.333zM213.333 290.133h597.333v-42.667h-597.333v42.667z" />
<glyph unicode="&#xe904;" glyph-name="ic_attend_black" d="M512 34.133c-235.641 0-426.667 191.025-426.667 426.667s191.025 426.667 426.667 426.667c235.641 0 426.667-191.025 426.667-426.667s-191.025-426.667-426.667-426.667zM398.495 621.383l-60.325-60.34 173.039-172.008 232.791 232.348-60.325 60.34-171.708-171.25-113.472 110.91z" />
<glyph unicode="&#xe905;" glyph-name="ic_attend_outline" d="M512 34.133c-235.641 0-426.667 191.025-426.667 426.667s191.025 426.667 426.667 426.667c235.641 0 426.667-191.025 426.667-426.667s-191.025-426.667-426.667-426.667zM512 119.467c188.513 0 341.333 152.82 341.333 341.333s-152.82 341.333-341.333 341.333c-188.513 0-341.333-152.82-341.333-341.333s152.82-341.333 341.333-341.333zM398.495 621.383l-60.325-60.34 173.039-172.008 232.791 232.348-60.325 60.34-171.708-171.25-113.472 110.91z" />
<glyph unicode="&#xe906;" glyph-name="ic_blog_black" d="M648.192 296.589c-36.948-30.677-84.416-49.122-136.192-49.122-117.821 0-213.333 95.513-213.333 213.333s95.513 213.333 213.333 213.333c117.821 0 213.333-95.513 213.333-213.333v-42.667c0-23.564 19.103-42.667 42.667-42.667s42.667 19.103 42.667 42.667v42.667h128v-42.667c0-94.257-76.41-170.667-170.667-170.667-46.687 0-88.995 18.746-119.808 49.122zM938.667 460.8c0 235.641-191.025 426.667-426.667 426.667s-426.667-191.025-426.667-426.667c0-235.641 191.025-426.667 426.667-426.667v128c-164.949 0-298.667 133.718-298.667 298.667s133.718 298.667 298.667 298.667c164.949 0 298.667-133.718 298.667-298.667h128zM512 162.133h149.74c11.558 0 20.927-9.205 20.927-21.137v-85.727c0-11.673-9.176-21.137-20.927-21.137h-149.74v128zM512 375.467c47.128 0 85.333 38.205 85.333 85.333s-38.205 85.333-85.333 85.333c-47.128 0-85.333-38.205-85.333-85.333s38.205-85.333 85.333-85.333z" />
<glyph unicode="&#xe907;" glyph-name="ic_blog_outline" d="M665.764 312.922c-38.813-40.348-93.357-65.456-153.764-65.456-117.821 0-213.333 95.513-213.333 213.333s95.513 213.333 213.333 213.333c117.821 0 213.333-95.513 213.333-213.333v-64c0-35.346 28.654-64 64-64s64 28.654 64 64v64h85.333v-64c0-82.475-66.859-149.333-149.333-149.333-51.38 0-96.7 25.948-123.569 65.456zM938.667 460.8c0 235.641-191.025 426.667-426.667 426.667s-426.667-191.025-426.667-426.667c0-235.641 191.025-426.667 426.667-426.667v85.333c-188.513 0-341.333 152.82-341.333 341.333s152.82 341.333 341.333 341.333c188.513 0 341.333-152.82 341.333-341.333h85.333zM512 119.467h162.435c4.546 0 8.232-3.667 8.232-8.494v-68.345c0-4.691-4.219-8.494-8.232-8.494h-162.435v85.333zM512 332.8c70.692 0 128 57.308 128 128s-57.308 128-128 128c-70.692 0-128-57.308-128-128s57.308-128 128-128z" />
<glyph unicode="&#xe908;" glyph-name="ic_business_black" d="M298.667 76.8h-85.333v341.333h-116.542c-11.785 0-14.636 6.799-6.049 15.185l405.748 396.296c8.686 8.483 22.508 8.387 31.095 0l405.748-396.296c8.686-8.483 5.878-15.185-6.049-15.185h-116.616v-64.508c-3.709 0.336-7.47 0.508-11.276 0.508-23.218 0-48.457-8.713-74.057-21.333-25.6 12.8-35.121 21.333-74.057 21.333-65.619 0-117.943-51.024-117.943-115.828 0-22.656 6.020-44.218 17.571-65.814 15.33-28.661 34.132-51.501 80.526-95.692h-204.764v256h-128v-256zM607.339 202.677c-6.889 12.88-10.005 24.252-10.005 35.629 0 28.705 22.917 51.828 53.943 51.828 17.937 0 50.487-11.285 74.251-35.579 23.316 24.294 55.926 35.579 73.863 35.579 31.025 0 53.943-23.123 53.943-51.828 0-11.327-3.088-22.646-9.913-35.461-15.562-29.22-40.078-54.699-117.893-126.045-77.898 71.080-102.575 96.684-118.189 125.877z" />
<glyph unicode="&#xe909;" glyph-name="ic_business_outline" d="M469.333 119.467h128v-85.333h-375.258c-4.941 0-8.742 3.914-8.742 8.742v375.258h85.333v-298.667h42.667v170.667h128v-170.667zM527.584 829.615c-8.587 8.387-22.409 8.483-31.095 0l-405.748-396.296c-8.587-8.387-5.736-15.185 6.049-15.185h830.491c11.928 0 14.735 6.702 6.049 15.185l-405.748 396.296zM512.037 729.6l232.983-229.527h-465.965l232.983 229.527zM725.333 418.133h85.333v-85.333h-85.333v85.333zM607.339 202.677c-6.889 12.88-10.005 24.252-10.005 35.629 0 28.705 22.917 51.828 53.943 51.828 17.937 0 50.487-11.285 74.251-35.579 23.316 24.294 55.926 35.579 73.863 35.579 31.025 0 53.943-23.123 53.943-51.828 0-11.327-3.088-22.646-9.913-35.461-15.562-29.22-40.078-54.699-117.893-126.045-77.898 71.080-102.575 96.684-118.189 125.877z" />
<glyph unicode="&#xe90a;" glyph-name="ic_calendar_black" d="M810.667 802.133h106.906c11.65 0 21.094-9.171 21.094-20.926v-683.482c0-11.557-9.583-20.926-21.094-20.926h-811.146c-11.65 0-21.094 9.171-21.094 20.926v683.482c0 11.557 9.583 20.926 21.094 20.926h106.906v64.197c0 11.673 9.205 21.137 21.137 21.137h85.727c11.673 0 21.137-9.205 21.137-21.137v-64.197h341.333v64.197c0 11.673 9.205 21.137 21.137 21.137h85.727c11.673 0 21.137-9.205 21.137-21.137v-64.197zM674.086 611.896c4.739 10.809-1.356 19.571-12.899 19.571h-277.187v-85.333h172.969l-128-298.667h85.333l159.784 364.429z" />
<glyph unicode="&#xe90b;" glyph-name="ic_calendar_outline" d="M810.667 802.133v64.197c0 11.931-9.463 21.137-21.137 21.137h-85.727c-11.931 0-21.137-9.463-21.137-21.137v-64.197h-341.333v64.197c0 11.931-9.463 21.137-21.137 21.137h-85.727c-11.931 0-21.137-9.463-21.137-21.137v-64.197h-106.906c-11.51 0-21.094-9.555-21.094-21.342v-725.315c0-11.632 9.444-21.342 21.094-21.342h811.146c11.51 0 21.094 9.555 21.094 21.342v725.315c0 11.632-9.444 21.342-21.094 21.342h-106.906zM170.667 674.133h682.667v-554.667h-682.667v554.667zM674.086 569.229c4.739 10.809-1.356 19.571-12.899 19.571h-268.571c-4.759 0-8.616-3.667-8.616-8.494v-68.345c0-4.691 3.613-8.494 8.343-8.494h164.626l-124.576-290.678c-1.891-4.412 0.243-7.989 5.070-7.989h68.345c4.691 0 9.95 3.32 12.011 8.020l156.267 356.409z" />
<glyph unicode="&#xe90c;" glyph-name="ic_discuss_black" d="M853.333 179.449c-80.35-89.082-198.224-145.315-329.592-145.315-242.126 0-438.408 191.025-438.408 426.667s196.282 426.667 438.408 426.667c131.369 0 249.242-56.233 329.592-145.315l-326.166-267.742c-9.156-7.516-8.98-19.847 0-27.218l326.166-267.742zM490.667 631.467c35.346 0 64 28.654 64 64s-28.654 64-64 64c-35.346 0-64-28.654-64-64s28.654-64 64-64v0zM704 457.325c0 12.208 10.083 22.905 22.501 23.891l178.544 14.174c18.569 1.474 33.622-12.411 33.622-31.101v-6.977c0-18.651-15.397-32.548-33.622-31.101l-178.544 14.174c-12.427 0.987-22.501 11.967-22.501 23.891v-6.95zM699.734 540.039c-4.823 8.353-2.468 19.46 5.079 24.682l136.235 94.264c14.344 9.925 33.041 5.728 41.802-9.447l3.27-5.665c8.743-15.143 3.135-33.425-12.719-40.925l-149.753-70.851c-8.385-3.967-18.886-0.768-23.915 7.942v0zM699.734 390.707c-4.823-8.353-2.468-19.46 5.079-24.682l136.235-94.264c14.344-9.925 33.041-5.728 41.802 9.447l3.27 5.665c8.743 15.143 3.135 33.425-12.719 40.925l-149.753 70.851c-8.385 3.967-18.886 0.768-23.915-7.942v0z" />
<glyph unicode="&#xe90d;" glyph-name="ic_discuss_outline" d="M523.741 802.133c-195.508 0-353.074-153.346-353.074-341.333s157.566-341.333 353.074-341.333c102.255 0 157.676 35.297 197.303 58.438-87.773 72.349-294.309 276.745-294.309 276.745-3.441 3.397-3.628 8.599 0.057 12.067l294.751 277.389c-57.71 27.511-95.548 58.027-197.802 58.027zM560.905 466.676c-3.445-3.245-3.656-8.309 0-11.753l292.429-275.475c-80.35-89.082-198.224-145.315-329.592-145.315-242.126 0-438.408 191.025-438.408 426.667s196.282 426.667 438.408 426.667c131.369 0 249.242-56.233 329.592-145.315l-292.429-275.475zM490.667 631.467c35.346 0 64 28.654 64 64s-28.654 64-64 64c-35.346 0-64-28.654-64-64s28.654-64 64-64v0zM704 457.325c0 12.208 10.083 22.905 22.501 23.891l178.544 14.174c18.569 1.474 33.622-12.411 33.622-31.101v-6.977c0-18.651-15.397-32.548-33.622-31.101l-178.544 14.174c-12.427 0.987-22.501 11.967-22.501 23.891v-6.95zM699.734 540.039c-4.823 8.353-2.468 19.46 5.079 24.682l136.235 94.264c14.344 9.925 33.041 5.728 41.802-9.447l3.27-5.665c8.743-15.143 3.135-33.425-12.719-40.925l-149.753-70.851c-8.385-3.967-18.886-0.768-23.915 7.942v0zM699.734 390.707c-4.823-8.353-2.468-19.46 5.079-24.682l136.235-94.264c14.344-9.925 33.041-5.728 41.802 9.447l3.27 5.665c8.743 15.143 3.135 33.425-12.719 40.925l-149.753 70.851c-8.385 3.967-18.886 0.768-23.915-7.942v0z" />
<glyph unicode="&#xe90e;" glyph-name="ic_folder_black" d="M917.319 759.467h-490.652l-33.198 66.395c-5.222 10.444-19.086 18.938-30.948 18.938h-255.708c-11.542 0-21.479-9.555-21.479-21.342v-725.315c0-11.632 9.444-21.342 21.094-21.342h811.146c11.51 0 21.094 9.482 21.094 21.179v640.308c0 11.529-9.558 21.179-21.348 21.179zM170.667 588.8h682.667v-85.333h-682.667v85.333z" />
<glyph unicode="&#xe90f;" glyph-name="ic_folder_outline" d="M170.667 588.8h682.667v85.333h-488.931c-4.77 0-10.5 3.667-12.64 7.875l-39.377 77.458h-141.719v-170.667zM170.667 503.467v-341.333h682.667v341.333h-682.667zM917.319 759.467c11.79 0 21.348-9.65 21.348-21.179v-640.308c0-11.697-9.583-21.179-21.094-21.179h-811.146c-11.65 0-21.094 9.71-21.094 21.342v725.315c0 11.787 9.937 21.342 21.479 21.342h255.708c11.863 0 25.726-8.494 30.948-18.938l33.198-66.395h490.652z" />
<glyph unicode="&#xe910;" glyph-name="ic_igoal_black" d="M384 546.133c94.257 0 170.667 76.41 170.667 170.667s-76.41 170.667-170.667 170.667c-94.257 0-170.667-76.41-170.667-170.667s76.41-170.667 170.667-170.667zM682.667 290.133c70.692 0 128 57.308 128 128s-57.308 128-128 128c-70.692 0-128-57.308-128-128s57.308-128 128-128zM682.667-8.533c70.692 0 128 57.308 128 128s-57.308 128-128 128c-70.692 0-128-57.308-128-128s57.308-128 128-128zM362.283 76.8c-11.57 0-20.95 9.627-20.95 21.066v533.6h85.333v-170.667h170.667v-85.333h-170.667v-213.333h170.667v-85.333h-235.050z" />
<glyph unicode="&#xe911;" glyph-name="ic_igoal_outline" d="M384 546.133c-94.257 0-170.667 76.41-170.667 170.667s76.41 170.667 170.667 170.667c94.257 0 170.667-76.41 170.667-170.667s-76.41-170.667-170.667-170.667zM384 631.467c47.128 0 85.333 38.205 85.333 85.333s-38.205 85.333-85.333 85.333c-47.128 0-85.333-38.205-85.333-85.333s38.205-85.333 85.333-85.333zM682.667 290.133c-70.692 0-128 57.308-128 128s57.308 128 128 128c70.692 0 128-57.308 128-128s-57.308-128-128-128zM682.667 375.467c23.564 0 42.667 19.103 42.667 42.667s-19.103 42.667-42.667 42.667c-23.564 0-42.667-19.103-42.667-42.667s19.103-42.667 42.667-42.667zM682.667-8.533c-70.692 0-128 57.308-128 128s57.308 128 128 128c70.692 0 128-57.308 128-128s-57.308-128-128-128zM682.667 76.8c23.564 0 42.667 19.103 42.667 42.667s-19.103 42.667-42.667 42.667c-23.564 0-42.667-19.103-42.667-42.667s19.103-42.667 42.667-42.667zM362.283 76.8c-11.57 0-20.95 9.627-20.95 21.066v533.6h85.333v-170.667h170.667v-85.333h-170.667v-213.333h170.667v-85.333h-235.050z" />
<glyph unicode="&#xe912;" glyph-name="ic_inbox_black" d="M42.667 823.458v-725.315c0-11.632 9.567-21.342 21.369-21.342h895.929c12.079 0 21.369 9.555 21.369 21.342v725.315c0 11.632-9.567 21.342-21.369 21.342h-895.929c-12.079 0-21.369-9.555-21.369-21.342zM42.667 674.133l469.333-170.667 469.333 170.667v-85.333l-469.333-170.667-469.333 170.667v85.333z" />
<glyph unicode="&#xe913;" glyph-name="ic_inbox_outline" d="M896 678.012v81.455h-768v-81.455l384-174.545 384 174.545zM896 592.679l-384-174.545-384 174.545v-430.545h768v430.545zM42.667 823.458c0 11.787 9.29 21.342 21.369 21.342h895.929c11.802 0 21.369-9.71 21.369-21.342v-725.315c0-11.787-9.29-21.342-21.369-21.342h-895.929c-11.802 0-21.369 9.71-21.369 21.342v725.315z" />
<glyph unicode="&#xe914;" glyph-name="ic_knowledge_black" d="M311.467 844.8c-156.8 0-248.85-36-248.85-36-11.018-3.682-19.95-15.838-19.95-27.592v-683.482c0-11.557 8.747-17.857 19.95-14.259 0 0 92.050 36 248.85 36 112 0 160.196-32.771 160.196-32.771 10.496-5.465 19.004-0.725 19.004 11.030v683.482c0 11.557-8.13 25.492-19.004 30.821 0 0-48.196 32.771-160.196 32.771zM712.533 844.8c156.8 0 248.85-36 248.85-36 11.018-3.682 19.95-15.838 19.95-27.592v-683.482c0-11.557-8.747-17.857-19.95-14.259 0 0-92.050 36-248.85 36-112 0-160.196-32.771-160.196-32.771-10.496-5.465-19.004-0.725-19.004 11.030v683.482c0 11.557 8.13 25.492 19.004 30.821 0 0 48.196 32.771 160.196 32.771z" />
<glyph unicode="&#xe915;" glyph-name="ic_knowledge_outline" d="M311.467 844.8c112 0 160.196-32.771 160.196-32.771 10.874-5.33 19.004-19.265 19.004-30.821v-683.482c0-11.755-8.508-16.495-19.004-11.030 0 0-48.196 32.771-160.196 32.771-156.8 0-248.85-36-248.85-36-11.203-3.598-19.95 2.702-19.95 14.259v683.482c0 11.755 8.932 23.91 19.95 27.592 0 0 92.050 36 248.85 36zM405.254 746.995c-27.19 7.829-58.062 12.472-92.277 12.472-63.243 0-130.163-8.293-184.977-20.193 0 0 0.438-550.919 0.438-550.919 57.911 10.418 119.803 16.445 184.539 16.445 32.783 0 63.595-2.549 92.348-8.533 0.021 1.298 0 550.728-0.071 550.728zM712.533 844.8c-112 0-160.196-32.771-160.196-32.771-10.874-5.33-19.004-19.265-19.004-30.821v-683.482c0-11.755 8.508-16.495 19.004-11.030 0 0 48.196 32.771 160.196 32.771 156.8 0 248.85-36 248.85-36 11.203-3.598 19.95 2.702 19.95 14.259v683.482c0 11.755-8.932 23.91-19.95 27.592 0 0-92.050 36-248.85 36zM618.746 746.995c27.19 7.829 58.062 12.472 92.277 12.472 63.243 0 130.163-8.293 184.977-20.193 0 0-0.438-550.919-0.438-550.919-57.911 10.418-119.803 16.445-184.539 16.445-32.783 0-63.595-2.549-92.348-8.533-0.021 1.298 0 550.728 0.071 550.728z" />
<glyph unicode="&#xe916;" glyph-name="ic_log_black" d="M565.348 279.218l80.453 80.453 250.199-250.199v756.901c0 11.51-9.555 21.094-21.342 21.094h-725.315c-11.632 0-21.342-9.444-21.342-21.094v-811.146c0-11.51 9.555-21.094 21.342-21.094h661.090l-245.084 245.084zM539.645 304.921l-9.137 9.137-18.508 104.075 102.796-27.458 5.302-5.302-80.453-80.453zM213.333 802.133h85.333v-682.667h-85.333v682.667z" />
<glyph unicode="&#xe917;" glyph-name="ic_log_outline" d="M565.348 279.218l80.453 80.453 164.866-164.866v607.328h-597.333v-682.667h511.766l-159.751 159.751zM539.645 304.921l-9.137 9.137-18.508 104.075 102.796-27.458 5.302-5.302-80.453-80.453zM128 866.373c0 11.65 9.71 21.094 21.342 21.094h725.315c11.787 0 21.342-9.583 21.342-21.094v-811.146c0-11.65-9.71-21.094-21.342-21.094h-725.315c-11.787 0-21.342 9.583-21.342 21.094v811.146zM256 759.467h85.333v-597.333h-85.333v597.333z" />
<glyph unicode="&#xe918;" glyph-name="ic_memo_black" d="M128 332.8h-42.667v-85.333h42.667v-171.016c0-22.891 18.976-42.317 42.385-42.317h683.23c23.401 0 42.385 18.946 42.385 42.317v768.699c0 22.891-18.976 42.317-42.385 42.317h-683.23c-23.401 0-42.385-18.946-42.385-42.317v-171.016h-42.667v-85.333h42.667v-256zM759.768 802.133c4.546 0 8.232-4.236 8.232-8.121v-235.956c0-10.8-4.685-14.904-10.464-9.645l-70.754 64.383c-2.333 2.123-5.959 2.068-8.232 0l-70.754-64.383c-5.876-5.347-10.464-0.94-10.464 9.645v235.956c0 4.485 4.219 8.121 8.232 8.121h154.203zM256 537.639c0 4.691 3.703 8.494 8.627 8.494h196.079c4.765 0 8.627-3.667 8.627-8.494v-68.345c0-4.691-3.703-8.494-8.627-8.494h-196.079c-4.765 0-8.627 3.667-8.627 8.494v68.345zM256 366.973c0 4.691 3.827 8.494 8.887 8.494h494.227c4.908 0 8.887-3.667 8.887-8.494v-68.345c0-4.691-3.827-8.494-8.887-8.494h-494.227c-4.908 0-8.887 3.667-8.887 8.494v68.345zM256 196.306c0 4.691 3.827 8.494 8.887 8.494h494.227c4.908 0 8.887-3.667 8.887-8.494v-68.345c0-4.691-3.827-8.494-8.887-8.494h-494.227c-4.908 0-8.887 3.667-8.887 8.494v68.345z" />
<glyph unicode="&#xe919;" glyph-name="ic_memo_outline" d="M597.333 802.133h-384v-682.667h597.333v682.667h-42.667v-244.077c0-10.8-4.685-14.904-10.464-9.645l-70.754 64.383c-2.333 2.123-5.959 2.068-8.232 0l-70.754-64.383c-5.876-5.347-10.464-0.94-10.464 9.645v244.077zM128 332.8v256h-42.667v85.333h42.667v171.016c0 23.371 18.984 42.317 42.385 42.317h683.23c23.409 0 42.385-19.426 42.385-42.317v-768.699c0-23.371-18.984-42.317-42.385-42.317h-683.23c-23.409 0-42.385 19.426-42.385 42.317v171.016h-42.667v85.333h42.667zM256 494.973c0 4.691 3.703 8.494 8.627 8.494h196.079c4.765 0 8.627-3.667 8.627-8.494v-68.345c0-4.691-3.703-8.494-8.627-8.494h-196.079c-4.765 0-8.627 3.667-8.627 8.494v68.345zM256 366.973c0 4.691 3.827 8.494 8.887 8.494h494.227c4.908 0 8.887-3.667 8.887-8.494v-68.345c0-4.691-3.827-8.494-8.887-8.494h-494.227c-4.908 0-8.887 3.667-8.887 8.494v68.345zM256 238.973c0 4.691 3.827 8.494 8.887 8.494h494.227c4.908 0 8.887-3.667 8.887-8.494v-68.345c0-4.691-3.827-8.494-8.887-8.494h-494.227c-4.908 0-8.887 3.667-8.887 8.494v68.345z" />
<glyph unicode="&#xe91a;" glyph-name="ic_plan_black" d="M128 845.15v-768.699c0-22.891 18.976-42.317 42.385-42.317h683.23c23.401 0 42.385 18.946 42.385 42.317v768.699c0 22.891-18.976 42.317-42.385 42.317h-683.23c-23.401 0-42.385-18.946-42.385-42.317zM512 622.973c0 4.691 3.703 8.494 8.627 8.494h196.079c4.765 0 8.627-3.667 8.627-8.494v-68.345c0-4.691-3.703-8.494-8.627-8.494h-196.079c-4.765 0-8.627 3.667-8.627 8.494v68.345zM298.667 452.306c0 4.691 3.667 8.494 8.494 8.494h68.345c4.691 0 8.494-3.667 8.494-8.494v-68.345c0-4.691-3.667-8.494-8.494-8.494h-68.345c-4.691 0-8.494 3.667-8.494 8.494v68.345zM469.333 452.306c0 4.691 3.619 8.494 8.518 8.494h238.965c4.704 0 8.518-3.667 8.518-8.494v-68.345c0-4.691-3.619-8.494-8.518-8.494h-238.965c-4.704 0-8.518 3.667-8.518 8.494v68.345zM298.667 281.639c0 4.691 3.667 8.494 8.494 8.494h68.345c4.691 0 8.494-3.667 8.494-8.494v-68.345c0-4.691-3.667-8.494-8.494-8.494h-68.345c-4.691 0-8.494 3.667-8.494 8.494v68.345zM469.333 281.639c0 4.691 3.619 8.494 8.518 8.494h238.965c4.704 0 8.518-3.667 8.518-8.494v-68.345c0-4.691-3.619-8.494-8.518-8.494h-238.965c-4.704 0-8.518 3.667-8.518 8.494v68.345zM355.411 531.302l-93.115 89.846c-3.683 3.554-3.528 8.938-0.114 12.47l32.096 33.203c3.265 3.377 9.002 3.675 12.48 0.319l52.549-50.704 86.394 93.779c3.399 3.69 8.993 3.884 12.602 0.551l33.931-31.329c3.451-3.187 3.899-8.885 0.646-12.401l-125.284-135.442c-3.51-3.795-8.708-3.647-12.185-0.292z" />
<glyph unicode="&#xe91b;" glyph-name="ic_plan_outline" d="M128 866.373v-811.146c0-11.51 9.555-21.094 21.342-21.094h725.315c11.632 0 21.342 9.444 21.342 21.094v811.146c0 11.51-9.555 21.094-21.342 21.094h-725.315c-11.632 0-21.342-9.444-21.342-21.094zM213.333 802.133h597.333v-682.667h-597.333v682.667zM512 622.973c0 4.691 3.703 8.494 8.627 8.494h196.079c4.765 0 8.627-3.667 8.627-8.494v-68.345c0-4.691-3.703-8.494-8.627-8.494h-196.079c-4.765 0-8.627 3.667-8.627 8.494v68.345zM298.667 452.306c0 4.691 3.667 8.494 8.494 8.494h68.345c4.691 0 8.494-3.667 8.494-8.494v-68.345c0-4.691-3.667-8.494-8.494-8.494h-68.345c-4.691 0-8.494 3.667-8.494 8.494v68.345zM469.333 452.306c0 4.691 3.619 8.494 8.518 8.494h238.965c4.704 0 8.518-3.667 8.518-8.494v-68.345c0-4.691-3.619-8.494-8.518-8.494h-238.965c-4.704 0-8.518 3.667-8.518 8.494v68.345zM298.667 281.639c0 4.691 3.667 8.494 8.494 8.494h68.345c4.691 0 8.494-3.667 8.494-8.494v-68.345c0-4.691-3.667-8.494-8.494-8.494h-68.345c-4.691 0-8.494 3.667-8.494 8.494v68.345zM469.333 281.639c0 4.691 3.619 8.494 8.518 8.494h238.965c4.704 0 8.518-3.667 8.518-8.494v-68.345c0-4.691-3.619-8.494-8.518-8.494h-238.965c-4.704 0-8.518 3.667-8.518 8.494v68.345zM355.411 531.302c3.477-3.355 8.675-3.503 12.185 0.292l125.284 135.442c3.253 3.516 2.805 9.214-0.646 12.401l-33.931 31.329c-3.609 3.333-9.203 3.139-12.602-0.551l-86.394-93.779-52.549 50.704c-3.478 3.356-9.215 3.059-12.48-0.319l-32.096-33.203c-3.414-3.532-3.569-8.916 0.114-12.47l93.115-89.846z" />
<glyph unicode="&#xe91c;" glyph-name="ic_publicnotice_black" d="M284.026 631.467h-134.683c-11.632 0-21.342-9.518-21.342-21.259v-554.815c0-11.877 9.555-21.259 21.342-21.259h725.315c11.632 0 21.342 9.518 21.342 21.259v554.815c0 11.877-9.555 21.259-21.342 21.259h-131.651l-148.563 148.563c1.885 7.050 2.89 14.459 2.89 22.103 0 47.128-38.205 85.333-85.333 85.333s-85.333-38.205-85.333-85.333c0-8.503 1.244-16.716 3.559-24.467l-146.2-146.2zM404.705 631.467l87.614 87.614c6.318-1.491 12.907-2.281 19.681-2.281 7.644 0 15.054 1.005 22.103 2.89l88.224-88.224h-217.622zM256 546.133h512v-85.333h-512v85.333zM256 375.467h512v-85.333h-512v85.333zM256 204.8h341.333v-85.333h-341.333v85.333z" />
<glyph unicode="&#xe91d;" glyph-name="ic_publicnotice_outline" d="M284.026 631.467h-134.683c-11.632 0-21.342-9.518-21.342-21.259v-554.815c0-11.877 9.555-21.259 21.342-21.259h725.315c11.632 0 21.342 9.518 21.342 21.259v554.815c0 11.877-9.555 21.259-21.342 21.259h-131.651l-148.563 148.563c1.885 7.050 2.89 14.459 2.89 22.103 0 47.128-38.205 85.333-85.333 85.333s-85.333-38.205-85.333-85.333c0-8.503 1.244-16.716 3.559-24.467l-146.2-146.2zM404.705 631.467l87.614 87.614c6.318-1.491 12.907-2.281 19.681-2.281 7.644 0 15.054 1.005 22.103 2.89l88.224-88.224h-217.622zM213.333 546.133h597.333v-426.667h-597.333v426.667zM298.667 503.467h426.667v-85.333h-426.667v85.333zM298.667 375.467h426.667v-85.333h-426.667v85.333zM298.667 247.467h298.667v-85.333h-298.667v85.333z" />
<glyph unicode="&#xe91e;" glyph-name="ic_task_black" d="M554.667 802.133v63.588c0 12.032-9.617 21.745-21.479 21.745h-277.187v-426.667h213.333v-63.588c0-12.032 9.736-21.745 21.746-21.745h340.509c12.254 0 21.746 9.736 21.746 21.745v383.177c0 12.032-9.736 21.745-21.746 21.745h-276.921zM170.667 887.467h85.333v-853.333h-85.333v853.333z" />
<glyph unicode="&#xe91f;" glyph-name="ic_task_outline" d="M554.667 802.133v63.588c0 12.032-9.617 21.745-21.479 21.745h-277.187v-426.667h213.333v-63.588c0-12.032 9.736-21.745 21.746-21.745h340.509c12.254 0 21.746 9.736 21.746 21.745v383.177c0 12.032-9.736 21.745-21.746 21.745h-276.921zM170.667 887.467h85.333v-853.333h-85.333v853.333zM256 802.133h213.333v-256h-213.333v256zM554.667 716.8h213.333v-256h-213.333v256z" />
<glyph unicode="&#xe920;" glyph-name="ic_pausecircle_black" d="M938.667 455.533c0 240.914-191.020 431.934-431.934 431.934-230.379 0-421.399-191.020-421.399-431.934 0-230.379 191.020-421.399 421.399-421.399 240.914 0 431.934 191.020 431.934 421.399zM384 623.029c0 4.66 3.667 8.438 8.494 8.438h68.345c4.691 0 8.494-3.833 8.494-8.438v-324.458c0-4.66-3.667-8.437-8.494-8.437h-68.345c-4.691 0-8.494 3.833-8.494 8.437v324.458zM554.667 623.029c0 4.66 3.667 8.438 8.494 8.438h68.345c4.691 0 8.494-3.833 8.494-8.438v-324.458c0-4.66-3.667-8.437-8.494-8.437h-68.345c-4.691 0-8.494 3.833-8.494 8.437v324.458z" />
<glyph unicode="&#xe921;" glyph-name="ic_pausecircle_outline" d="M938.667 455.533c0-230.379-191.020-421.399-431.934-421.399-230.379 0-421.399 191.020-421.399 421.399 0 240.914 191.020 431.934 421.399 431.934 240.914 0 431.934-191.020 431.934-431.934zM512 119.467c188.513 0 341.333 152.82 341.333 341.333s-152.82 341.333-341.333 341.333c-188.513 0-341.333-152.82-341.333-341.333s152.82-341.333 341.333-341.333zM392.533 631.467h68.267c4.713 0 8.533-3.821 8.533-8.533v-324.267c0-4.713-3.821-8.533-8.533-8.533h-68.267c-4.713 0-8.533 3.821-8.533 8.533v324.267c0 4.713 3.821 8.533 8.533 8.533zM563.2 631.467h68.267c4.713 0 8.533-3.821 8.533-8.533v-324.267c0-4.713-3.821-8.533-8.533-8.533h-68.267c-4.713 0-8.533 3.821-8.533 8.533v324.267c0 4.713 3.821 8.533 8.533 8.533z" />
<glyph unicode="&#xe922;" glyph-name="ic_arrowcircle_black" d="M938.667 455.533c0 240.914-191.020 431.934-431.934 431.934-230.379 0-421.399-191.020-421.399-431.934 0-230.379 191.020-421.399 421.399-421.399 240.914 0 431.934 191.020 431.934 421.399zM426.667 623.029c0 4.66 2.875 6.521 7.385 3.514l241.229-160.819c4.079-2.719 4.51-6.84 0-9.847l-241.229-160.819c-4.079-2.719-7.385-1.090-7.385 3.514v324.458z" />
<glyph unicode="&#xe923;" glyph-name="ic_arrowcircle_outline" d="M938.667 455.533c0-230.379-191.020-421.399-431.934-421.399-230.379 0-421.399 191.020-421.399 421.399 0 240.914 191.020 431.934 421.399 431.934 240.914 0 431.934-191.020 431.934-431.934zM512 119.467c188.513 0 341.333 152.82 341.333 341.333s-152.82 341.333-341.333 341.333c-188.513 0-341.333-152.82-341.333-341.333s152.82-341.333 341.333-341.333zM426.667 623.029c0 4.66 2.875 6.521 7.385 3.514l241.229-160.819c4.079-2.719 4.51-6.84 0-9.847l-241.229-160.819c-4.079-2.719-7.385-1.090-7.385 3.514v324.458z" />
<glyph unicode="&#xe924;" glyph-name="ic_skipnext" d="M256 704.144c0 6.99 4.855 9.419 10.671 5.542l362.658-241.772c5.894-3.929 5.816-10.351 0-14.228l-362.658-241.772c-5.894-3.929-10.671-1.364-10.671 5.542v486.687zM768 707.913c0 4.908-3.667 8.887-8.494 8.887h-68.345c-4.691 0-8.494-3.827-8.494-8.887v-494.227c0-4.908 3.667-8.887 8.494-8.887h68.345c4.691 0 8.494 3.827 8.494 8.887v494.227z" />
<glyph unicode="&#xe925;" glyph-name="ic_skipprevious" d="M768 704.144c0 6.99-4.855 9.419-10.671 5.542l-362.658-241.772c-5.894-3.929-5.816-10.351 0-14.228l362.658-241.772c5.894-3.929 10.671-1.364 10.671 5.542v486.687zM256 707.913c0 4.908 3.667 8.887 8.494 8.887h68.345c4.691 0 8.494-3.827 8.494-8.887v-494.227c0-4.908-3.667-8.887-8.494-8.887h-68.345c-4.691 0-8.494 3.827-8.494 8.887v494.227z" />
<glyph unicode="&#xe926;" glyph-name="ic_pause" d="M307.2 716.8h110.933c4.713 0 8.533-3.821 8.533-8.533v-494.933c0-4.713-3.821-8.533-8.533-8.533h-110.933c-4.713 0-8.533 3.821-8.533 8.533v494.933c0 4.713 3.821 8.533 8.533 8.533zM605.867 716.8h110.933c4.713 0 8.533-3.821 8.533-8.533v-494.933c0-4.713-3.821-8.533-8.533-8.533h-110.933c-4.713 0-8.533 3.821-8.533 8.533v494.933c0 4.713 3.821 8.533 8.533 8.533z" />
<glyph unicode="&#xe927;" glyph-name="ic_stop" d="M307.2 674.133h409.6c4.713 0 8.533-3.821 8.533-8.533v-409.6c0-4.713-3.821-8.533-8.533-8.533h-409.6c-4.713 0-8.533 3.821-8.533 8.533v409.6c0 4.713 3.821 8.533 8.533 8.533z" />
<glyph unicode="&#xe928;" glyph-name="ic_arrow" d="M298.667 754.094c0 4.714 3.216 6.278 6.758 3.793l416.723-292.385c3.732-2.619 3.542-6.998 0-9.483l-416.723-292.385c-3.732-2.619-6.758-0.886-6.758 3.793v586.667z" />
<glyph unicode="&#xe929;" glyph-name="ic_downloadup" d="M106.867 290.133c-11.892 0-21.533-9.723-21.533-20.95v-214.101c0-11.57 9.583-20.95 21.094-20.95h811.146c11.65 0 21.094 9.723 21.094 20.95v214.101c0 11.57-9.132 20.95-21.533 20.95h-42.267c-11.892 0-21.533-9.176-21.533-20.927v-149.74h-682.667v149.74c0 11.558-9.132 20.927-21.533 20.927h-42.267zM597.333 593.507v-325.11c0-11.307-9.369-20.93-20.927-20.93h-128.813c-11.751 0-20.927 9.371-20.927 20.93v325.11h-170.357c-23.78 0-28.417 12.484-10.436 27.884l250.284 214.353c8.682 7.436 23.266 7.601 32.142 0l250.284-214.353c18.141-15.536 13.309-27.884-10.436-27.884h-170.813z" />
<glyph unicode="&#xe92a;" glyph-name="ic_download" d="M106.867 290.133c-11.892 0-21.533-9.723-21.533-20.95v-214.101c0-11.57 9.583-20.95 21.094-20.95h811.146c11.65 0 21.094 9.723 21.094 20.95v214.101c0 11.57-9.132 20.95-21.533 20.95h-42.267c-11.892 0-21.533-9.176-21.533-20.927v-149.74h-682.667v149.74c0 11.558-9.132 20.927-21.533 20.927h-42.267zM597.333 498.773v325.096c0 11.307-9.369 20.93-20.927 20.93h-128.813c-11.751 0-20.927-9.371-20.927-20.93v-325.096h-170.357c-23.78 0-28.417-12.484-10.436-27.884l250.284-214.353c8.682-7.436 23.266-7.601 32.142 0l250.284 214.353c18.141 15.536 13.309 27.884-10.436 27.884h-170.813z" />
<glyph unicode="&#xe92b;" glyph-name="ic_invitation" d="M576.474 183.17c-32.792 81.859 233.778 78.011 234.594 78.011-56.696 32-188.858 100.571-200.428 107.429-15.042 8-72.895 61.714-16.199 132.571 27.769 41.143 68.267 112 68.267 168 0 140.571-94.879 217.143-189.758 217.143-97.193 0-190.915-75.429-190.915-217.143 0-57.143 39.34-128 67.11-169.143 56.696-72-2.314-124.571-16.199-132.571-15.042-8-143.476-77.714-189.758-106.286-32.398-21.714-57.853-42.286-57.853-67.429v-52.753c0-11.892 9.358-21.533 21.693-21.533h279.947c-23.237 74.286 39.313 98.151 85.975 92.052 9.144-1.195 103.525-28.349 103.525-28.349zM800.326 225.792c-23.057 3.194-144.408-17.033-157.757-19.162-14.562-2.129-20.63-7.452-21.843-18.097-1.214-11.71 12.135-27.678 31.551-26.613 19.416 0 94.654 19.162 98.295 3.194 4.854-14.903-108.003-36.194-116.497-36.194s-158.97 38.323-168.678 41.517c-9.708 3.194-28.431 3.194-36.925-11.71-8.304-11.078-3.385-24.7 5.374-27.678 0 0 184.454-75.582 207.511-75.582s167.465 36.194 188.095 36.194c20.63 0 40.046-5.323 60.676-5.323s48.541 13.839 48.541 40.452c0 26.613 0 23.606-8.495 31.936-24.472 23.998-97.081 60.678-129.846 67.066z" />
<glyph unicode="&#xe92c;" glyph-name="ic_share" d="M314.798 374.784c27.8 4.643 256.609-29.362 262.655-30.525 24.154-4.258 34.002-8.192 37.609-34.343s-33.677-54.134-65.883-52.005c-32.206 0-145.816 27.452-151.855-4.485-8.051-29.807 166.039-76.646 180.129-76.646 4.91 0 278.677 76.97 289.169 81.131 16.103 6.387 45.705 11.74 63.956-11.211 17.26-21.706 13.805-48.328-8.125-59.883-11.223-5.913-316.214-149.302-354.458-149.302s-267.287 69.006-301.505 69.006c-34.218 0-66.424-10.645-100.642-10.645s-80.531 27.678-80.514 80.905c0.010 31.053 0 47.212 14.090 63.872 40.592 47.997 161.028 121.357 215.375 134.131zM887.494 204.8c4.698 0 8.506 3.673 8.506 8.631v652.856c0 11.697-9.171 21.179-20.926 21.179h-683.482c-11.557 0-20.926-9.249-20.926-20.956v-567.844l85.333 33.168v470.299h554.667l-0.118-588.889c-0.001-4.664 3.67-8.444 8.504-8.444h68.441zM345.6 716.8h375.467c2.356 0 4.267-1.91 4.267-4.267v-76.8c0-2.356-1.91-4.267-4.267-4.267h-375.467c-2.356 0-4.267 1.91-4.267 4.267v76.8c0 2.356 1.91 4.267 4.267 4.267zM345.6 546.133h247.467c2.356 0 4.267-1.91 4.267-4.267v-76.8c0-2.356-1.91-4.267-4.267-4.267h-247.467c-2.356 0-4.267 1.91-4.267 4.267v76.8c0 2.356 1.91 4.267 4.267 4.267z" />
<glyph unicode="&#xe92d;" glyph-name="ic_sms" d="M725.333 674.133h-85.333v85.333h-426.667v-554.667h426.667v85.333h85.333v-234.906c0-11.65-9.383-21.094-21.259-21.094h-554.815c-11.741 0-21.259 9.583-21.259 21.094v811.146c0 11.65 9.383 21.094 21.259 21.094h554.815c11.741 0 21.259-9.583 21.259-21.094v-192.24zM469.333 609.987v-255.708c0-11.542 9.736-21.479 21.745-21.479h383.177c12.032 0 21.745 9.617 21.745 21.479v255.708c0 11.542-9.736 21.479-21.745 21.479h-383.177c-12.032 0-21.745-9.617-21.745-21.479zM469.333 588.8l213.333-85.333 213.333 85.333v-42.667l-213.333-85.333-213.333 85.333v42.667z" />
<glyph unicode="&#xe92e;" glyph-name="ic_account_black" d="M85.333 844.8h42.667v-768h768v-42.667h-810.667v810.667zM213.333 844.8h170.667v-725.333h-170.667v725.333zM469.333 674.133h170.667v-554.667h-170.667v554.667zM725.333 503.467h170.667v-384h-170.667v384z" />
<glyph unicode="&#xe92f;" glyph-name="ic_approval_black2" d="M426.667 375.467v103.12c-75.345 32.976-128 108.244-128 195.547 0 117.821 95.752 213.333 213.333 213.333 117.821 0 213.333-95.752 213.333-213.333 0-87.441-52.739-162.594-128-195.537v-103.129h213.543c47.013 0 85.124-38.14 85.124-85.542v-127.792h-768v127.792c0 47.243 38.085 85.542 85.124 85.542h213.543zM170.667 119.467h682.667v-85.333h-682.667v85.333z" />
<glyph unicode="&#xe930;" glyph-name="ic_description_outline" d="M597.333 802.133h-384v-682.667h597.333v469.333h-191.991c-11.787 0-21.342 9.669-21.342 21.683v191.65zM682.667 765.36v-91.227h105.846l-105.846 91.227zM128 866.373c0 11.65 9.367 21.094 21.155 21.094h518.491l228.354-213.333v-618.706c0-11.76-9.71-21.294-21.342-21.294h-725.315c-11.787 0-21.342 9.583-21.342 21.094v811.146zM298.667 452.306c0 4.691 3.689 8.494 8.912 8.494h408.844c4.922 0 8.912-3.667 8.912-8.494v-68.345c0-4.691-3.689-8.494-8.912-8.494h-408.844c-4.922 0-8.912 3.667-8.912 8.494v68.345zM298.667 281.639c0 4.691 3.689 8.494 8.912 8.494h408.844c4.922 0 8.912-3.667 8.912-8.494v-68.345c0-4.691-3.689-8.494-8.912-8.494h-408.844c-4.922 0-8.912 3.667-8.912 8.494v68.345z" />
<glyph unicode="&#xe931;" glyph-name="ic_findinpage_black" d="M592.885 276.909l69.046-69.046c3.293-3.293 8.784-3.406 12.101-0.088l48.327 48.327c3.413 3.413 3.278 8.735-0.088 12.101l-69.046 69.046c18.651 29.599 29.442 64.648 29.442 102.218 0 106.039-85.961 192-192 192s-192-85.961-192-192c0-106.039 85.961-192 192-192 37.57 0 72.619 10.791 102.218 29.442zM128 866.373c0 11.65 9.367 21.094 21.155 21.094h518.491l228.354-213.333v-618.706c0-11.76-9.71-21.294-21.342-21.294h-725.315c-11.787 0-21.342 9.583-21.342 21.094v811.146zM490.667 332.8c58.91 0 106.667 47.756 106.667 106.667s-47.756 106.667-106.667 106.667c-58.91 0-106.667-47.756-106.667-106.667s47.756-106.667 106.667-106.667z" />
<glyph unicode="&#xe932;" glyph-name="ic_findinpage_outline" d="M128 866.373v-811.146c0-11.51 9.555-21.094 21.342-21.094h725.315c11.632 0 21.342 9.534 21.342 21.294v618.706l-228.354 213.333h-518.491c-11.788 0-21.155-9.444-21.155-21.094zM213.333 802.133h426.667l170.667-147.094v-535.573h-597.333v682.667zM592.885 276.909c-29.599-18.651-64.648-29.442-102.218-29.442-106.039 0-192 85.961-192 192s85.961 192 192 192c106.039 0 192-85.961 192-192 0-37.57-10.791-72.619-29.442-102.218l69.046-69.046c3.366-3.366 3.502-8.687 0.088-12.101l-48.327-48.327c-3.317-3.317-8.808-3.204-12.101 0.088l-69.046 69.046zM490.667 332.8c58.91 0 106.667 47.756 106.667 106.667s-47.756 106.667-106.667 106.667c-58.91 0-106.667-47.756-106.667-106.667s47.756-106.667 106.667-106.667z" />
<glyph unicode="&#xe933;" glyph-name="ic_folderb_black" d="M917.319 759.467c11.79 0 21.348-9.65 21.348-21.179v-640.308c0-11.697-9.583-21.179-21.094-21.179h-811.146c-11.65 0-21.094 9.71-21.094 21.342v725.315c0 11.787 9.937 21.342 21.479 21.342h255.708c11.863 0 25.726-8.494 30.948-18.938l33.198-66.395h490.652zM700.625 313.726c-6.623 3.514-32.096 27.106-7.132 58.227 12.227 18.071 30.058 54.212 30.058 78.808 0 61.741-41.775 95.372-83.55 95.372-42.794 0-84.060-33.129-84.060-95.372 0-25.098 17.321-61.239 29.548-79.31 24.963-31.623-1.019-54.714-7.132-58.227-6.623-3.514-63.172-34.133-83.55-46.682-14.265-9.537-25.473-18.573-25.473-29.616v-30.297c0-1.010 0.979-1.829 1.522-1.829h338.29c0.84 0 1.522 0.686 1.522 1.829v30.297c-1.019 11.545-12.227 20.58-26.492 30.118-20.378 12.047-77.437 43.169-83.55 46.682z" />
<glyph unicode="&#xe934;" glyph-name="ic_folderb_outline" d="M917.319 759.467c11.79 0 21.348-9.65 21.348-21.179v-640.308c0-11.697-9.583-21.179-21.094-21.179h-811.146c-11.65 0-21.094 9.71-21.094 21.342v725.315c0 11.787 9.937 21.342 21.479 21.342h255.708c11.863 0 25.726-8.494 30.948-18.938l33.198-66.395h490.652zM312.385 759.467h-141.719v-597.333h682.667v512h-488.931c-4.77 0-10.5 3.667-12.64 7.875l-39.377 77.458zM700.625 313.726c-6.623 3.514-32.096 27.106-7.132 58.227 12.227 18.071 30.058 54.212 30.058 78.808 0 61.741-41.775 95.372-83.55 95.372-42.794 0-84.060-33.129-84.060-95.372 0-25.098 17.321-61.239 29.548-79.31 24.963-31.623-1.019-54.714-7.132-58.227-6.623-3.514-63.172-34.133-83.55-46.682-14.265-9.537-25.473-18.573-25.473-29.616v-30.297c0-1.010 0.979-1.829 1.522-1.829h338.29c0.84 0 1.522 0.686 1.522 1.829v30.297c-1.019 11.545-12.227 20.58-26.492 30.118-20.378 12.047-77.437 43.169-83.55 46.682z" />
<glyph unicode="&#xe935;" glyph-name="ic_foldera_black" d="M917.319 759.467c11.79 0 21.348-9.65 21.348-21.179v-640.308c0-11.697-9.583-21.179-21.094-21.179h-811.146c-11.65 0-21.094 9.71-21.094 21.342v725.315c0 11.787 9.937 21.342 21.479 21.342h255.708c11.863 0 25.726-8.494 30.948-18.938l33.198-66.395h490.652z" />
<glyph unicode="&#xe936;" glyph-name="ic_folderopen" d="M917.319 759.467h-490.652l-33.198 66.395c-5.222 10.444-19.086 18.938-30.948 18.938h-255.708c-11.542 0-21.479-9.555-21.479-21.342v-725.315c0-11.632 9.444-21.342 21.094-21.342h811.146c11.51 0 21.094 9.482 21.094 21.179v640.308c0 11.529-9.558 21.179-21.348 21.179zM170.667 674.133h682.667v-512h-682.667v512z" />
<glyph unicode="&#xe937;" glyph-name="ic_foldera_outline" d="M917.319 759.467c11.79 0 21.348-9.65 21.348-21.179v-640.308c0-11.697-9.583-21.179-21.094-21.179h-811.146c-11.65 0-21.094 9.71-21.094 21.342v725.315c0 11.787 9.937 21.342 21.479 21.342h255.708c11.863 0 25.726-8.494 30.948-18.938l33.198-66.395h490.652zM312.385 759.467h-141.719v-597.333h682.667v512h-488.931c-4.77 0-10.5 3.667-12.64 7.875l-39.377 77.458z" />
<glyph unicode="&#xe938;" glyph-name="ic_person_group_black" d="M564.943 386.992c37.826 55.679 69.313 131.257 69.313 183.613 0 136.502-92.318 231.529-207.589 231.529-117.151 0-208.621-93.788-208.621-231.529 0-53.334 31.062-129.848 66.431-182.121 24.006-30.577 14.593-53.691-1.774-63.098-40.771-21.606-137.203-74.813-170.189-95.127-48.174-32.176-69.847-55.013-69.847-92.669v-100.013c0-1.901 1.691-3.442 3.424-3.442h761.152c1.891 0 3.424 1.796 3.424 3.442v100.013c-3.366 39.832-25.146 62.452-70.702 92.91-17.284 10.286-43.151 24.883-78.381 44.449-1.089 0.605-1.089 0.605-2.178 1.209-20.655 11.466-87.467 48.306-90.838 50.244-16.224 8.632-25.875 32.851-3.624 60.591zM467.257 798.079c35.412 29.884 80.439 46.721 130.076 46.721 115.271 0 207.589-95.027 207.589-231.529 0-52.356-31.486-127.933-69.313-183.613-22.251-27.74-12.6-51.958 3.624-60.591 3.372-1.938 70.183-38.777 90.838-50.244 1.089-0.605 1.089-0.605 2.178-1.209 35.229-19.566 61.097-34.163 78.381-44.449 45.557-30.459 67.336-53.078 70.702-92.91v-100.013c0-1.646-1.533-3.442-3.424-3.442h-167.243v60.789c-0.757 8.957-2.445 17.043-5.125 24.545h90.314l0.145 22.633c-0.386 4.369-9.977 14.333-33.957 30.439-14.281 8.444-39.032 22.415-74.794 42.281-19.369 10.755-85.311 47.124-88.154 48.783-51.522 27.341-81.169 101.756-27.459 168.536 27.372 40.464 52.75 101.396 52.75 134.231 0 91.948-56.801 150.431-127.125 150.431-13.911 0-27.217-2.128-39.635-6.229-25.689 22.458-56.51 37.944-90.369 44.841z" />
<glyph unicode="&#xe939;" glyph-name="ic_person_group_b_outline" d="M564.943 386.992c37.826 55.679 69.313 131.257 69.313 183.613 0 136.502-92.318 231.529-207.589 231.529-117.151 0-208.621-93.788-208.621-231.529 0-53.334 31.062-129.848 66.431-182.121 24.006-30.577 14.593-53.691-1.774-63.098-40.771-21.606-137.203-74.813-170.189-95.127-48.174-32.176-69.847-55.013-69.847-92.669v-100.013c0-1.901 1.691-3.442 3.424-3.442h761.152c1.891 0 3.424 1.796 3.424 3.442v100.013c-3.366 39.832-25.146 62.452-70.702 92.91-17.284 10.286-43.151 24.883-78.381 44.449-1.089 0.605-1.089 0.605-2.178 1.209-20.655 11.466-87.467 48.306-90.838 50.244-16.224 8.632-25.875 32.851-3.624 60.591v0zM618.686 213.651c33.658-18.698 58.41-32.668 72.69-41.113 23.98-16.106 33.572-26.069 33.957-30.439l-0.145-107.966h-597.189v111.248c0 1.41 8.874 10.763 33.558 27.27 15.899 9.762 48.399 28.197 89.664 50.971 28.256 15.595 61.384 33.604 71.533 38.991 51.868 29.794 80.867 101.023 25.842 170.746-25.172 37.391-50.131 98.886-50.131 133.009 0 93.090 55.91 150.431 128.128 150.431 70.324 0 127.125-58.483 127.125-150.431 0-32.836-25.379-93.767-52.75-134.231-53.71-66.78-24.063-141.195 27.459-168.536 2.843-1.659 68.785-38.028 88.154-48.783 1.052-0.584 1.052-0.584 2.104-1.168zM597.333 844.8c115.271 0 207.589-95.027 207.589-231.529 0-52.356-31.486-127.933-69.313-183.613-22.251-27.74-12.6-51.958 3.624-60.591 3.372-1.938 70.183-38.777 90.838-50.244 1.089-0.605 1.089-0.605 2.178-1.209 35.229-19.566 61.097-34.163 78.381-44.449 45.557-30.459 67.336-53.078 70.702-92.91v-103.455h-85.478l0.145 107.966c-0.386 4.369-9.977 14.333-33.957 30.439-14.281 8.444-39.032 22.415-74.794 42.281-19.369 10.755-85.311 47.124-88.154 48.783-51.522 27.341-81.169 101.756-27.459 168.536 27.372 40.464 52.75 101.396 52.75 134.231 0 91.948-56.801 150.431-127.125 150.431-13.911 0-27.217-2.128-39.635-6.229-25.689 22.458-56.51 37.944-90.369 44.841 35.412 29.884 80.439 46.721 130.076 46.721z" />
<glyph unicode="&#xe93a;" glyph-name="ic_person_group_outline" d="M564.943 386.992c37.826 55.679 69.313 131.257 69.313 183.613 0 136.502-92.318 231.529-207.589 231.529-117.151 0-208.621-93.788-208.621-231.529 0-53.334 31.062-129.848 66.431-182.121 24.006-30.577 14.593-53.691-1.774-63.098-40.771-21.606-137.203-74.813-170.189-95.127-48.174-32.176-69.847-55.013-69.847-92.669v-100.013c0-1.901 1.691-3.442 3.424-3.442h761.152c1.891 0 3.424 1.796 3.424 3.442v100.013c-3.366 39.832-25.146 62.452-70.702 92.91-17.284 10.286-43.151 24.883-78.381 44.449-1.089 0.605-1.089 0.605-2.178 1.209-20.655 11.466-87.467 48.306-90.838 50.244-16.224 8.632-25.875 32.851-3.624 60.591v0zM616.582 214.819c1.052-0.584 1.052-0.584 2.104-1.168 33.658-18.698 58.41-32.668 72.69-41.113 23.98-16.106 33.572-26.069 33.957-30.439l-0.145-22.633h-597.189v25.915c0 1.41 8.874 10.763 33.558 27.27 15.899 9.762 48.399 28.197 89.664 50.971 28.256 15.595 61.384 33.604 71.533 38.991 51.868 29.794 80.867 101.023 25.842 170.746-25.172 37.391-50.131 98.886-50.131 133.009 0 93.090 55.91 150.431 128.128 150.431 70.324 0 127.125-58.483 127.125-150.431 0-32.836-25.379-93.767-52.75-134.231-53.71-66.78-24.063-141.195 27.459-168.536 2.843-1.659 68.785-38.028 88.154-48.783zM467.257 798.079c35.412 29.884 80.439 46.721 130.076 46.721 115.271 0 207.589-95.027 207.589-231.529 0-52.356-31.486-127.933-69.313-183.613-22.251-27.74-12.6-51.958 3.624-60.591 3.372-1.938 70.183-38.777 90.838-50.244 1.089-0.605 1.089-0.605 2.178-1.209 35.229-19.566 61.097-34.163 78.381-44.449 45.557-30.459 67.336-53.078 70.702-92.91v-100.013c0-1.646-1.533-3.442-3.424-3.442h-167.243v60.789c-0.757 8.957-2.445 17.043-5.125 24.545h90.314l0.145 22.633c-0.386 4.369-9.977 14.333-33.957 30.439-14.281 8.444-39.032 22.415-74.794 42.281-19.369 10.755-85.311 47.124-88.154 48.783-51.522 27.341-81.169 101.756-27.459 168.536 27.372 40.464 52.75 101.396 52.75 134.231 0 91.948-56.801 150.431-127.125 150.431-13.911 0-27.217-2.128-39.635-6.229-25.689 22.458-56.51 37.944-90.369 44.841v0z" />
<glyph unicode="&#xe93b;" glyph-name="ic_person_add_black" d="M682.094 34.133h-592.169c-2.712 0-4.591 2.047-4.591 4.572v75.744c0 27.608 28.020 50.196 63.682 74.039 50.945 31.372 192.318 107.921 208.876 116.706 15.284 8.784 80.239 66.51 17.831 145.568-30.567 45.176-73.871 135.529-73.871 198.274 0 155.608 103.164 238.431 210.149 238.431 104.438 0 208.876-84.078 208.876-238.431 0-61.49-44.577-151.843-75.144-197.019-62.408-77.804 1.274-136.784 17.831-145.568 2.673-1.536 9.24-5.183 18.532-10.317v-5.998h-128v-170.667h128v-85.333zM938.094 36.345c0.365 0.659 0.573 1.452 0.573 2.36v75.744c-0.128 1.447-0.319 2.878-0.573 4.295v-82.398zM725.333 247.467h-128v-85.333h128v-128h85.333v128h128v85.333h-128v128h-85.333v-128z" />
<glyph unicode="&#xe93c;" glyph-name="ic_person_add_outline" d="M682.667 34.133h-592.742c-2.712 0-4.591 1.955-4.591 4.366v110.585c0 41.84 24.081 67.214 77.607 102.966 36.652 22.571 143.798 81.69 189.099 105.696 18.186 10.452 28.644 36.135 1.971 70.109-39.299 58.082-73.813 143.096-73.813 202.357 0 153.045 101.633 257.254 231.801 257.254 128.079 0 230.655-105.586 230.655-257.254 0-58.173-34.985-142.148-77.014-204.014-24.723-30.822-14-57.731 4.026-67.323 0.891-0.512 5.771-3.219 12.999-7.218v-61.524h-64.198c-52.552 35.101-79.3 114.76-21.448 186.672 31.29 46.244 60.301 115.881 60.301 153.407 0 105.084-64.932 171.921-145.321 171.921-82.555 0-146.468-65.533-146.468-171.921 0-38.998 28.531-109.277 57.307-152.010 62.901-79.683 29.751-161.089-29.541-195.139-11.603-6.156-49.471-26.738-81.772-44.561-47.171-26.027-84.324-47.096-102.498-58.253-28.217-18.866-38.361-29.555-38.361-31.166v-29.617h512v-85.333zM725.333 247.467h-128v-85.333h128v-128h85.333v128h128v85.333h-128v128h-85.333v-128z" />
<glyph unicode="&#xe93d;" glyph-name="ic_person_black" d="M663.562 306.448c-16.557 8.784-80.239 67.765-17.831 145.568 30.567 45.176 75.144 135.529 75.144 197.019 0 154.353-104.438 238.431-208.876 238.431-106.985 0-210.149-82.823-210.149-238.431 0-62.745 43.303-153.098 73.871-198.274 62.408-79.059-2.547-136.784-17.831-145.568-16.557-8.784-157.93-85.333-208.876-116.706-35.662-23.843-63.682-46.431-63.682-74.039v-75.744c0-2.525 1.879-4.572 4.591-4.572h844.151c2.536 0 4.591 1.715 4.591 4.572v75.744c-2.547 28.863-30.567 51.451-66.229 75.294-50.945 30.118-193.592 107.921-208.876 116.706z" />
<glyph unicode="&#xe93e;" glyph-name="ic_personb_outline" d="M665.641 426.198c42.029 61.866 77.014 145.841 77.014 204.014 0 151.669-102.575 257.254-230.655 257.254-130.168 0-231.801-104.209-231.801-257.254 0-59.261 34.513-144.275 73.813-202.357 26.673-33.975 16.214-59.657-1.971-70.109-45.301-24.007-152.447-83.126-189.099-105.696-53.526-35.751-77.607-61.126-77.607-102.966v-110.585c0-2.411 1.879-4.366 4.591-4.366h844.151c2.536 0 4.591 1.995 4.591 4.366v110.585c-3.74 44.258-27.94 69.391-78.558 103.234-19.204 11.429-47.946 27.648-87.090 49.388-1.21 0.672-1.21 0.672-2.42 1.344-22.95 12.74-97.185 53.673-100.931 55.826-18.026 9.591-28.75 36.501-4.026 67.323zM729.182 228.441c1.203-0.668 1.203-0.668 2.405-1.335 38.476-21.369 66.77-37.335 83.095-46.986 27.413-18.407 38.377-29.794 38.818-34.787l-0.165-111.2h-682.667v114.951c0 1.611 10.144 12.3 38.361 31.166 18.174 11.157 55.327 32.226 102.498 58.253 32.301 17.822 70.17 38.405 81.772 44.561 59.292 34.050 92.442 115.455 29.541 195.139-28.775 42.733-57.307 113.012-57.307 152.010 0 106.388 63.913 171.921 146.468 171.921 80.39 0 145.321-66.837 145.321-171.921 0-37.526-29.011-107.163-60.301-153.407-61.398-76.32-27.507-161.365 31.389-192.612 3.25-1.896 78.63-43.46 100.772-55.752z" />
<glyph unicode="&#xe93f;" glyph-name="ic_person_outline" d="M665.641 426.198c42.029 61.866 77.014 145.841 77.014 204.014 0 151.669-102.575 257.254-230.655 257.254-130.168 0-231.801-104.209-231.801-257.254 0-59.261 34.513-144.275 73.813-202.357 26.673-33.975 16.214-59.657-1.971-70.109-45.301-24.007-152.447-83.126-189.099-105.696-53.526-35.751-77.607-61.126-77.607-102.966v-110.585c0-2.411 1.879-4.366 4.591-4.366h844.151c2.536 0 4.591 1.995 4.591 4.366v110.585c-3.74 44.258-27.94 69.391-78.558 103.234-19.204 11.429-47.946 27.648-87.090 49.388-1.21 0.672-1.21 0.672-2.42 1.344-22.95 12.74-97.185 53.673-100.931 55.826-18.026 9.591-28.75 36.501-4.026 67.323zM729.182 228.441c1.203-0.668 1.203-0.668 2.405-1.335 38.476-21.369 66.77-37.335 83.095-46.986 27.413-18.407 38.377-29.794 38.818-34.787l-0.165-25.866h-682.667v29.617c0 1.611 10.144 12.3 38.361 31.166 18.174 11.157 55.327 32.226 102.498 58.253 32.301 17.822 70.17 38.405 81.772 44.561 59.292 34.050 92.442 115.455 29.541 195.139-28.775 42.733-57.307 113.012-57.307 152.010 0 106.388 63.913 171.921 146.468 171.921 80.39 0 145.321-66.837 145.321-171.921 0-37.526-29.011-107.163-60.301-153.407-61.398-76.32-27.507-161.365 31.389-192.612 3.25-1.896 78.63-43.46 100.772-55.752z" />
<glyph unicode="&#xe940;" glyph-name="ic_alert_error_black" d="M938.667 455.533c0 240.914-191.020 431.934-431.934 431.934-230.379 0-421.399-191.020-421.399-431.934 0-230.379 191.020-421.399 421.399-421.399 240.914 0 431.934 191.020 431.934 421.399zM469.333 332.8h85.333v-76.839c0-4.691-3.667-8.494-8.494-8.494h-68.345c-4.691 0-8.494 3.667-8.494 8.494v76.839zM469.333 665.616c0 4.704 3.667 8.518 8.494 8.518h68.345c4.691 0 8.494-3.619 8.494-8.518v-247.482h-85.333v247.482z" />
<glyph unicode="&#xe941;" glyph-name="ic_alert_error_outline" d="M938.667 455.533c0-230.379-191.020-421.399-431.934-421.399-230.379 0-421.399 191.020-421.399 421.399 0 240.914 191.020 431.934 421.399 431.934 240.914 0 431.934-191.020 431.934-431.934zM512 119.467c188.513 0 341.333 152.82 341.333 341.333s-152.82 341.333-341.333 341.333c-188.513 0-341.333-152.82-341.333-341.333s152.82-341.333 341.333-341.333zM469.333 332.8h85.333v-76.839c0-4.691-3.667-8.494-8.494-8.494h-68.345c-4.691 0-8.494 3.667-8.494 8.494v76.839zM469.333 665.616c0 4.704 3.667 8.518 8.494 8.518h68.345c4.691 0 8.494-3.619 8.494-8.518v-247.482h-85.333v247.482z" />
<glyph unicode="&#xe942;" glyph-name="ic_alert_help_black" d="M938.667 455.533c0-230.379-191.020-421.399-431.934-421.399-230.379 0-421.399 191.020-421.399 421.399 0 240.914 191.020 431.934 421.399 431.934 240.914 0 431.934-191.020 431.934-431.934zM469.333 204.8h85.333v85.333h-85.333v-85.333zM512 716.8c-94.293 0-170.667-76.373-170.667-170.667h85.333c0 46.933 38.4 85.333 85.333 85.333s85.333-38.4 85.333-85.333c0-85.333-128-74.667-128-213.333h85.333c0 96 128 106.667 128 213.333 0 94.293-76.373 170.667-170.667 170.667z" />
<glyph unicode="&#xe943;" glyph-name="ic_alert_help_outline" d="M938.667 455.533c0-230.379-191.020-421.399-431.934-421.399-230.379 0-421.399 191.020-421.399 421.399 0 240.914 191.020 431.934 421.399 431.934 240.914 0 431.934-191.020 431.934-431.934zM512 119.467c188.513 0 341.333 152.82 341.333 341.333s-152.82 341.333-341.333 341.333c-188.513 0-341.333-152.82-341.333-341.333s152.82-341.333 341.333-341.333zM469.333 204.8h85.333v85.333h-85.333v-85.333zM512 716.8c-94.293 0-170.667-76.373-170.667-170.667h85.333c0 46.933 38.4 85.333 85.333 85.333s85.333-38.4 85.333-85.333c0-85.333-128-74.667-128-213.333h85.333c0 96 128 106.667 128 213.333 0 94.293-76.373 170.667-170.667 170.667v0z" />
<glyph unicode="&#xe944;" glyph-name="ic_alert_highlightoff_black" d="M512 521.14l114.378 114.378c3.693 3.693 8.99 3.612 12.308 0.295l48.327-48.327c3.413-3.413 3.185-8.827-0.295-12.308l-114.378-114.378 114.378-114.378c3.48-3.48 3.709-8.894 0.295-12.308l-48.327-48.327c-3.317-3.317-8.614-3.398-12.308 0.295l-114.378 114.378-114.378-114.378c-3.693-3.693-8.99-3.612-12.308-0.295l-48.327 48.327c-3.413 3.413-3.185 8.827 0.295 12.308l114.378 114.378-114.378 114.378c-3.48 3.48-3.709 8.894-0.295 12.308l48.327 48.327c3.317 3.317 8.614 3.398 12.308-0.295l114.378-114.378zM938.667 455.533c0 240.914-191.020 431.934-431.934 431.934-230.379 0-421.399-191.020-421.399-431.934 0-230.379 191.020-421.399 421.399-421.399 240.914 0 431.934 191.020 431.934 421.399z" />
<glyph unicode="&#xe945;" glyph-name="ic_alert_highlightoff_outline" d="M938.667 455.533c0-230.379-191.020-421.399-431.934-421.399-230.379 0-421.399 191.020-421.399 421.399 0 240.914 191.020 431.934 421.399 431.934 240.914 0 431.934-191.020 431.934-431.934zM512 119.467c188.513 0 341.333 152.82 341.333 341.333s-152.82 341.333-341.333 341.333c-188.513 0-341.333-152.82-341.333-341.333s152.82-341.333 341.333-341.333zM512 521.14l-114.378 114.378c-3.693 3.693-8.99 3.612-12.308 0.295l-48.327-48.327c-3.413-3.413-3.185-8.827 0.295-12.308l114.378-114.378-114.378-114.378c-3.48-3.48-3.709-8.894-0.295-12.308l48.327-48.327c3.317-3.317 8.614-3.398 12.308 0.295l114.378 114.378 114.378-114.378c3.693-3.693 8.99-3.612 12.308-0.295l48.327 48.327c3.413 3.413 3.185 8.827-0.295 12.308l-114.378 114.378 114.378 114.378c3.48 3.48 3.709 8.894 0.295 12.308l-48.327 48.327c-3.317 3.317-8.614 3.398-12.308-0.295l-114.378-114.378z" />
<glyph unicode="&#xe946;" glyph-name="ic_alert_info_black" d="M938.667 455.533c0-230.379-191.020-421.399-431.934-421.399-230.379 0-421.399 191.020-421.399 421.399 0 240.914 191.020 431.934 421.399 431.934 240.914 0 431.934-191.020 431.934-431.934zM469.333 588.8h85.333v76.839c0 4.691-3.667 8.494-8.494 8.494h-68.345c-4.691 0-8.494-3.667-8.494-8.494v-76.839zM469.333 255.984c0-4.704 3.667-8.518 8.494-8.518h68.345c4.691 0 8.494 3.619 8.494 8.518v247.482h-85.333v-247.482z" />
<glyph unicode="&#xe947;" glyph-name="ic_alert_info_outline" d="M938.667 455.533c0-230.379-191.020-421.399-431.934-421.399-230.379 0-421.399 191.020-421.399 421.399 0 240.914 191.020 431.934 421.399 431.934 240.914 0 431.934-191.020 431.934-431.934zM512 119.467c188.513 0 341.333 152.82 341.333 341.333s-152.82 341.333-341.333 341.333c-188.513 0-341.333-152.82-341.333-341.333s152.82-341.333 341.333-341.333zM469.333 588.8h85.333v76.839c0 4.691-3.667 8.494-8.494 8.494h-68.345c-4.691 0-8.494-3.667-8.494-8.494v-76.839zM469.333 255.984c0-4.704 3.667-8.518 8.494-8.518h68.345c4.691 0 8.494 3.619 8.494 8.518v247.482h-85.333v-247.482z" />
<glyph unicode="&#xe948;" glyph-name="ic_alert_warning_black" d="M507.355 837.199l-460.043-752.798c-2.553-4.177-1.012-7.601 3.47-7.601h922.437c3.93 0 6.035 3.403 3.47 7.601l-460.043 752.798c-2.553 4.177-6.725 4.198-9.29 0zM469.333 290.133h85.333v-76.839c0-4.691-3.667-8.494-8.494-8.494h-68.345c-4.691 0-8.494 3.667-8.494 8.494v76.839zM469.333 537.506c0 4.765 3.667 8.627 8.494 8.627h68.345c4.691 0 8.494-3.703 8.494-8.627v-204.706h-85.333v204.706z" />
<glyph unicode="&#xe949;" glyph-name="ic_alert_warning_outline" d="M507.355 837.199l-460.043-752.798c-2.553-4.177-1.012-7.601 3.47-7.601h922.437c3.93 0 6.035 3.403 3.47 7.601l-460.043 752.798c-2.553 4.177-6.725 4.198-9.29 0zM512 682.667l320-520.533h-640l320 520.533zM469.333 290.133h85.333v-76.839c0-4.691-3.667-8.494-8.494-8.494h-68.345c-4.691 0-8.494 3.667-8.494 8.494v76.839zM469.333 537.506c0 4.765 3.667 8.627 8.494 8.627h68.345c4.691 0 8.494-3.703 8.494-8.627v-204.706h-85.333v204.706z" />
<glyph unicode="&#xe94a;" glyph-name="ic_checkcircle_black" d="M938.667 455.533c0-230.379-191.020-421.399-431.934-421.399-230.379 0-421.399 191.020-421.399 421.399 0 240.914 191.020 431.934 421.399 431.934 240.914 0 431.934-191.020 431.934-431.934zM463.326 278.468c3.318-3.318 8.481-3.533 11.984-0.030l274.216 274.216c3.301 3.301 3.384 8.57-0.029 11.983l-48.327 48.327c-3.317 3.317-8.541 3.468-12.042-0.039l-219.631-219.949-92.157 92.157c-3.223 3.223-8.429 3.244-11.843-0.17l-48.327-48.327c-3.317-3.317-3.261-8.752 0.001-12.014l146.155-146.155z" />
<glyph unicode="&#xe94b;" glyph-name="ic_checkcircle_outline" d="M938.667 455.533c0-230.379-191.020-421.399-431.934-421.399-230.379 0-421.399 191.020-421.399 421.399 0 240.914 191.020 431.934 421.399 431.934 240.914 0 431.934-191.020 431.934-431.934zM512 119.467c188.513 0 341.333 152.82 341.333 341.333s-152.82 341.333-341.333 341.333c-188.513 0-341.333-152.82-341.333-341.333s152.82-341.333 341.333-341.333zM463.326 278.468c3.318-3.318 8.481-3.533 11.984-0.030l274.216 274.216c3.301 3.301 3.384 8.57-0.029 11.983l-48.327 48.327c-3.317 3.317-8.541 3.468-12.042-0.039l-219.631-219.949-92.157 92.157c-3.223 3.223-8.429 3.244-11.843-0.17l-48.327-48.327c-3.317-3.317-3.261-8.752 0.001-12.014l146.155-146.155z" />
<glyph unicode="&#xe94c;" glyph-name="ic_removecircle_black" d="M938.667 455.533c0 240.914-191.020 431.934-431.934 431.934-230.379 0-421.399-191.020-421.399-431.934 0-230.379 191.020-421.399 421.399-421.399 240.914 0 431.934 191.020 431.934 421.399zM298.667 494.973c0 4.691 3.689 8.494 8.912 8.494h408.844c4.922 0 8.912-3.667 8.912-8.494v-68.345c0-4.691-3.689-8.494-8.912-8.494h-408.844c-4.922 0-8.912 3.667-8.912 8.494v68.345z" />
<glyph unicode="&#xe94d;" glyph-name="ic_removecircle_outline" d="M938.667 455.533c0-230.379-191.020-421.399-431.934-421.399-230.379 0-421.399 191.020-421.399 421.399 0 240.914 191.020 431.934 421.399 431.934 240.914 0 431.934-191.020 431.934-431.934zM512 119.467c188.513 0 341.333 152.82 341.333 341.333s-152.82 341.333-341.333 341.333c-188.513 0-341.333-152.82-341.333-341.333s152.82-341.333 341.333-341.333zM307.2 503.467h409.6c4.713 0 8.533-3.821 8.533-8.533v-68.267c0-4.713-3.821-8.533-8.533-8.533h-409.6c-4.713 0-8.533 3.821-8.533 8.533v68.267c0 4.713 3.821 8.533 8.533 8.533z" />
<glyph unicode="&#xe94e;" glyph-name="ic_emoticon_black" d="M938.667 455.533c0 240.914-191.020 431.934-431.934 431.934-230.379 0-421.399-191.020-421.399-431.934 0-230.379 191.020-421.399 421.399-421.399 240.914 0 431.934 191.020 431.934 421.399zM677.29 375.467c-18.946-73.61-85.766-128-165.29-128s-146.344 54.39-165.29 128h330.58zM298.667 567.467c0 35.346 28.407 64 64 64 35.346 0 64-28.407 64-64 0-35.346-28.407-64-64-64-35.346 0-64 28.407-64 64zM597.333 567.467c0 35.346 28.407 64 64 64 35.346 0 64-28.407 64-64 0-35.346-28.407-64-64-64-35.346 0-64 28.407-64 64z" />
<glyph unicode="&#xe94f;" glyph-name="ic_emoticon_outline" d="M938.667 455.533c0-230.379-191.020-421.399-431.934-421.399-230.379 0-421.399 191.020-421.399 421.399 0 240.914 191.020 431.934 421.399 431.934 240.914 0 431.934-191.020 431.934-431.934zM512 119.467c188.513 0 341.333 152.82 341.333 341.333s-152.82 341.333-341.333 341.333c-188.513 0-341.333-152.82-341.333-341.333s152.82-341.333 341.333-341.333zM677.29 375.467c-18.946-73.61-85.766-128-165.29-128s-146.344 54.39-165.29 128h330.58zM298.667 567.467c0 35.346 28.407 64 64 64 35.346 0 64-28.407 64-64 0-35.346-28.407-64-64-64-35.346 0-64 28.407-64 64zM597.333 567.467c0 35.346 28.407 64 64 64 35.346 0 64-28.407 64-64 0-35.346-28.407-64-64-64-35.346 0-64 28.407-64 64z" />
<glyph unicode="&#xe950;" glyph-name="ic_bookmarkline_black" d="M170.667 845.15v-802.571c0-4.641 3.479-6.706 7.771-4.56l333.563 166.781 333.563-166.781c4.392-2.196 7.771-0.104 7.771 4.56v802.571c0 22.891-19.119 42.317-42.704 42.317h-597.259c-23.733 0-42.704-18.946-42.704-42.317zM170.667 716.8h682.667v-85.333h-682.667v85.333z" />
<glyph unicode="&#xe951;" glyph-name="ic_bookmarkline_outline" d="M170.667 845.15v-802.571c0-4.641 3.479-6.706 7.771-4.56l333.563 166.781 333.563-166.781c4.392-2.196 7.771-0.104 7.771 4.56v802.571c0 22.891-19.119 42.317-42.704 42.317h-597.259c-23.733 0-42.704-18.946-42.704-42.317zM256 802.133h512v-629.333l-256 128-256-128v629.333zM170.667 716.8h682.667v-85.333h-682.667v85.333z" />
<glyph unicode="&#xe952;" glyph-name="ic_bookmark_black" d="M170.667 845.15c0 23.371 18.971 42.317 42.704 42.317h597.259c23.585 0 42.704-19.426 42.704-42.317v-802.571c0-4.664-3.378-6.757-7.771-4.56l-333.563 166.781-333.563-166.781c-4.292-2.146-7.771-0.081-7.771 4.56v802.571z" />
<glyph unicode="&#xe953;" glyph-name="ic_bookmark_outline" d="M170.667 845.15v-802.571c0-4.641 3.479-6.706 7.771-4.56l333.563 166.781 333.563-166.781c4.392-2.196 7.771-0.104 7.771 4.56v802.571c0 22.891-19.119 42.317-42.704 42.317h-597.259c-23.733 0-42.704-18.946-42.704-42.317zM256 802.133h512v-629.333l-256 128-256-128v629.333z" />
<glyph unicode="&#xe954;" glyph-name="ic_label_black" d="M85.333 716.508c0 23.725 19.154 42.959 42.986 42.959h588.451c4.729 0 10.959-3.355 13.42-6.801l203.62-285.128c2.682-3.756 2.461-10.154 0-13.598l-203.62-285.009c-2.682-3.754-8.944-6.798-13.42-6.798h-588.451c-23.741 0-42.986 19.198-42.986 42.959v511.416z" />
<glyph unicode="&#xe955;" glyph-name="ic_label_outline" d="M85.333 716.508v-511.416c0-23.761 19.245-42.959 42.986-42.959h588.451c4.476 0 10.738 3.043 13.42 6.798l203.62 285.009c2.461 3.444 2.682 9.843 0 13.598l-203.62 285.128c-2.461 3.446-8.691 6.801-13.42 6.801h-588.451c-23.832 0-42.986-19.233-42.986-42.959zM170.667 674.133h505.6l164.267-213.333-164.267-213.333h-505.6v426.667z" />
<glyph unicode="&#xe956;" glyph-name="ic_cart_black" d="M256 290.133v42.667h522.484c11.773 0 23.536 8.912 26.44 20.579l95.961 385.509c2.829 11.365-4.066 20.579-16.504 20.579h-628.38v106.863c0 11.673-9.176 21.137-20.927 21.137h-141.508c-4.546 0-8.232-3.667-8.232-8.494v-68.345c0-4.691 3.667-8.494 8.494-8.494h76.839v-576.074c0-11.741 9.171-21.259 20.926-21.259h696.262c4.499 0 8.146 3.667 8.146 8.494v68.345c0 4.691-4.087 8.494-8.563 8.494h-631.437zM341.333 98.133c0-35.346-28.654-64-64-64s-64 28.654-64 64c0 35.346 28.654 64 64 64s64-28.654 64-64zM853.333 98.133c0-35.346-28.654-64-64-64s-64 28.654-64 64c0 35.346 28.654 64 64 64s64-28.654 64-64z" />
<glyph unicode="&#xe957;" glyph-name="ic_cart_outline" d="M256 290.133v42.667h522.484c11.773 0 23.536 8.912 26.44 20.579l95.961 385.509c2.829 11.365-4.066 20.579-16.504 20.579h-628.38v106.863c0 11.673-9.176 21.137-20.927 21.137h-141.508c-4.546 0-8.232-3.667-8.232-8.494v-68.345c0-4.691 3.667-8.494 8.494-8.494h76.839v-576.074c0-11.741 9.171-21.259 20.926-21.259h696.262c4.499 0 8.146 3.667 8.146 8.494v68.345c0 4.691-4.087 8.494-8.563 8.494h-631.437zM733.867 418.133h-477.867v256h546.133l-68.267-256zM341.333 98.133c0-35.346-28.654-64-64-64s-64 28.654-64 64c0 35.346 28.654 64 64 64s64-28.654 64-64zM853.333 98.133c0-35.346-28.654-64-64-64s-64 28.654-64 64c0 35.346 28.654 64 64 64s64-28.654 64-64z" />
<glyph unicode="&#xe958;" glyph-name="ic_eyeoff_black" d="M611.079 134.097c-31.662-9.283-64.784-14.63-99.079-14.63-259.735 0-451.778 306.090-451.778 306.090-13.983 19.69-13.684 50.737-0.463 69.85 0 0 83.12 132.437 213.816 223.263l-73.468 127.25 73.901 42.667 469.333-812.909-73.901-42.667-58.361 101.085zM372.246 547.768c-15.113-25.469-23.79-55.205-23.79-86.968 0-94.257 76.41-170.667 170.667-170.667 0.622 0 1.243 0.003 1.863 0.010l-148.74 257.625zM762.723 211.697c123.59 90.331 201.518 214.496 201.518 214.496 13.221 19.113 13.52 50.161-0.463 69.85 0 0-192.044 306.090-451.778 306.090-28.914 0-56.995-3.801-84.070-10.557l92.442-160.114c93.681-0.672 169.417-76.822 169.417-170.662 0-30.651-8.080-59.416-22.227-84.279l95.162-164.825z" />
<glyph unicode="&#xe959;" glyph-name="ic_eye_black" d="M512 119.467c-259.735 0-451.778 306.090-451.778 306.090-13.983 19.69-13.684 50.737-0.463 69.85 0 0 192.507 306.726 452.241 306.726s451.778-306.090 451.778-306.090c13.983-19.69 13.684-50.737 0.463-69.85 0 0-192.507-306.726-452.241-306.726zM519.122 290.133c94.257 0 170.667 76.41 170.667 170.667s-76.41 170.667-170.667 170.667c-94.257 0-170.667-76.41-170.667-170.667s76.41-170.667 170.667-170.667z" />
<glyph unicode="&#xe95a;" glyph-name="ic_eye_outline" d="M782.29 385.412c33.339 32.275 74.948 99.916 74.948 99.916 6.388 10.018 6.439 26.267 0 36.277 0 0-41.61 67.641-74.948 99.916-90.178 87.299-183.102 137.946-270.29 137.946s-180.112-50.646-270.29-137.946c-33.339-32.275-85.321-101.231-85.321-101.231-7.135-9.291-7.192-24.324 0-33.646 0 0 51.982-68.957 85.321-101.231 90.178-87.299 183.102-137.946 270.29-137.946s180.112 50.646 270.29 137.946zM66.325 468.224c-13.089 19.464-13.287 51.248 0 70.486 0 0 185.941 306.090 445.675 306.090s445.602-306.090 445.602-306.090c13.084-19.464 13.282-51.248 0-70.486 0 0-185.867-306.090-445.602-306.090s-445.675 306.090-445.675 306.090zM512 332.8c-94.257 0-170.667 76.41-170.667 170.667s76.41 170.667 170.667 170.667c94.257 0 170.667-76.41 170.667-170.667s-76.41-170.667-170.667-170.667zM512 418.133c47.128 0 85.333 38.205 85.333 85.333s-38.205 85.333-85.333 85.333c-47.128 0-85.333-38.205-85.333-85.333s38.205-85.333 85.333-85.333z" />
<glyph unicode="&#xe95b;" glyph-name="ic_favorite_black" d="M450.133 132.046c-219.733 195.453-364.8 324.36-364.8 482.563 0 128.907 103.253 230.191 234.667 230.191 74.24 0 145.493-33.901 192-87.472 46.507 53.572 117.76 87.472 192 87.472 131.413 0 234.667-101.284 234.667-230.191 0-158.204-145.067-287.111-364.8-482.982l-55.246-48.96c-3.657-3.241-9.279-3.494-13.242 0.045l-55.246 49.334z" />
<glyph unicode="&#xe95c;" glyph-name="ic_favorite_outline" d="M512 187.948l-27.458 24.263c-185.595 160.103-244.364 217.597-284.48 288.313-19.848 34.988-29.396 67.839-29.396 101.462 0 89.073 73.528 159.022 168.533 159.022 53.484 0 106.289-23.611 140.753-62.112l32.047-33.296 32.047 33.296c34.464 38.501 87.27 62.112 140.753 62.112 95.005 0 168.533-69.949 168.533-159.022 0-33.479-9.466-66.19-29.139-101.019-39.996-70.808-98.363-128.002-284.708-289.097l-27.486-23.922zM505.372 82.447c3.601-3.119 9.124-3.41 13.063-0.024l77.346 66.476c195.431 168.949 256.186 228.484 303.036 311.426 26.395 46.728 39.849 93.224 39.849 141.662 0 135.955-110.933 242.814-256 242.814-55.467 0-122.453-22.205-170.693-60.376-48.075 38.233-110.907 60.376-170.64 60.376-145.067 0-256-106.859-256-242.814 0-48.642 13.567-95.322 40.181-142.237 46.968-82.796 108.173-142.673 302.646-310.434l77.212-66.868z" />
<glyph unicode="&#xe95d;" glyph-name="ic_star_black" d="M512.020 233.942l-233.728-121.742c-9.527-4.963-15.764-0.395-13.956 10.046l44.638 257.855-189.090 182.614c-7.708 7.444-5.861 14.644 5.331 16.255l261.315 37.62 116.864 234.604c4.764 9.563 12.519 9.5 17.251 0l116.864-234.604 261.315-37.62c10.652-1.534 12.988-8.86 5.331-16.255l-189.090-182.614 44.638-257.855c1.82-10.511-4.492-14.976-13.956-10.046l-233.728 121.742z" />
<glyph unicode="&#xe95e;" glyph-name="ic_star_outline" d="M512.020 330.157l137.396-71.095-26.143 151.019 110.86 106.383-153.060 22.035-69.14 138.45-68.966-138.45-151.79-22.582 109.59-105.837-26.246-151.613 137.499 71.688zM512.020 233.942l-233.728-121.742c-9.527-4.963-15.764-0.395-13.956 10.046l44.638 257.855-189.090 182.614c-7.708 7.444-5.861 14.644 5.331 16.255l261.315 37.62 116.864 234.604c4.764 9.563 12.519 9.5 17.251 0l116.864-234.604 261.315-37.62c10.652-1.534 12.988-8.86 5.331-16.255l-189.090-182.614 44.638-257.855c1.82-10.511-4.492-14.976-13.956-10.046l-233.728 121.742z" />
<glyph unicode="&#xe95f;" glyph-name="ic_replay_black" d="M469.333 823.85c0 11.57-6.665 14.285-15.053 5.896l-353.893-353.893c-8.314-8.314-8.388-21.718 0-30.107l353.893-353.893c8.314-8.314 15.053-5.33 15.053 5.896v235.050c192.198-13.575 297.89-58.219 397.963-167.382 23.689-25.84 45.264-54.884 45.264-54.884 14.418-18.631 23.373-14.81 19.857 8.651 0 0-3.659 28-10.262 60.912-44.636 222.491-147.291 372.829-452.822 408.703v235.050z" />
<glyph unicode="&#xe960;" glyph-name="ic_replay_outline" d="M466.028 823.85c0 11.57-6.665 14.285-15.053 5.896l-353.893-353.893c-8.314-8.314-8.388-21.718 0-30.107l353.893-353.893c8.314-8.314 15.053-5.33 15.053 5.896v235.050c192.198-13.575 297.89-58.219 397.963-167.382 23.689-25.84 45.264-54.884 45.264-54.884 14.418-18.631 23.373-14.81 19.857 8.651 0 0-3.659 28-10.262 60.912-44.636 222.491-147.291 372.829-452.822 408.703v235.050zM380.695 512c0 0 291.198-4.546 388.122-165.010-136.286 72.057-388.122 79.677-388.122 79.677v-145.067l-178.602 179.2 178.602 179.2v-128z" />
<glyph unicode="&#xe961;" glyph-name="ic_sent_black" d="M554.667 823.85c0 11.57 6.665 14.285 15.053 5.896l353.893-353.893c8.314-8.314 8.388-21.718 0-30.107l-353.893-353.893c-8.314-8.314-15.053-5.33-15.053 5.896v235.050c-192.198-13.575-297.89-58.219-397.963-167.382-23.689-25.84-45.264-54.884-45.264-54.884-14.418-18.631-23.373-14.81-19.857 8.651 0 0 3.659 28 10.262 60.912 44.636 222.491 147.291 372.829 452.822 408.703v235.050z" />
<glyph unicode="&#xe962;" glyph-name="ic_sent_outline" d="M554.667 823.85c0 11.57 6.665 14.285 15.053 5.896l353.893-353.893c8.314-8.314 8.388-21.718 0-30.107l-353.893-353.893c-8.314-8.314-15.053-5.33-15.053 5.896v235.050c-192.198-13.575-297.89-58.219-397.963-167.382-23.689-25.84-45.264-54.884-45.264-54.884-14.418-18.631-23.373-14.81-19.857 8.651 0 0 3.659 28 10.262 60.912 44.636 222.491 147.291 372.829 452.822 408.703v235.050zM640 512c0 0-291.198-4.546-388.122-165.010 136.286 72.057 388.122 79.677 388.122 79.677v-145.067l178.602 179.2-178.602 179.2v-128z" />
<glyph unicode="&#xe963;" glyph-name="ic_announcement_black" d="M469.333 204.8h447.947c11.583 0 21.386 9.482 21.386 21.179v640.308c0 11.529-9.444 21.179-21.094 21.179h-811.146c-11.51 0-21.094-9.482-21.094-21.179v-640.308c0-11.529 9.463-21.179 21.137-21.179h106.863l0.482-145.826c0-23.785 16.014-32.39 35.596-19.336l219.922 165.161zM469.333 750.949c0 4.704 3.667 8.518 8.494 8.518h68.345c4.691 0 8.494-3.619 8.494-8.518v-247.482h-85.333v247.482zM469.333 418.133h85.333v-76.839c0-4.691-3.667-8.494-8.494-8.494h-68.345c-4.691 0-8.494 3.667-8.494 8.494v76.839z" />
<glyph unicode="&#xe964;" glyph-name="ic_announcement_outline" d="M469.333 204.8l-219.922-165.161c-19.582-13.055-35.596-4.449-35.596 19.336l-0.482 145.826h-106.863c-11.673 0-21.137 9.65-21.137 21.179v640.308c0 11.697 9.583 21.179 21.094 21.179h811.146c11.65 0 21.094-9.65 21.094-21.179v-640.308c0-11.697-9.803-21.179-21.386-21.179h-447.947zM426.667 290.133h426.667v512h-682.667v-512h128v-106.667l128 106.667zM469.333 460.8h85.333v-76.839c0-4.691-3.667-8.494-8.494-8.494h-68.345c-4.691 0-8.494 3.667-8.494 8.494v76.839zM469.333 708.173c0 4.765 3.667 8.627 8.494 8.627h68.345c4.691 0 8.494-3.703 8.494-8.627v-204.706h-85.333v204.706z" />
<glyph unicode="&#xe965;" glyph-name="ic_commentchat_black" d="M469.333 204.8l-219.922-165.161c-19.582-13.055-35.596-4.449-35.596 19.336l-0.482 145.826h-106.863c-11.673 0-21.137 9.65-21.137 21.179v640.308c0 11.697 9.583 21.179 21.094 21.179h811.146c11.65 0 21.094-9.65 21.094-21.179v-640.308c0-11.697-9.803-21.179-21.386-21.179h-447.947z" />
<glyph unicode="&#xe966;" glyph-name="ic_commentchat_outline" d="M469.333 204.8l-219.922-165.161c-19.582-13.055-35.596-4.449-35.596 19.336l-0.482 145.826h-106.863c-11.673 0-21.137 9.65-21.137 21.179v640.308c0 11.697 9.583 21.179 21.094 21.179h811.146c11.65 0 21.094-9.65 21.094-21.179v-640.308c0-11.697-9.803-21.179-21.386-21.179h-447.947zM426.667 290.133h426.667v512h-682.667v-512h128v-106.667l128 106.667z" />
<glyph unicode="&#xe967;" glyph-name="ic_comment_black" d="M469.333 204.8h447.947c11.583 0 21.386 9.482 21.386 21.179v640.308c0 11.529-9.444 21.179-21.094 21.179h-811.146c-11.51 0-21.094-9.482-21.094-21.179v-640.308c0-11.529 9.463-21.179 21.137-21.179h106.863l0.482-145.826c0-23.785 16.014-32.39 35.596-19.336l219.922 165.161zM256 665.639c0 4.691 3.827 8.494 8.887 8.494h494.227c4.908 0 8.887-3.667 8.887-8.494v-68.345c0-4.691-3.827-8.494-8.887-8.494h-494.227c-4.908 0-8.887 3.667-8.887 8.494v68.345zM256 494.973c0 4.691 3.619 8.494 8.518 8.494h238.965c4.704 0 8.518-3.667 8.518-8.494v-68.345c0-4.691-3.619-8.494-8.518-8.494h-238.965c-4.704 0-8.518 3.667-8.518 8.494v68.345z" />
<glyph unicode="&#xe968;" glyph-name="ic_comment_outline" d="M469.333 204.8l-219.922-165.161c-19.582-13.055-35.596-4.449-35.596 19.336l-0.482 145.826h-106.863c-11.673 0-21.137 9.65-21.137 21.179v640.308c0 11.697 9.583 21.179 21.094 21.179h811.146c11.65 0 21.094-9.65 21.094-21.179v-640.308c0-11.697-9.803-21.179-21.386-21.179h-447.947zM426.667 290.133h426.667v512h-682.667v-512h128v-106.667l128 106.667zM256 665.639c0 4.691 3.827 8.494 8.887 8.494h494.227c4.908 0 8.887-3.667 8.887-8.494v-68.345c0-4.691-3.827-8.494-8.887-8.494h-494.227c-4.908 0-8.887 3.667-8.887 8.494v68.345zM256 494.973c0 4.691 3.619 8.494 8.518 8.494h238.965c4.704 0 8.518-3.667 8.518-8.494v-68.345c0-4.691-3.619-8.494-8.518-8.494h-238.965c-4.704 0-8.518 3.667-8.518 8.494v68.345z" />
<glyph unicode="&#xe969;" glyph-name="ic_comment_dot_black" d="M469.333 204.8h447.947c11.583 0 21.386 9.482 21.386 21.179v640.308c0 11.529-9.444 21.179-21.094 21.179h-811.146c-11.51 0-21.094-9.482-21.094-21.179v-640.308c0-11.529 9.463-21.179 21.137-21.179h106.863l0.482-145.826c0-23.785 16.014-32.39 35.596-19.336l219.922 165.161zM298.667 567.267c0 11.892 9.132 21.533 21.533 21.533h42.267c11.892 0 21.533-9.132 21.533-21.533v-42.267c0-11.892-9.132-21.533-21.533-21.533h-42.267c-11.892 0-21.533 9.132-21.533 21.533v42.267zM469.333 567.267c0 11.892 9.132 21.533 21.533 21.533h42.267c11.892 0 21.533-9.132 21.533-21.533v-42.267c0-11.892-9.132-21.533-21.533-21.533h-42.267c-11.892 0-21.533 9.132-21.533 21.533v42.267zM640 567.267c0 11.892 9.132 21.533 21.533 21.533h42.267c11.892 0 21.533-9.132 21.533-21.533v-42.267c0-11.892-9.132-21.533-21.533-21.533h-42.267c-11.892 0-21.533 9.132-21.533 21.533v42.267z" />
<glyph unicode="&#xe96a;" glyph-name="ic_comment_dot_outline" d="M469.333 204.8l-219.922-165.161c-19.582-13.055-35.596-4.449-35.596 19.336l-0.482 145.826h-106.863c-11.673 0-21.137 9.65-21.137 21.179v640.308c0 11.697 9.583 21.179 21.094 21.179h811.146c11.65 0 21.094-9.65 21.094-21.179v-640.308c0-11.697-9.803-21.179-21.386-21.179h-447.947zM426.667 290.133h426.667v512h-682.667v-512h128v-106.667l128 106.667zM640 567.267c0 11.892 9.132 21.533 21.533 21.533h42.267c11.892 0 21.533-9.132 21.533-21.533v-42.267c0-11.892-9.132-21.533-21.533-21.533h-42.267c-11.892 0-21.533 9.132-21.533 21.533v42.267zM469.333 567.267c0 11.892 9.132 21.533 21.533 21.533h42.267c11.892 0 21.533-9.132 21.533-21.533v-42.267c0-11.892-9.132-21.533-21.533-21.533h-42.267c-11.892 0-21.533 9.132-21.533 21.533v42.267zM298.667 567.267c0 11.892 9.132 21.533 21.533 21.533h42.267c11.892 0 21.533-9.132 21.533-21.533v-42.267c0-11.892-9.132-21.533-21.533-21.533h-42.267c-11.892 0-21.533 9.132-21.533 21.533v42.267z" />
<glyph unicode="&#xe96b;" glyph-name="ic_planactive_black" d="M938.667 442.977v423.31c0 11.529-9.444 21.179-21.094 21.179h-811.146c-11.51 0-21.094-9.482-21.094-21.179v-640.308c0-11.529 9.463-21.179 21.137-21.179h106.863l0.482-145.826c0-23.785 16.014-32.39 35.596-19.336l219.922 165.161h71.741c-1.515 2.588-2.999 5.208-4.464 7.87-13.968 25.39-22.127 50.976-24.126 77.463h-85.818l-128-106.667v106.667h-128v512h682.667v-341.679c3.544 0.229 7.102 0.346 10.667 0.346 27.058 0 52.44-6.417 74.667-17.823zM264.533 674.133h494.933c4.713 0 8.533-3.821 8.533-8.533v-68.267c0-4.713-3.821-8.533-8.533-8.533h-494.933c-4.713 0-8.533 3.821-8.533 8.533v68.267c0 4.713 3.821 8.533 8.533 8.533zM264.533 503.467h238.933c4.713 0 8.533-3.821 8.533-8.533v-68.267c0-4.713-3.821-8.533-8.533-8.533h-238.933c-4.713 0-8.533 3.821-8.533 8.533v68.267c0 4.713 3.821 8.533 8.533 8.533zM761.381 37.344c3.608-3.133 9.625-3.009 13.084-0.028l40.561 34.947c88.539 76.732 115.961 103.67 138.047 142.866 12.993 23.059 19.726 46.388 19.726 70.819 0 69.353-56.936 123.652-123.733 123.652-43.236 0-58.836-18.858-81.152-34.133-22.39 15.275-49.266 34.133-80.982 34.133-66.797 0-123.733-54.299-123.733-123.652 0-24.534 6.79-47.953 19.888-71.1 22.137-39.121 49.769-66.22 137.838-142.382l40.455-35.123z" />
<glyph unicode="&#xe96c;" glyph-name="ic_planactive_outline" d="M938.667 442.977v423.31c0 11.529-9.444 21.179-21.094 21.179h-811.146c-11.51 0-21.094-9.482-21.094-21.179v-640.308c0-11.529 9.463-21.179 21.137-21.179h106.863l0.482-145.826c0-23.785 16.014-32.39 35.596-19.336l219.922 165.161h71.741c-1.515 2.588-2.999 5.208-4.464 7.87-13.968 25.39-22.127 50.976-24.126 77.463h-85.818l-128-106.667v106.667h-128v512h682.667v-341.679c3.544 0.229 7.102 0.346 10.667 0.346 27.058 0 52.44-6.417 74.667-17.823zM264.533 674.133h494.933c4.713 0 8.533-3.821 8.533-8.533v-68.267c0-4.713-3.821-8.533-8.533-8.533h-494.933c-4.713 0-8.533 3.821-8.533 8.533v68.267c0 4.713 3.821 8.533 8.533 8.533zM264.533 503.467h238.933c4.713 0 8.533-3.821 8.533-8.533v-68.267c0-4.713-3.821-8.533-8.533-8.533h-238.933c-4.713 0-8.533 3.821-8.533 8.533v68.267c0 4.713 3.821 8.533 8.533 8.533zM770.71 123.196c-1.497-1.359-3.938-1.349-5.87 0.41 0 0-105.772 95.586-122.338 124.862-7.552 13.345-11.035 25.36-11.035 37.48 0 30.907 25.667 55.385 59.733 55.385 19.512 0 38.905-8.693 51.34-22.618l25.46-28.514 25.46 28.514c12.434 13.925 31.827 22.618 51.34 22.618 34.067 0 59.733-24.478 59.733-55.385 0-12.066-3.453-24.028-10.935-37.307-16.513-29.307-122.888-125.444-122.888-125.444zM761.381 37.344c3.608-3.133 9.625-3.009 13.084-0.028l40.561 34.947c88.539 76.732 115.961 103.67 138.047 142.866 12.993 23.059 19.726 46.388 19.726 70.819 0 69.353-56.936 123.652-128 123.652-38.969 0-54.52-8.432-76.836-23.35-22.39 14.918-49.315 23.35-76.764 23.35-71.064 0-128-54.299-128-123.652 0-24.534 6.79-47.953 19.888-71.1 22.137-39.121 49.769-66.22 137.838-142.382l40.455-35.123z" />
<glyph unicode="&#xe96d;" glyph-name="ic_attendance_outer_black" d="M270.635 783.954c133.291 138.017 349.397 138.017 482.688 0 133.291-138.062 133.291-361.863 0-499.88l-226.267-234.305c-8.643-8.95-21.857-8.635-30.194 0l-226.227 234.305c-133.291 138.017-133.291 361.863 0 499.88zM512 375.467c94.257 0 170.667 76.41 170.667 170.667s-76.41 170.667-170.667 170.667c-94.257 0-170.667-76.41-170.667-170.667s76.41-170.667 170.667-170.667z" />
<glyph unicode="&#xe96e;" glyph-name="ic_attendance_outer" d="M691.941 343.353c101.357 104.951 101.357 276.336-0.010 381.331-99.732 103.269-260.173 103.269-359.915-0.010-101.355-104.949-101.355-276.372 0.007-381.328l180.343-186.783 179.574 186.791zM753.323 284.073l-226.267-234.305c-8.339-8.635-21.553-8.95-30.194 0l-226.227 234.305c-133.291 138.017-133.291 361.863 0 499.88s349.397 138.017 482.688 0c133.291-138.062 133.291-361.863 0-499.88zM512 375.467c-94.257 0-170.667 76.41-170.667 170.667s76.41 170.667 170.667 170.667c94.257 0 170.667-76.41 170.667-170.667s-76.41-170.667-170.667-170.667zM512 460.8c47.128 0 85.333 38.205 85.333 85.333s-38.205 85.333-85.333 85.333c-47.128 0-85.333-38.205-85.333-85.333s38.205-85.333 85.333-85.333z" />
<glyph unicode="&#xe96f;" glyph-name="ic_attendmac_black" d="M149.302 674.246l154.954-154.525c8.613-8.59 24.982-15.399 36.836-15.484l106.878-0.768c11.634-0.084 21.419 9.456 21.365 21.312l-0.511 111.447c-0.056 12.271-6.727 28.157-14.905 36.412l-151.147 152.579c31.725 12.635 66.332 19.582 102.561 19.582 153.167 0 277.333-124.166 277.333-277.333 0-37.409-7.407-73.088-20.834-105.65l195.407-195.407c41.765-41.765 42.143-109.1 0.197-151.046-41.656-41.656-109.204-41.646-151.046 0.197l-195.407 195.407c-32.563-13.427-68.241-20.834-105.65-20.834-153.167 0-277.333 124.166-277.333 277.333 0 37.842 7.579 73.913 21.302 106.779zM768 162.133c23.564 0 42.667 19.103 42.667 42.667s-19.103 42.667-42.667 42.667c-23.564 0-42.667-19.103-42.667-42.667s19.103-42.667 42.667-42.667z" />
<glyph unicode="&#xe970;" glyph-name="ic_attendmac_outline" d="M370.948 756.396l-68.176 68.822c31.725 12.635 66.332 19.582 102.561 19.582 153.167 0 277.333-124.166 277.333-277.333s-124.166-277.333-277.333-277.333c-153.167 0-277.333 124.166-277.333 277.333 0 37.842 7.579 73.913 21.302 106.779l67.99-67.802c-2.595-12.586-3.959-25.622-3.959-38.977 0-106.039 85.961-192 192-192s192 85.961 192 192c0 106.039-85.961 192-192 192-11.737 0-23.229-1.053-34.385-3.070zM539.272 377.203l216.712-216.712c9.536-9.536 25.289-9.536 34.908 0.084 9.837 9.837 9.825 25.167 0.084 34.908l-216.712 216.712-34.992-34.992zM478.932 316.863l155.671 155.671 216.712-216.712c42.941-42.941 43.204-112.301-0.084-155.588-42.987-42.987-112.771-42.9-155.588-0.084l-216.712 216.712zM185.068 736.004c-18.263-23.832-32.745-50.714-42.55-79.749l165.068-160.844c3.592-3.5 11.124-6.447 16.725-6.486l145.621-1.022c8.051-0.056 14.487 6.443 14.45 14.517l-0.692 147.627c-0.023 4.98-3.021 12.156-6.694 15.779l-165.093 162.843c-27.933-9.993-53.795-24.339-76.769-42.221l169.484-166.963 0.276-48.836-50.003-0.278-169.822 165.633z" />
<glyph unicode="&#xe971;" glyph-name="ic_alert_highlightoff_black2" d="M512 521.14l114.378 114.378c3.693 3.693 8.99 3.612 12.308 0.295l48.327-48.327c3.413-3.413 3.185-8.827-0.295-12.308l-114.378-114.378 114.378-114.378c3.48-3.48 3.709-8.894 0.295-12.308l-48.327-48.327c-3.317-3.317-8.614-3.398-12.308 0.295l-114.378 114.378-114.378-114.378c-3.693-3.693-8.99-3.612-12.308-0.295l-48.327 48.327c-3.413 3.413-3.185 8.827 0.295 12.308l114.378 114.378-114.378 114.378c-3.48 3.48-3.709 8.894-0.295 12.308l48.327 48.327c3.317 3.317 8.614 3.398 12.308-0.295l114.378-114.378zM938.667 455.533c0 240.914-191.020 431.934-431.934 431.934-230.379 0-421.399-191.020-421.399-431.934 0-230.379 191.020-421.399 421.399-421.399 240.914 0 431.934 191.020 431.934 421.399z" />
<glyph unicode="&#xe972;" glyph-name="ic_arrow04_down" d="M640 546.133v-469.333h-256v469.333h-213.333l341.333 298.667 341.333-298.667h-213.333z" />
<glyph unicode="&#xe973;" glyph-name="ic_arrow04_left" d="M426.667 588.8h469.333v-256h-469.333v-213.333l-298.667 341.333 298.667 341.333v-213.333z" />
<glyph unicode="&#xe974;" glyph-name="ic_arrow04_right" d="M597.333 588.8h-469.333v-256h469.333v-213.333l298.667 341.333-298.667 341.333v-213.333z" />
<glyph unicode="&#xe975;" glyph-name="ic_arrow04_up" d="M640 375.467v469.333h-256v-469.333h-213.333l341.333-298.667 341.333 298.667h-213.333z" />
<glyph unicode="&#xe976;" glyph-name="ic_filter_black" d="M639.609 546.133l237.35 238.227c33.257 33.38 21.943 60.44-25.4 60.44h-680.999c-47.285 0-58.586-27.031-25.178-60.44l238.227-238.227 0.619-405.154c0.018-12.016 9.131-24.786 20.092-28.434l215.511-71.735c11.078-3.687 20.053 3.094 20.047 14.671l-0.27 490.652z" />
<glyph unicode="&#xe977;" glyph-name="ic_filter_outline" d="M682.905 546.133l229.478 225.717c49.063 50.551 24.92 115.616-45.372 115.616h-712.761c-66.936 0-90.582-62.922-45.535-110.571l232.856-230.762 0.024-359.819c0-24.932 15.601-49.861 38.619-59.986l58.81-34.010c1.845-1.067 4.391-0.103 5.625 2.047l37.903 66.055c1.261 2.198 0.852 4.804-1.516 6.167l-54.108 31.155v382.556l-226.395 221.835h622.933l-226.242-221.835v-542.083c0-2.255 2.109-4.082 4.588-4.082h76.158c2.534 0 4.589 2.283 4.591 4.426l0.344 507.574z" />
<glyph unicode="&#xe978;" glyph-name="ic_home_a_black" d="M810.667 581.778l127.924-112.637-44.912-44.912-381.734 335.238-381.928-336.131-44.34 45.428 419.572 370.13c3.974 3.505 9.696 3.265 13.397 0.006l164.020-144.418v99.524c0 4.489 3.693 8.128 8.398 8.128h111.203c4.638 0 8.398-3.619 8.398-8.518v-211.838zM803.569 76.8c3.92 0 7.098 3.76 7.098 7.622v327.183l-292.967 260.44c-3.148 2.798-8.282 2.771-11.399 0l-292.967-260.44v-327.183c0-4.209 3.703-7.622 7.098-7.622h206.235v206.235c0 3.92 2.962 7.098 7.333 7.098h156c4.050 0 7.333-3.703 7.333-7.098v-206.235h206.235z" />
<glyph unicode="&#xe979;" glyph-name="ic_home_a_outline" d="M518.647 838.899c-3.701 3.259-9.424 3.499-13.397-0.006l-419.572-370.13 44.34-45.428 381.928 336.131 381.734-335.238 44.912 44.912-419.944 369.758zM725.342 76.8h77.772c4.171 0 7.552 3.76 7.552 7.622v327.183l-292.967 260.44c-3.148 2.798-8.282 2.771-11.399 0l-292.967-260.44v-327.183c0-4.209 3.214-7.622 7.553-7.622h77.781v297.156l214.2 189.749 212.581-190.52-0.106-296.385zM435.2 332.8h153.6c4.713 0 8.533-3.821 8.533-8.533v-238.933c0-4.713-3.821-8.533-8.533-8.533h-153.6c-4.713 0-8.533 3.821-8.533 8.533v238.933c0 4.713 3.821 8.533 8.533 8.533zM256 162.133h512v-85.333h-512v85.333z" />
<glyph unicode="&#xe97a;" glyph-name="ic_home_b_black" d="M418.040 76.8c4.765 0 8.627 3.619 8.627 8.518v247.482h170.667v-247.482c0-4.704 3.703-8.518 8.627-8.518h196.079c4.765 0 8.627 3.833 8.627 8.437v332.896h119.602c4.638 0 5.674 2.452 2.367 5.428l-414.604 373.143c-3.331 2.998-8.756 2.976-12.063 0l-414.604-373.143c-3.331-2.998-2.339-5.428 2.367-5.428h119.602v-332.896c0-4.66 3.703-8.437 8.627-8.437h196.079z" />
<glyph unicode="&#xe97b;" glyph-name="ic_home_b_outline" d="M460.816 76.8h-238.965c-4.899 0-8.518 3.778-8.518 8.437v332.896h-119.602c-4.706 0-5.698 2.43-2.367 5.428l414.604 373.143c3.307 2.976 8.732 2.998 12.063 0l414.604-373.143c3.307-2.976 2.271-5.428-2.367-5.428h-119.602v-332.896c0-4.604-3.813-8.437-8.518-8.437h-238.965c-4.899 0-8.518 3.813-8.518 8.518v247.482h-85.333v-247.482c0-4.899-3.813-8.518-8.518-8.518zM725.333 162.133v332.8l-213.333 192-213.333-192v-332.8h85.333v247.482c0 4.704 3.619 8.518 8.518 8.518h238.965c4.704 0 8.518-3.619 8.518-8.518v-247.482h85.333z" />
<glyph unicode="&#xe97c;" glyph-name="ic_video_black" d="M810.667 603.022v177.932c0 11.529-9.555 21.179-21.342 21.179h-725.315c-11.632 0-21.342-9.482-21.342-21.179v-640.308c0-11.529 9.555-21.179 21.342-21.179h725.315c11.632 0 21.342 9.482 21.342 21.179v177.932l153.071-102.047c9.718-6.479 17.596-1.96 17.596 9.618v469.304c0 11.79-7.942 16.053-17.596 9.618l-153.071-102.047z" />
<glyph unicode="&#xe97d;" glyph-name="ic_video_outline" d="M42.667 780.954v-640.308c0-11.529 9.555-21.179 21.342-21.179h725.315c11.632 0 21.342 9.482 21.342 21.179v640.308c0 11.529-9.555 21.179-21.342 21.179h-725.315c-11.632 0-21.342-9.482-21.342-21.179zM128 716.8h597.333v-512h-597.333v512zM981.333 695.452c0 11.79-7.942 16.053-17.596 9.618l-231.019-154.012c-4.079-2.719-7.385-9.142-7.385-13.155v-154.203c0-4.546 2.875-10.148 7.385-13.155l231.019-154.012c9.718-6.479 17.596-1.96 17.596 9.618v469.304zM896 557.11v-192.62l-85.333 53.643v85.333l85.333 53.643z" />
<glyph unicode="&#xe97e;" glyph-name="ic_lockopen_black" d="M298.667 631.467h85.333v42.667c0 70.692 57.451 128 128 128 70.692 0 128-57.451 128-128v-128h-426.629c-23.733 0-42.704-19.15-42.704-42.772v-426.456c0-23.326 19.119-42.772 42.704-42.772h597.259c23.733 0 42.704 19.15 42.704 42.772v426.456c0 23.326-19.119 42.772-42.704 42.772h-85.296v128c0 117.581-95.513 213.333-213.333 213.333-117.581 0-213.333-95.513-213.333-213.333v-42.667zM426.667 290.133c0 47.128 37.876 85.333 85.333 85.333 47.128 0 85.333-37.876 85.333-85.333 0-47.128-37.876-85.333-85.333-85.333-47.128 0-85.333 37.876-85.333 85.333z" />
<glyph unicode="&#xe97f;" glyph-name="ic_lockopen_outline" d="M298.667 631.467h85.333v42.667c0 70.692 57.451 128 128 128 70.692 0 128-57.451 128-128v-128h-426.629c-23.733 0-42.704-19.15-42.704-42.772v-426.456c0-23.326 19.119-42.772 42.704-42.772h597.259c23.733 0 42.704 19.15 42.704 42.772v426.456c0 23.326-19.119 42.772-42.704 42.772h-85.296v128c0 117.581-95.513 213.333-213.333 213.333-117.581 0-213.333-95.513-213.333-213.333v-42.667zM256 460.8h512v-341.333h-512v341.333zM426.667 290.133c0 47.128 37.876 85.333 85.333 85.333 47.128 0 85.333-37.876 85.333-85.333 0-47.128-37.876-85.333-85.333-85.333-47.128 0-85.333 37.876-85.333 85.333z" />
<glyph unicode="&#xe980;" glyph-name="ic_lock_black" d="M725.333 546.133v128c0 117.581-95.513 213.333-213.333 213.333-117.581 0-213.333-95.513-213.333-213.333v-128h-85.296c-23.733 0-42.704-19.15-42.704-42.772v-426.456c0-23.326 19.119-42.772 42.704-42.772h597.259c23.733 0 42.704 19.15 42.704 42.772v426.456c0 23.326-19.119 42.772-42.704 42.772h-85.296zM384 674.133c0 70.692 57.451 128 128 128 70.692 0 128-57.451 128-128v-128h-256v128zM426.667 290.133c0 47.128 37.876 85.333 85.333 85.333 47.128 0 85.333-37.876 85.333-85.333 0-47.128-37.876-85.333-85.333-85.333-47.128 0-85.333 37.876-85.333 85.333z" />
<glyph unicode="&#xe981;" glyph-name="ic_lock_outline" d="M725.333 546.133v128c0 117.581-95.513 213.333-213.333 213.333-117.581 0-213.333-95.513-213.333-213.333v-128h-85.296c-23.733 0-42.704-19.15-42.704-42.772v-426.456c0-23.326 19.119-42.772 42.704-42.772h597.259c23.733 0 42.704 19.15 42.704 42.772v426.456c0 23.326-19.119 42.772-42.704 42.772h-85.296zM384 674.133c0 70.692 57.451 128 128 128 70.692 0 128-57.451 128-128v-128h-256v128zM256 460.8h512v-341.333h-512v341.333zM426.667 290.133c0 47.128 37.876 85.333 85.333 85.333 47.128 0 85.333-37.876 85.333-85.333 0-47.128-37.876-85.333-85.333-85.333-47.128 0-85.333 37.876-85.333 85.333z" />
<glyph unicode="&#xe982;" glyph-name="ic_morehoriz" d="M128 460.8c0 47.128 37.876 85.333 85.333 85.333 47.128 0 85.333-37.876 85.333-85.333 0-47.128-37.876-85.333-85.333-85.333-47.128 0-85.333 37.876-85.333 85.333zM426.667 460.8c0 47.128 37.876 85.333 85.333 85.333 47.128 0 85.333-37.876 85.333-85.333 0-47.128-37.876-85.333-85.333-85.333-47.128 0-85.333 37.876-85.333 85.333zM725.333 460.8c0 47.128 37.876 85.333 85.333 85.333 47.128 0 85.333-37.876 85.333-85.333 0-47.128-37.876-85.333-85.333-85.333-47.128 0-85.333 37.876-85.333 85.333z" />
<glyph unicode="&#xe983;" glyph-name="ic_morevert" d="M512 844.8c47.128 0 85.333-37.876 85.333-85.333 0-47.128-37.876-85.333-85.333-85.333-47.128 0-85.333 37.876-85.333 85.333 0 47.128 37.876 85.333 85.333 85.333zM512 546.133c47.128 0 85.333-37.876 85.333-85.333 0-47.128-37.876-85.333-85.333-85.333-47.128 0-85.333 37.876-85.333 85.333 0 47.128 37.876 85.333 85.333 85.333zM512 247.467c47.128 0 85.333-37.876 85.333-85.333 0-47.128-37.876-85.333-85.333-85.333-47.128 0-85.333 37.876-85.333 85.333 0 47.128 37.876 85.333 85.333 85.333z" />
<glyph unicode="&#xe984;" glyph-name="ic_move_black" d="M554.667 588.8v128h142.543l-179.047 164.988c-3.544 3.266-8.829 3.136-12.118 0l-173.046-164.988h136.335v-128h85.333zM554.468 332.8v-128h142.543l-179.047-164.988c-3.544-3.266-8.829-3.136-12.118 0l-173.046 164.988h136.335v128h85.333zM640 417.707h128v-142.543l164.988 179.047c3.266 3.544 3.136 8.829 0 12.118l-164.988 173.046v-136.335h-128v-85.333zM384 417.707h-131.277v-142.543l-164.988 179.047c-3.266 3.544-3.136 8.829 0 12.118l164.988 173.046v-136.335h131.277v-85.333z" />
<glyph unicode="&#xe985;" glyph-name="ic_move_outline" d="M398.222 668.038l-56.889 56.889 170.667 162.54 170.667-162.54-52.079-56.889-77.952 70.448v-135.463h-81.27v135.463l-73.143-70.448zM719.238 574.578l56.889 56.889 162.54-170.667-162.54-170.667-56.889 52.079 70.448 77.952h-135.463v81.27h135.463l-70.448 73.143zM625.778 253.562l56.889-56.889-170.667-162.54-170.667 162.54 52.079 56.889 77.952-70.448v135.463h81.27v-135.463l73.143 70.448zM304.762 347.022l-56.889-56.889-162.54 170.667 162.54 170.667 56.889-52.079-70.448-77.952h135.463v-81.27h-135.463l70.448-73.143z" />
<glyph unicode="&#xe986;" glyph-name="ic_recycle_a" d="M554.667 802.133h319.991c11.787 0 21.342-9.132 21.342-21.533v-42.267c0-11.892-9.71-21.533-21.342-21.533h-725.315c-11.787 0-21.342 9.132-21.342 21.533v42.267c0 11.892 9.71 21.533 21.342 21.533h319.991v64.197c0 11.673 9.132 21.137 21.533 21.137h42.267c11.892 0 21.533-9.205 21.533-21.137v-64.197zM213.333 652.839v-597.412c0-11.75 9.518-21.294 21.259-21.294h554.815c11.877 0 21.259 9.534 21.259 21.294v597.412c0 11.75-9.518 21.294-21.259 21.294h-554.815c-11.877 0-21.259-9.534-21.259-21.294zM384 503.467h42.667v-298.667h-42.667v298.667zM597.333 503.467h42.667v-298.667h-42.667v298.667z" />
<glyph unicode="&#xe987;" glyph-name="ic_recycle_b" d="M682.667 802.133h191.991c11.787 0 21.342-9.132 21.342-21.533v-42.267c0-11.892-9.71-21.533-21.342-21.533h-725.315c-11.787 0-21.342 9.132-21.342 21.533v42.267c0 11.892 9.71 21.533 21.342 21.533h191.991v42.711c0 23.54 19.33 42.622 42.54 42.622h256.253c23.494 0 42.54-18.887 42.54-42.622v-42.711zM213.333 652.839v-597.412c0-11.75 9.518-21.294 21.259-21.294h554.815c11.877 0 21.259 9.534 21.259 21.294v597.412c0 11.75-9.518 21.294-21.259 21.294h-554.815c-11.877 0-21.259-9.534-21.259-21.294zM298.667 588.8h85.333v-469.333h-85.333v469.333zM640 588.8h85.333v-469.333h-85.333v469.333zM469.333 588.8h85.333v-469.333h-85.333v469.333z" />
<glyph unicode="&#xe988;" glyph-name="ic_recycle_black" d="M106.667 759.467h768c11.782 0 21.333-9.551 21.333-21.333v-42.667c0-11.782-9.551-21.333-21.333-21.333h-768c-11.782 0-21.333 9.551-21.333 21.333v42.667c0 11.782 9.551 21.333 21.333 21.333zM362.667 887.467h256c11.782 0 21.333-9.551 21.333-21.333v-42.667c0-11.782-9.551-21.333-21.333-21.333h-256c-11.782 0-21.333 9.551-21.333 21.333v42.667c0 11.782 9.551 21.333 21.333 21.333zM170.667 716.8v-639.963c0-23.733 19.245-42.704 42.986-42.704h554.028c23.832 0 42.986 19.119 42.986 42.704v639.963h-640zM554.667 546.133h85.333v-298.667h-85.333v298.667zM341.333 546.133h85.333v-298.667h-85.333v298.667z" />
<glyph unicode="&#xe989;" glyph-name="ic_recycle_outline" d="M106.667 759.467h768c11.782 0 21.333-9.551 21.333-21.333v-42.667c0-11.782-9.551-21.333-21.333-21.333h-768c-11.782 0-21.333 9.551-21.333 21.333v42.667c0 11.782 9.551 21.333 21.333 21.333zM362.667 887.467h256c11.782 0 21.333-9.551 21.333-21.333v-42.667c0-11.782-9.551-21.333-21.333-21.333h-256c-11.782 0-21.333 9.551-21.333 21.333v42.667c0 11.782 9.551 21.333 21.333 21.333zM554.667 546.133h85.333v-298.667h-85.333v298.667zM341.333 546.133h85.333v-298.667h-85.333v298.667zM170.667 716.8v-639.963c0-23.733 19.245-42.704 42.986-42.704h554.028c23.832 0 42.986 19.119 42.986 42.704v639.963h-640zM256 716.8h469.333v-588.889c0-4.664-4.057-8.444-8.146-8.444h-453.041c-4.499 0-8.146 3.814-8.146 8.444v588.889z" />
<glyph unicode="&#xe98a;" glyph-name="ic_set_black" d="M400.693 783.574l23.915 95.662c1.137 4.546 6.277 8.232 10.29 8.232h154.203c4.546 0 9.123-3.565 10.29-8.232l23.915-95.662c13.116-4.522 25.87-9.821 38.207-15.842l84.57 50.742c4.018 2.411 10.259 1.382 13.096-1.455l109.038-109.038c3.215-3.215 3.93-8.971 1.455-13.096l-50.742-84.57c6.021-12.337 11.32-25.091 15.842-38.207l95.662-23.915c4.546-1.137 8.232-6.277 8.232-10.29v-154.203c0-4.546-3.565-9.123-8.232-10.29l-95.662-23.915c-4.522-13.116-9.821-25.87-15.842-38.207l50.742-84.57c2.411-4.018 1.382-10.259-1.455-13.096l-109.038-109.038c-3.215-3.215-8.971-3.93-13.096-1.455l-84.57 50.742c-12.337-6.021-25.091-11.32-38.207-15.842l-23.915-95.662c-1.137-4.546-6.277-8.232-10.29-8.232h-154.203c-4.546 0-9.123 3.565-10.29 8.232l-23.915 95.662c-13.116 4.522-25.87 9.821-38.207 15.842l-84.57-50.742c-4.018-2.411-10.259-1.382-13.096 1.455l-109.038 109.038c-3.215 3.215-3.93 8.971-1.455 13.096l50.742 84.57c-6.021 12.337-11.32 25.091-15.842 38.207l-95.662 23.915c-4.546 1.137-8.232 6.277-8.232 10.29v154.203c0 4.546 3.565 9.123 8.232 10.29l95.662 23.915c4.522 13.116 9.821 25.87 15.842 38.207l-50.742 84.57c-2.411 4.018-1.382 10.259 1.455 13.096l109.038 109.038c3.215 3.215 8.971 3.93 13.096 1.455l84.57-50.742c12.337 6.021 25.091 11.32 38.207 15.842zM512 247.467c117.821 0 213.333 95.513 213.333 213.333s-95.513 213.333-213.333 213.333c-117.821 0-213.333-95.513-213.333-213.333s95.513-213.333 213.333-213.333z" />
<glyph unicode="&#xe98b;" glyph-name="ic_set_outline" d="M575.77 796.187c46.846-8.853 90.308-27.278 128.276-53.165l59.921 39.177c10.029 6.557 24.917 5.114 33.446-3.415l32.578-32.578c8.443-8.443 10.163-23.126 3.415-33.446l-39.178-59.923c25.885-37.969 44.309-81.432 53.16-128.278l70.042-14.662c11.728-2.455 21.235-14.003 21.235-26.065v-46.073c0-11.941-9.167-23.539-21.235-26.065l-70.045-14.662c-8.853-46.846-27.278-90.308-53.165-128.276l39.177-59.921c6.557-10.029 5.114-24.917-3.415-33.446l-32.578-32.578c-8.443-8.443-23.126-10.163-33.446-3.415l-59.923 39.178c-37.969-25.885-81.432-44.309-128.278-53.16l-14.662-70.042c-2.455-11.728-14.003-21.235-26.065-21.235h-46.073c-11.941 0-23.539 9.167-26.065 21.235l-14.662 70.045c-46.846 8.853-90.308 27.278-128.276 53.165l-59.921-39.177c-10.029-6.557-24.917-5.114-33.446 3.415l-32.578 32.578c-8.443 8.443-10.163 23.126-3.415 33.446l39.178 59.923c-25.885 37.969-44.309 81.432-53.16 128.278l-70.042 14.662c-11.728 2.455-21.235 14.003-21.235 26.065v46.073c0 11.941 9.167 23.539 21.235 26.065l70.045 14.662c8.853 46.846 27.278 90.308 53.165 128.276l-39.177 59.921c-6.557 10.029-5.114 24.917 3.415 33.446l32.578 32.578c8.443 8.443 23.126 10.163 33.446 3.415l59.923-39.178c37.969 25.885 81.432 44.309 128.278 53.16l14.662 70.042c2.455 11.728 14.003 21.235 26.065 21.235h46.073c11.941 0 23.539-9.167 26.065-21.235l14.662-70.045zM512 204.8c141.385 0 256 114.615 256 256s-114.615 256-256 256c-141.385 0-256-114.615-256-256s114.615-256 256-256z" />
<glyph unicode="&#xe98c;" glyph-name="ic_calendar_date" d="M768 802.133v72.627c0 6.552-5.637 12.706-12.591 12.706h-60.151c-6.992 0-12.591-5.689-12.591-12.706v-72.627h-341.333v72.627c0 6.552-5.637 12.706-12.591 12.706h-60.151c-6.992 0-12.591-5.689-12.591-12.706v-72.627h-149.573c-11.51 0-21.094-9.555-21.094-21.342v-725.315c0-11.632 9.444-21.342 21.094-21.342h811.146c11.51 0 21.094 9.555 21.094 21.342v725.315c0 11.632-9.444 21.342-21.094 21.342h-149.573zM170.667 631.467h682.667v-512h-682.667v512zM256 546.133h85.333v-85.333h-85.333v85.333zM469.333 546.133h85.333v-85.333h-85.333v85.333zM682.667 546.133h85.333v-85.333h-85.333v85.333z" />
<glyph unicode="&#xe98d;" glyph-name="ic_calendar_event" d="M768 802.133v72.627c0 6.552-5.637 12.706-12.591 12.706h-60.151c-6.992 0-12.591-5.689-12.591-12.706v-72.627h-341.333v72.627c0 6.552-5.637 12.706-12.591 12.706h-60.151c-6.992 0-12.591-5.689-12.591-12.706v-72.627h-149.573c-11.51 0-21.094-9.555-21.094-21.342v-725.315c0-11.632 9.444-21.342 21.094-21.342h811.146c11.51 0 21.094 9.555 21.094 21.342v725.315c0 11.632-9.444 21.342-21.094 21.342h-149.573zM170.667 631.467h682.667v-512h-682.667v512zM597.333 375.467h170.667v-170.667h-170.667v170.667z" />
<glyph unicode="&#xe98e;" glyph-name="ic_calendar_a" d="M682.667 716.8v-72.286c0-7.7 5.637-13.047 12.591-13.047h60.151c6.992 0 12.591 5.841 12.591 13.047v72.286h85.333v-128h-682.667v128h85.333v-72.286c0-7.7 5.637-13.047 12.591-13.047h60.151c6.992 0 12.591 5.841 12.591 13.047v72.286h341.333zM768 802.133v72.286c0 7.7-5.637 13.047-12.591 13.047h-60.151c-6.992 0-12.591-5.841-12.591-13.047v-72.286h-341.333v72.286c0 7.7-5.637 13.047-12.591 13.047h-60.151c-6.992 0-12.591-5.841-12.591-13.047v-72.286h-149.573c-11.51 0-21.094-9.555-21.094-21.342v-725.315c0-11.632 9.444-21.342 21.094-21.342h811.146c11.51 0 21.094 9.555 21.094 21.342v725.315c0 11.632-9.444 21.342-21.094 21.342h-149.573zM853.333 503.467v-384h-682.667v384h682.667z" />
<glyph unicode="&#xe98f;" glyph-name="ic_calendar_outline2" d="M810.667 802.133v64.197c0 11.931-9.463 21.137-21.137 21.137h-85.727c-11.931 0-21.137-9.463-21.137-21.137v-64.197h-341.333v64.197c0 11.931-9.463 21.137-21.137 21.137h-85.727c-11.931 0-21.137-9.463-21.137-21.137v-64.197h-106.906c-11.51 0-21.094-9.555-21.094-21.342v-725.315c0-11.632 9.444-21.342 21.094-21.342h811.146c11.51 0 21.094 9.555 21.094 21.342v725.315c0 11.632-9.444 21.342-21.094 21.342h-106.906zM170.667 674.133h682.667v-554.667h-682.667v554.667zM674.086 569.229c4.739 10.809-1.356 19.571-12.899 19.571h-268.571c-4.759 0-8.616-3.667-8.616-8.494v-68.345c0-4.691 3.613-8.494 8.343-8.494h164.626l-124.576-290.678c-1.891-4.412 0.243-7.989 5.070-7.989h68.345c4.691 0 9.95 3.32 12.011 8.020l156.267 356.409z" />
<glyph unicode="&#xe990;" glyph-name="ic_calendar_black2" d="M810.667 802.133h106.906c11.65 0 21.094-9.171 21.094-20.926v-683.482c0-11.557-9.583-20.926-21.094-20.926h-811.146c-11.65 0-21.094 9.171-21.094 20.926v683.482c0 11.557 9.583 20.926 21.094 20.926h106.906v64.197c0 11.673 9.205 21.137 21.137 21.137h85.727c11.673 0 21.137-9.205 21.137-21.137v-64.197h341.333v64.197c0 11.673 9.205 21.137 21.137 21.137h85.727c11.673 0 21.137-9.205 21.137-21.137v-64.197zM674.086 611.896c4.739 10.809-1.356 19.571-12.899 19.571h-277.187v-85.333h172.969l-128-298.667h85.333l159.784 364.429z" />
</font>
</defs>
</svg>
